<?xml version="1.0" encoding="UTF-8" standalone="no"?>
<svg
   xmlns:dc="http://purl.org/dc/elements/1.1/"
   xmlns:cc="http://creativecommons.org/ns#"
   xmlns:rdf="http://www.w3.org/1999/02/22-rdf-syntax-ns#"
   xmlns:svg="http://www.w3.org/2000/svg"
   xmlns="http://www.w3.org/2000/svg"
   id="svg9478"
   version="1.1"
   viewBox="0 0 33.866666 33.866668"
   height="128"
   width="128">
  <defs
     id="defs9472">
    <clipPath
       clipPathUnits="userSpaceOnUse"
       id="clipPath65193">
      <path
         d="M 0,1366 H 1366 V 0 H 0 Z"
         id="path65191" />
    </clipPath>
  </defs>
  <metadata
     id="metadata9475">
    <rdf:RDF>
      <cc:Work
         rdf:about="">
        <dc:format>image/svg+xml</dc:format>
        <dc:type
           rdf:resource="http://purl.org/dc/dcmitype/StillImage" />
        <dc:title></dc:title>
      </cc:Work>
    </rdf:RDF>
  </metadata>
  <g
     transform="translate(0,-263.13332)"
     id="layer1">
    <g
       id="g65167"
       transform="matrix(0.02738149,0,0,-0.02738149,-1.7682259,298.76821)">
      <path
         d="M 729.715,1008.187 H 601.653 v 128.062 h 128.062 z"
         style="fill:#009ddb;fill-opacity:1;fill-rule:nonzero;stroke:none"
         id="path65169" />
      <path
         d="M 729.715,847.194 H 601.653 v 128.062 h 128.062 z"
         style="fill:#009ddb;fill-opacity:1;fill-rule:nonzero;stroke:none"
         id="path65171" />
      <path
         d="M 729.715,686.202 H 601.653 v 128.062 h 128.062 z"
         style="fill:#009ddb;fill-opacity:1;fill-rule:nonzero;stroke:none"
         id="path65173" />
      <path
         d="M 574.21,847.194 H 446.148 V 975.256 H 574.21 Z"
         style="fill:#009ddb;fill-opacity:1;fill-rule:nonzero;stroke:none"
         id="path65175" />
      <path
         d="M 574.21,686.202 H 446.148 V 814.264 H 574.21 Z"
         style="fill:#009ddb;fill-opacity:1;fill-rule:nonzero;stroke:none"
         id="path65177" />
      <path
         d="M 418.706,847.194 H 290.644 v 128.062 h 128.062 z"
         style="fill:#009ddb;fill-opacity:1;fill-rule:nonzero;stroke:none"
         id="path65179" />
      <path
         d="M 418.706,686.202 H 290.644 v 128.062 h 128.062 z"
         style="fill:#009ddb;fill-opacity:1;fill-rule:nonzero;stroke:none"
         id="path65181" />
      <path
         d="M 265.031,686.202 H 136.968 v 128.062 h 128.063 z"
         style="fill:#009ddb;fill-opacity:1;fill-rule:nonzero;stroke:none"
         id="path65183" />
      <path
         d="M 885.22,686.202 H 757.157 V 814.264 H 885.22 Z"
         style="fill:#009ddb;fill-opacity:1;fill-rule:nonzero;stroke:none"
         id="path65185" />
      <g
         id="g65187">
        <g
           id="g65189"
           clip-path="url(#clipPath65193)">
          <g
             id="g65195"
             transform="translate(483.3027,229.75)">
            <path
               d="m 0,0 c -471.653,0 -416.769,415.289 -416.769,415.289 h 787.426 c 132.795,0 176.702,42.077 176.702,42.077 0,0 -75.008,96.962 12.806,214.048 98.791,-56.714 95.133,-140.869 95.133,-140.869 0,0 100.62,32.93 162.822,-23.783 C 783.36,393.335 629.685,400.653 629.685,400.653 629.685,400.653 486.986,0 0,0"
               style="fill:#009ddb;fill-opacity:1;fill-rule:nonzero;stroke:none"
               id="path65197" />
          </g>
        </g>
      </g>
    </g>
  </g>
</svg>
