<?xml version="1.0" encoding="UTF-8" standalone="no"?>
<svg
   xmlns:dc="http://purl.org/dc/elements/1.1/"
   xmlns:cc="http://creativecommons.org/ns#"
   xmlns:rdf="http://www.w3.org/1999/02/22-rdf-syntax-ns#"
   xmlns:svg="http://www.w3.org/2000/svg"
   xmlns="http://www.w3.org/2000/svg"
   id="svg8620"
   version="1.1"
   viewBox="0 0 68.284962 16.933334"
   height="64"
   width="258.0849">
  <defs
     id="defs8614" />
  <metadata
     id="metadata8617">
    <rdf:RDF>
      <cc:Work
         rdf:about="">
        <dc:format>image/svg+xml</dc:format>
        <dc:type
           rdf:resource="http://purl.org/dc/dcmitype/StillImage" />
        <dc:title></dc:title>
      </cc:Work>
    </rdf:RDF>
  </metadata>
  <g
     transform="translate(-45.232478,-77.622632)"
     id="layer1">
    <g
       id="g9403">
      <g
         id="g9369">
        <path
           id="rect28116"
           d="m 47.40491,77.62265 h 12.571535 c 1.203518,0 2.172416,0.968898 2.172416,2.172416 v 12.571535 c 0,1.203518 -0.968898,2.172416 -2.172416,2.172416 H 47.40491 c -1.203518,0 -2.172416,-0.968898 -2.172416,-2.172416 V 79.795066 c 0,-1.203518 0.968898,-2.172416 2.172416,-2.172416 z"
           style="stroke-width:0.14336066" />
        <g
           id="g9354">
          <path
             id="path28118"
             d="m 55.084313,86.717177 a 2.1962979,2.1962979 0 0 1 -2.196297,2.196325 2.1962979,2.1962979 0 0 1 -2.196297,-2.196325 2.1962979,2.1962979 0 0 1 2.196297,-2.196285 2.1962979,2.1962979 0 0 1 2.196297,2.196285 z"
             style="color:#000000;clip-rule:nonzero;display:inline;overflow:visible;visibility:visible;opacity:1;isolation:auto;mix-blend-mode:normal;color-interpolation:sRGB;color-interpolation-filters:linearRGB;solid-color:#000000;solid-opacity:1;fill:#ffffff;fill-opacity:1;fill-rule:nonzero;stroke:none;stroke-width:5.85718822;stroke-linecap:butt;stroke-linejoin:round;stroke-miterlimit:4;stroke-dasharray:none;stroke-dashoffset:0;stroke-opacity:1;color-rendering:auto;image-rendering:auto;shape-rendering:auto;text-rendering:auto;enable-background:accumulate" />
          <path
             id="path28120"
             d="m 55.62148,81.769736 a 1.3295085,1.3295085 0 0 1 -1.329511,1.329508 1.3295085,1.3295085 0 0 1 -1.329507,-1.329508 1.3295085,1.3295085 0 0 1 1.329507,-1.329507 1.3295085,1.3295085 0 0 1 1.329511,1.329507 z"
             style="color:#000000;clip-rule:nonzero;display:inline;overflow:visible;visibility:visible;opacity:1;isolation:auto;mix-blend-mode:normal;color-interpolation:sRGB;color-interpolation-filters:linearRGB;solid-color:#000000;solid-opacity:1;fill:#ffffff;fill-opacity:1;fill-rule:nonzero;stroke:none;stroke-width:5.85718822;stroke-linecap:butt;stroke-linejoin:round;stroke-miterlimit:4;stroke-dasharray:none;stroke-dashoffset:0;stroke-opacity:1;color-rendering:auto;image-rendering:auto;shape-rendering:auto;text-rendering:auto;enable-background:accumulate" />
          <path
             id="path28122"
             d="M 60.033911,85.513829 A 1.3295085,1.3295085 0 0 1 58.7044,86.843336 1.3295085,1.3295085 0 0 1 57.374893,85.513829 1.3295085,1.3295085 0 0 1 58.7044,84.184322 1.3295085,1.3295085 0 0 1 60.033911,85.513829 Z"
             style="color:#000000;clip-rule:nonzero;display:inline;overflow:visible;visibility:visible;opacity:1;isolation:auto;mix-blend-mode:normal;color-interpolation:sRGB;color-interpolation-filters:linearRGB;solid-color:#000000;solid-opacity:1;fill:#ffffff;fill-opacity:1;fill-rule:nonzero;stroke:none;stroke-width:5.85718822;stroke-linecap:butt;stroke-linejoin:round;stroke-miterlimit:4;stroke-dasharray:none;stroke-dashoffset:0;stroke-opacity:1;color-rendering:auto;image-rendering:auto;shape-rendering:auto;text-rendering:auto;enable-background:accumulate" />
          <path
             id="path28124"
             d="m 57.827706,90.394305 a 1.3295085,1.3295085 0 0 1 -1.329507,1.329507 1.3295085,1.3295085 0 0 1 -1.329507,-1.329507 1.3295085,1.3295085 0 0 1 1.329507,-1.329546 1.3295085,1.3295085 0 0 1 1.329507,1.329546 z"
             style="color:#000000;clip-rule:nonzero;display:inline;overflow:visible;visibility:visible;opacity:1;isolation:auto;mix-blend-mode:normal;color-interpolation:sRGB;color-interpolation-filters:linearRGB;solid-color:#000000;solid-opacity:1;fill:#ffffff;fill-opacity:1;fill-rule:nonzero;stroke:none;stroke-width:5.85718822;stroke-linecap:butt;stroke-linejoin:round;stroke-miterlimit:4;stroke-dasharray:none;stroke-dashoffset:0;stroke-opacity:1;color-rendering:auto;image-rendering:auto;shape-rendering:auto;text-rendering:auto;enable-background:accumulate" />
          <path
             id="path28126"
             d="m 50.339916,89.792611 a 1.3295085,1.3295085 0 0 1 -1.329507,1.329507 1.3295085,1.3295085 0 0 1 -1.329511,-1.329507 1.3295085,1.3295085 0 0 1 1.329511,-1.329507 1.3295085,1.3295085 0 0 1 1.329507,1.329507 z"
             style="color:#000000;clip-rule:nonzero;display:inline;overflow:visible;visibility:visible;opacity:1;isolation:auto;mix-blend-mode:normal;color-interpolation:sRGB;color-interpolation-filters:linearRGB;solid-color:#000000;solid-opacity:1;fill:#ffffff;fill-opacity:1;fill-rule:nonzero;stroke:none;stroke-width:5.85718822;stroke-linecap:butt;stroke-linejoin:round;stroke-miterlimit:4;stroke-dasharray:none;stroke-dashoffset:0;stroke-opacity:1;color-rendering:auto;image-rendering:auto;shape-rendering:auto;text-rendering:auto;enable-background:accumulate" />
          <path
             id="path28128"
             d="m 50.005654,82.772943 a 1.3295085,1.3295085 0 0 1 -1.329507,1.329507 1.3295085,1.3295085 0 0 1 -1.329511,-1.329507 1.3295085,1.3295085 0 0 1 1.329511,-1.329507 1.3295085,1.3295085 0 0 1 1.329507,1.329507 z"
             style="color:#000000;clip-rule:nonzero;display:inline;overflow:visible;visibility:visible;opacity:1;isolation:auto;mix-blend-mode:normal;color-interpolation:sRGB;color-interpolation-filters:linearRGB;solid-color:#000000;solid-opacity:1;fill:#ffffff;fill-opacity:1;fill-rule:nonzero;stroke:none;stroke-width:5.85718822;stroke-linecap:butt;stroke-linejoin:round;stroke-miterlimit:4;stroke-dasharray:none;stroke-dashoffset:0;stroke-opacity:1;color-rendering:auto;image-rendering:auto;shape-rendering:auto;text-rendering:auto;enable-background:accumulate" />
          <path
             style="color:#000000;font-style:normal;font-variant:normal;font-weight:normal;font-stretch:normal;font-size:medium;line-height:normal;font-family:sans-serif;font-variant-ligatures:normal;font-variant-position:normal;font-variant-caps:normal;font-variant-numeric:normal;font-variant-alternates:normal;font-feature-settings:normal;text-indent:0;text-align:start;text-decoration:none;text-decoration-line:none;text-decoration-style:solid;text-decoration-color:#000000;letter-spacing:normal;word-spacing:normal;text-transform:none;writing-mode:lr-tb;direction:ltr;text-orientation:mixed;dominant-baseline:auto;baseline-shift:baseline;text-anchor:start;white-space:normal;shape-padding:0;clip-rule:nonzero;display:inline;overflow:visible;visibility:visible;opacity:1;isolation:auto;mix-blend-mode:normal;color-interpolation:sRGB;color-interpolation-filters:linearRGB;solid-color:#000000;solid-opacity:1;vector-effect:none;fill:#ffffff;fill-opacity:1;fill-rule:evenodd;stroke:none;stroke-width:1.30344915;stroke-linecap:butt;stroke-linejoin:miter;stroke-miterlimit:4;stroke-dasharray:none;stroke-dashoffset:0;stroke-opacity:1;color-rendering:auto;image-rendering:auto;shape-rendering:auto;text-rendering:auto;enable-background:accumulate"
             d="m 50.091797,83.205078 -0.890625,0.953125 1.638672,1.533203 0.890625,-0.951172 z"
             id="path28130" />
          <path
             style="color:#000000;font-style:normal;font-variant:normal;font-weight:normal;font-stretch:normal;font-size:medium;line-height:normal;font-family:sans-serif;font-variant-ligatures:normal;font-variant-position:normal;font-variant-caps:normal;font-variant-numeric:normal;font-variant-alternates:normal;font-feature-settings:normal;text-indent:0;text-align:start;text-decoration:none;text-decoration-line:none;text-decoration-style:solid;text-decoration-color:#000000;letter-spacing:normal;word-spacing:normal;text-transform:none;writing-mode:lr-tb;direction:ltr;text-orientation:mixed;dominant-baseline:auto;baseline-shift:baseline;text-anchor:start;white-space:normal;shape-padding:0;clip-rule:nonzero;display:inline;overflow:visible;visibility:visible;opacity:1;isolation:auto;mix-blend-mode:normal;color-interpolation:sRGB;color-interpolation-filters:linearRGB;solid-color:#000000;solid-opacity:1;vector-effect:none;fill:#ffffff;fill-opacity:1;fill-rule:evenodd;stroke:none;stroke-width:1.30344915;stroke-linecap:butt;stroke-linejoin:miter;stroke-miterlimit:4;stroke-dasharray:none;stroke-dashoffset:0;stroke-opacity:1;color-rendering:auto;image-rendering:auto;shape-rendering:auto;text-rendering:auto;enable-background:accumulate"
             d="m 57.269531,85.144531 -2.363281,0.490235 0.263672,1.27539 2.365234,-0.488281 z"
             id="path28132" />
          <path
             style="color:#000000;font-style:normal;font-variant:normal;font-weight:normal;font-stretch:normal;font-size:medium;line-height:normal;font-family:sans-serif;font-variant-ligatures:normal;font-variant-position:normal;font-variant-caps:normal;font-variant-numeric:normal;font-variant-alternates:normal;font-feature-settings:normal;text-indent:0;text-align:start;text-decoration:none;text-decoration-line:none;text-decoration-style:solid;text-decoration-color:#000000;letter-spacing:normal;word-spacing:normal;text-transform:none;writing-mode:lr-tb;direction:ltr;text-orientation:mixed;dominant-baseline:auto;baseline-shift:baseline;text-anchor:start;white-space:normal;shape-padding:0;clip-rule:nonzero;display:inline;overflow:visible;visibility:visible;opacity:1;isolation:auto;mix-blend-mode:normal;color-interpolation:sRGB;color-interpolation-filters:linearRGB;solid-color:#000000;solid-opacity:1;vector-effect:none;fill:#ffffff;fill-opacity:1;fill-rule:evenodd;stroke:none;stroke-width:1.30344915;stroke-linecap:butt;stroke-linejoin:miter;stroke-miterlimit:4;stroke-dasharray:none;stroke-dashoffset:0;stroke-opacity:1;color-rendering:auto;image-rendering:auto;shape-rendering:auto;text-rendering:auto;enable-background:accumulate"
             d="m 54.892578,87.828125 -0.93164,0.912109 1.140624,1.16211 0.929688,-0.914063 z"
             id="path28134" />
          <path
             style="color:#000000;font-style:normal;font-variant:normal;font-weight:normal;font-stretch:normal;font-size:medium;line-height:normal;font-family:sans-serif;font-variant-ligatures:normal;font-variant-position:normal;font-variant-caps:normal;font-variant-numeric:normal;font-variant-alternates:normal;font-feature-settings:normal;text-indent:0;text-align:start;text-decoration:none;text-decoration-line:none;text-decoration-style:solid;text-decoration-color:#000000;letter-spacing:normal;word-spacing:normal;text-transform:none;writing-mode:lr-tb;direction:ltr;text-orientation:mixed;dominant-baseline:auto;baseline-shift:baseline;text-anchor:start;white-space:normal;shape-padding:0;clip-rule:nonzero;display:inline;overflow:visible;visibility:visible;opacity:1;isolation:auto;mix-blend-mode:normal;color-interpolation:sRGB;color-interpolation-filters:linearRGB;solid-color:#000000;solid-opacity:1;vector-effect:none;fill:#ffffff;fill-opacity:1;fill-rule:evenodd;stroke:none;stroke-width:1.30344915;stroke-linecap:butt;stroke-linejoin:miter;stroke-miterlimit:4;stroke-dasharray:none;stroke-dashoffset:0;stroke-opacity:1;color-rendering:auto;image-rendering:auto;shape-rendering:auto;text-rendering:auto;enable-background:accumulate"
             d="m 50.761719,87.572266 -1.115235,0.882812 0.810547,1.021484 1.115235,-0.884765 z"
             id="path28136" />
          <path
             style="color:#000000;font-style:normal;font-variant:normal;font-weight:normal;font-stretch:normal;font-size:medium;line-height:normal;font-family:sans-serif;font-variant-ligatures:normal;font-variant-position:normal;font-variant-caps:normal;font-variant-numeric:normal;font-variant-alternates:normal;font-feature-settings:normal;text-indent:0;text-align:start;text-decoration:none;text-decoration-line:none;text-decoration-style:solid;text-decoration-color:#000000;letter-spacing:normal;word-spacing:normal;text-transform:none;writing-mode:lr-tb;direction:ltr;text-orientation:mixed;dominant-baseline:auto;baseline-shift:baseline;text-anchor:start;white-space:normal;shape-padding:0;clip-rule:nonzero;display:inline;overflow:visible;visibility:visible;opacity:1;isolation:auto;mix-blend-mode:normal;color-interpolation:sRGB;color-interpolation-filters:linearRGB;solid-color:#000000;solid-opacity:1;vector-effect:none;fill:#ffffff;fill-opacity:1;fill-rule:evenodd;stroke:none;stroke-width:1.30344915;stroke-linecap:butt;stroke-linejoin:miter;stroke-miterlimit:4;stroke-dasharray:none;stroke-dashoffset:0;stroke-opacity:1;color-rendering:auto;image-rendering:auto;shape-rendering:auto;text-rendering:auto;enable-background:accumulate"
             d="m 53.302734,82.871094 -0.441406,1.554687 1.253906,0.357422 0.441407,-1.556641 z"
             id="path28138" />
        </g>
      </g>
      <g
         aria-label="Gateway"
         style="font-style:normal;font-weight:normal;font-size:2.34948921px;line-height:0%;font-family:sans-serif;letter-spacing:0px;word-spacing:0px;fill:#000000;fill-opacity:1;stroke:none;stroke-width:0.19579102px;stroke-linecap:butt;stroke-linejoin:miter;stroke-opacity:1"
         id="text28114">
        <path
           d="m 70.256006,91.009639 h -0.374451 v 1.982388 h -0.411162 l -0.06608,-0.660796 q -0.212923,0.315714 -0.609401,0.528637 -0.389135,0.205581 -0.917772,0.205581 -0.983853,0 -1.593253,-0.704849 -0.609401,-0.70485 -0.609401,-1.732755 0,-0.690165 0.293687,-1.24817 0.301029,-0.565348 0.822324,-0.895746 0.528637,-0.337741 1.21146,-0.337741 0.57269,0 0.998536,0.161528 0.433189,0.154186 0.70485,0.396478 l 0.132159,0.895746 -0.455215,0.05139 -0.146844,-0.67548 q -0.198239,-0.13216 -0.484584,-0.23495 -0.279003,-0.110133 -0.719534,-0.110133 -0.800297,0 -1.292223,0.550664 -0.491926,0.550663 -0.491926,1.424383 0,0.888404 0.469899,1.431725 0.4699,0.543321 1.255513,0.543321 0.653454,0 1.013221,-0.352424 0.359767,-0.359767 0.359767,-0.792956 v -0.425846 h -1.138038 v -0.477242 h 2.048468 z"
           style="font-weight:normal;font-size:7.34218025px;fill:#000000;stroke-width:0.19579102px"
           id="path9292" />
        <path
           d="m 71.051944,89.974391 q 0.256977,-0.16887 0.543322,-0.242292 0.286345,-0.07342 0.609401,-0.07342 1.167406,0 1.167406,1.093985 v 1.556543 q 0,0.352424 0.279003,0.352424 0.124817,0 0.220266,-0.04405 l 0.0073,0.33774 q -0.198239,0.110133 -0.425847,0.110133 -0.580032,0 -0.594716,-0.660796 v -0.01468 q -0.154186,0.264318 -0.440531,0.469899 -0.279003,0.205581 -0.675481,0.205581 -0.323056,0 -0.660796,-0.198239 -0.330398,-0.198239 -0.330398,-0.719533 0,-0.616744 0.484584,-0.80764 0.491926,-0.198239 1.042589,-0.198239 0.146844,0 0.293688,0.0073 0.154185,0.0073 0.286345,0.02203 v -0.293688 q 0,-0.352424 -0.154186,-0.57269 -0.146844,-0.220265 -0.587375,-0.220265 -0.359766,0 -0.631427,0.132159 l -0.124817,0.565348 -0.425847,-0.05139 z m 1.806177,1.791492 v -0.249634 q -0.139502,-0.0073 -0.293688,-0.02203 -0.154185,-0.01469 -0.315713,-0.01469 -0.367109,0 -0.668139,0.117475 -0.293687,0.110133 -0.293687,0.491926 0,0.315714 0.198239,0.433189 0.198239,0.117475 0.411162,0.117475 0.33774,0 0.631428,-0.23495 0.301029,-0.23495 0.330398,-0.63877 z"
           style="font-weight:normal;font-size:7.34218025px;fill:#000000;stroke-width:0.19579102px"
           id="path9294" />
        <path
           d="m 76.686494,92.110966 q -0.132159,0.954483 -1.035247,0.954483 -0.491926,0 -0.756245,-0.279003 -0.256976,-0.279003 -0.256976,-0.756244 v -1.894283 h -0.528637 v -0.411162 h 0.528637 v -1.049932 h 0.513952 v 1.049932 h 1.27754 v 0.411162 h -1.27754 v 1.828203 q 0,0.293687 0.124817,0.477242 0.13216,0.176212 0.425847,0.176212 0.190897,0 0.352425,-0.117475 0.16887,-0.117475 0.242292,-0.513952 z"
           style="font-weight:normal;font-size:7.34218025px;fill:#000000;stroke-width:0.19579102px"
           id="path9296" />
        <path
           d="m 79.917742,92.052228 q -0.06608,0.418504 -0.418505,0.719534 -0.352424,0.293687 -0.954483,0.293687 -0.690165,0 -1.116012,-0.433189 -0.425846,-0.433188 -0.425846,-1.226144 0,-0.763586 0.40382,-1.255512 0.40382,-0.491927 1.093985,-0.491927 0.67548,0 1.027905,0.425847 0.352425,0.425846 0.359767,1.005879 0,0.190896 -0.04405,0.389135 h -2.298103 q 0.04405,1.14538 1.035248,1.14538 0.389135,0 0.609401,-0.183554 0.220265,-0.183555 0.293687,-0.484584 z m -0.57269,-0.954483 q 0.03671,-0.367109 -0.176213,-0.690165 -0.205581,-0.323056 -0.682823,-0.323056 -0.455215,0 -0.668138,0.301029 -0.212923,0.30103 -0.264318,0.712192 z"
           style="font-weight:normal;font-size:7.34218025px;fill:#000000;stroke-width:0.19579102px"
           id="path9298" />
        <path
           d="m 85.658867,90.143261 h -0.374451 l -0.961825,2.848766 h -0.396478 l -0.998537,-2.496341 h -0.03671 l -0.97651,2.496341 h -0.381793 l -0.998536,-2.848766 h -0.359767 v -0.418504 h 1.541858 v 0.418504 h -0.624086 l 0.682823,2.063153 h 0.03671 l 0.969168,-2.481657 h 0.345082 l 1.020563,2.481657 h 0.03671 l 0.602059,-2.063153 h -0.594717 v -0.418504 h 1.468436 z"
           style="font-weight:normal;font-size:7.34218025px;fill:#000000;stroke-width:0.19579102px"
           id="path9300" />
        <path
           d="m 86.324253,89.974391 q 0.256976,-0.16887 0.543321,-0.242292 0.286345,-0.07342 0.609401,-0.07342 1.167407,0 1.167407,1.093985 v 1.556543 q 0,0.352424 0.279002,0.352424 0.124818,0 0.220266,-0.04405 l 0.0073,0.33774 q -0.198239,0.110133 -0.425846,0.110133 -0.580033,0 -0.594717,-0.660796 v -0.01468 q -0.154186,0.264318 -0.440531,0.469899 -0.279003,0.205581 -0.67548,0.205581 -0.323056,0 -0.660797,-0.198239 -0.330398,-0.198239 -0.330398,-0.719533 0,-0.616744 0.484584,-0.80764 0.491926,-0.198239 1.04259,-0.198239 0.146843,0 0.293687,0.0073 0.154186,0.0073 0.286345,0.02203 v -0.293688 q 0,-0.352424 -0.154186,-0.57269 -0.146843,-0.220265 -0.587374,-0.220265 -0.359767,0 -0.631428,0.132159 l -0.124817,0.565348 -0.425846,-0.05139 z m 1.806176,1.791492 v -0.249634 q -0.139501,-0.0073 -0.293687,-0.02203 -0.154186,-0.01469 -0.315714,-0.01469 -0.367109,0 -0.668138,0.117475 -0.293688,0.110133 -0.293688,0.491926 0,0.315714 0.198239,0.433189 0.198239,0.117475 0.411162,0.117475 0.337741,0 0.631428,-0.23495 0.301029,-0.23495 0.330398,-0.63877 z"
           style="font-weight:normal;font-size:7.34218025px;fill:#000000;stroke-width:0.19579102px"
           id="path9302" />
        <path
           d="m 92.799597,90.143261 h -0.389135 l -1.152722,2.848766 -0.440531,1.14538 h 0.558005 v 0.418505 h -1.659332 v -0.418505 h 0.609401 l 0.425846,-1.152722 -1.189433,-2.841424 H 89.17256 v -0.418504 h 1.51249 v 0.418504 h -0.572691 l 0.917773,2.195312 h 0.04405 l 0.814982,-2.195312 H 91.36053 v -0.418504 h 1.439067 z"
           style="font-weight:normal;font-size:7.34218025px;fill:#000000;stroke-width:0.19579102px"
           id="path9304" />
      </g>
      <g
         aria-label="WebThings"
         style="font-style:normal;font-weight:normal;font-size:2.10528517px;line-height:0%;font-family:sans-serif;letter-spacing:0px;word-spacing:0px;fill:#000000;fill-opacity:1;stroke:none;stroke-width:0.28838658px;stroke-linecap:butt;stroke-linejoin:miter;stroke-opacity:1"
         id="text28146">
        <path
           d="m 74.284055,80.39938 h -0.519451 l -1.73477,5.439533 h -0.803679 l -1.558353,-4.48884 h -0.049 l -1.509348,4.48884 H 67.29597 L 65.453389,80.39938 h -0.548854 v -0.931091 h 2.420838 v 0.931091 h -0.70567 l 1.097708,3.645957 h 0.04901 L 69.03074,80.39938 h -0.558655 v -0.931091 h 2.411036 V 80.39938 H 70.36367 l 1.264324,3.694962 h 0.049 L 72.676697,80.39938 H 71.89262 v -0.931091 h 2.391435 z"
           style="font-style:normal;font-variant:normal;font-weight:600;font-stretch:normal;font-size:9.80096054px;line-height:1.25;font-family:'Zilla Slab';-inkscape-font-specification:'Zilla Slab Semi-Bold';text-align:start;text-anchor:start;fill:#000000;fill-opacity:1;stroke-width:0.28838658px"
           id="path9273" />
        <path
           d="m 78.254515,84.496181 q -0.05881,0.578257 -0.568456,1.009499 -0.509649,0.431243 -1.401537,0.431243 -0.960494,0 -1.577955,-0.558655 -0.61746,-0.568456 -0.61746,-1.666163 0,-1.009499 0.558655,-1.685766 0.568455,-0.676266 1.577954,-0.676266 0.91149,0 1.440742,0.548854 0.539052,0.539053 0.548853,1.372134 0,0.274427 -0.05881,0.588058 h -2.969691 q 0.08821,1.234921 1.176115,1.234921 0.50965,0 0.725271,-0.245024 0.225422,-0.245024 0.294029,-0.519451 z m -1.117309,-1.283925 q 0.0392,-0.392039 -0.186219,-0.735073 -0.215621,-0.352834 -0.735072,-0.352834 -0.470446,0 -0.71547,0.313631 -0.245024,0.31363 -0.30383,0.774276 z"
           style="font-style:normal;font-variant:normal;font-weight:600;font-stretch:normal;font-size:9.80096054px;line-height:1.25;font-family:'Zilla Slab';-inkscape-font-specification:'Zilla Slab Semi-Bold';text-align:start;text-anchor:start;fill:#000000;fill-opacity:1;stroke-width:0.28838658px"
           id="path9275" />
        <path
           d="m 83.58149,83.535687 q 0,0.931091 -0.490048,1.666164 -0.490048,0.735072 -1.509348,0.735072 -1.038901,0 -1.460343,-0.784077 -0.0196,0.117611 -0.049,0.343033 -0.0294,0.225422 -0.04901,0.343034 H 78.98484 q 0.05881,-0.323432 0.10781,-0.656664 0.049,-0.343034 0.049,-0.666466 v -4.616252 h -0.656664 v -0.803679 h 1.695566 v 3.214715 q 0.196019,-0.392038 0.548854,-0.676266 0.362635,-0.284228 0.970295,-0.284228 0.833082,0 1.352533,0.578257 0.529251,0.568455 0.529251,1.607357 z m -1.087906,0.08821 q 0,-0.695868 -0.313631,-1.058504 -0.313631,-0.372436 -0.803679,-0.372436 -0.558654,0 -0.872285,0.41164 -0.313631,0.41164 -0.323432,0.891887 v 0.313631 q 0,0.539053 0.313631,0.92129 0.323432,0.372437 0.842882,0.372437 0.548854,0 0.852684,-0.401839 0.30383,-0.40184 0.30383,-1.078106 z"
           style="font-style:normal;font-variant:normal;font-weight:600;font-stretch:normal;font-size:9.80096054px;line-height:1.25;font-family:'Zilla Slab';-inkscape-font-specification:'Zilla Slab Semi-Bold';text-align:start;text-anchor:start;fill:#000000;fill-opacity:1;stroke-width:0.28838658px"
           id="path9277" />
        <path
           d="m 89.471869,81.546092 -0.940893,0.07841 -0.196019,-1.22512 h -1.244722 v 4.508442 h 1.068305 v 0.931091 h -3.185312 v -0.931091 h 1.029101 V 80.39938 h -1.254523 l -0.19602,1.22512 -0.931091,-0.07841 0.196019,-2.077803 h 5.459135 z"
           style="font-style:normal;font-variant:normal;font-weight:600;font-stretch:normal;font-size:9.80096054px;line-height:1.25;font-family:'Zilla Slab';-inkscape-font-specification:'Zilla Slab Semi-Bold';text-align:start;text-anchor:start;fill:#000000;fill-opacity:1;stroke-width:0.28838658px"
           id="path9279" />
        <path
           d="m 95.182613,85.838913 h -2.362032 v -0.803679 h 0.656664 v -1.724969 q 0,-0.627261 -0.235223,-0.882086 -0.235223,-0.264626 -0.637062,-0.264626 -0.480247,0 -0.764475,0.31363 -0.284228,0.313631 -0.30383,0.764475 v 1.793576 h 0.646864 v 0.803679 h -2.352231 v -0.803679 h 0.656665 v -5.135703 h -0.656665 v -0.803679 h 1.705367 v 3.067701 q 0.450844,-0.81348 1.460343,-0.81348 0.637063,0 1.078106,0.382237 0.450844,0.382238 0.450844,1.195718 v 2.107206 h 0.656665 z"
           style="font-style:normal;font-variant:normal;font-weight:600;font-stretch:normal;font-size:9.80096054px;line-height:1.25;font-family:'Zilla Slab';-inkscape-font-specification:'Zilla Slab Semi-Bold';text-align:start;text-anchor:start;fill:#000000;fill-opacity:1;stroke-width:0.28838658px"
           id="path9281" />
        <path
           d="m 96.204514,80.526792 v -1.156513 h 1.068305 v 1.156513 z m 1.754372,5.312121 h -2.35223 v -0.803679 h 0.656664 v -2.783473 h -0.695868 v -0.813479 h 1.73477 v 3.596952 h 0.656664 z"
           style="font-style:normal;font-variant:normal;font-weight:600;font-stretch:normal;font-size:9.80096054px;line-height:1.25;font-family:'Zilla Slab';-inkscape-font-specification:'Zilla Slab Semi-Bold';text-align:start;text-anchor:start;fill:#000000;fill-opacity:1;stroke-width:0.28838658px"
           id="path9283" />
        <path
           d="m 103.79015,85.838913 h -2.35223 v -0.803679 h 0.64686 v -1.724969 q 0,-0.627261 -0.22542,-0.882086 -0.22542,-0.264626 -0.62726,-0.264626 -0.49985,0 -0.79388,0.323431 -0.28423,0.323432 -0.29403,0.793878 v 1.754372 h 0.65667 v 0.803679 h -2.362034 v -0.803679 h 0.656664 v -2.783473 h -0.686067 v -0.813479 h 1.734767 v 0.71547 q 0.46065,-0.803679 1.46035,-0.803679 0.62726,0 1.0781,0.382237 0.45085,0.382238 0.45085,1.195718 v 2.107206 h 0.65666 z"
           style="font-style:normal;font-variant:normal;font-weight:600;font-stretch:normal;font-size:9.80096054px;line-height:1.25;font-family:'Zilla Slab';-inkscape-font-specification:'Zilla Slab Semi-Bold';text-align:start;text-anchor:start;fill:#000000;fill-opacity:1;stroke-width:0.28838658px"
           id="path9285" />
        <path
           d="m 109.24867,82.251761 h -0.63706 v 3.420536 q 0,1.048702 -0.58806,1.695566 -0.57825,0.646863 -1.73477,0.646863 -0.68606,0 -1.28392,-0.294029 -0.59786,-0.294028 -0.84288,-1.009499 l 0.81348,-0.441043 q 0.41164,0.901689 1.33293,0.901689 0.54885,0 0.90168,-0.392039 0.35284,-0.392038 0.35284,-1.117309 v -0.656665 q -0.18622,0.352835 -0.53905,0.60766 -0.34304,0.245024 -0.9507,0.245024 -0.77427,0 -1.34273,-0.539053 -0.55865,-0.548854 -0.55865,-1.587756 0,-0.940892 0.49985,-1.656362 0.50965,-0.725271 1.47014,-0.725271 0.9997,0 1.42114,0.774276 v -0.686067 h 1.68576 z m -1.68576,1.489746 v -0.352834 q 0,-0.548854 -0.31363,-0.872286 -0.31363,-0.323431 -0.78408,-0.323431 -0.54885,0 -0.84288,0.401839 -0.29403,0.392038 -0.29403,1.068305 0,0.695868 0.29403,1.029101 0.29403,0.323431 0.74487,0.323431 0.55866,0 0.87229,-0.392038 0.32343,-0.392039 0.32343,-0.882087 z"
           style="font-style:normal;font-variant:normal;font-weight:600;font-stretch:normal;font-size:9.80096054px;line-height:1.25;font-family:'Zilla Slab';-inkscape-font-specification:'Zilla Slab Semi-Bold';text-align:start;text-anchor:start;fill:#000000;fill-opacity:1;stroke-width:0.28838658px"
           id="path9287" />
        <path
           d="m 113.51745,84.525584 q 0,0.686067 -0.56845,1.048703 -0.55866,0.362636 -1.43094,0.362636 -0.47045,0 -0.9507,-0.107811 -0.47044,-0.107811 -0.85268,-0.323432 l 0.15681,-1.136911 0.82328,0.07841 -0.01,0.568455 q 0.18622,0.07841 0.39204,0.107811 0.21562,0.0294 0.38224,0.0294 0.40184,0 0.69587,-0.137214 0.30383,-0.147014 0.30383,-0.431242 0,-0.274427 -0.27443,-0.392038 -0.26463,-0.117612 -0.66646,-0.176418 -0.40184,-0.06861 -0.80368,-0.176417 -0.40184,-0.117612 -0.67627,-0.372436 -0.26463,-0.264626 -0.26463,-0.784077 0,-0.764475 0.57826,-1.048703 0.58806,-0.284228 1.23492,-0.284228 0.85269,0 1.60736,0.401839 l 0.10781,1.087907 -0.82328,0.09801 -0.0882,-0.656665 q -0.38224,-0.147014 -0.77428,-0.147014 -0.30382,0 -0.51945,0.127412 -0.20582,0.117612 -0.20582,0.382238 0,0.274427 0.26463,0.382237 0.26463,0.107811 0.65666,0.176418 0.39204,0.0588 0.78408,0.176417 0.39204,0.10781 0.65667,0.372436 0.26462,0.254825 0.26462,0.774276 z"
           style="font-style:normal;font-variant:normal;font-weight:600;font-stretch:normal;font-size:9.80096054px;line-height:1.25;font-family:'Zilla Slab';-inkscape-font-specification:'Zilla Slab Semi-Bold';text-align:start;text-anchor:start;fill:#000000;fill-opacity:1;stroke-width:0.28838658px"
           id="path9289" />
      </g>
    </g>
  </g>
</svg>
