<?xml version="1.0" encoding="UTF-8" standalone="no"?>
<!-- Created with Inkscape (http://www.inkscape.org/) -->

<svg
   width="300"
   height="100"
   viewBox="0 0 79.375 26.458333"
   version="1.1"
   id="svg1"
   xmlns="http://www.w3.org/2000/svg"
   xmlns:svg="http://www.w3.org/2000/svg">
  <defs
     id="defs1">
    <linearGradient
       id="linearGradient5539-6">
      <stop
         id="stop5547"
         offset="0"
         style="stop-color:black;stop-opacity:1;" />
      <stop
         style="stop-color:white;stop-opacity:1;"
         offset="1"
         id="stop5543" />
    </linearGradient>
  </defs>
  <g
     id="layer1"
     transform="translate(-25.929174,-92.868716)">
    <rect
       style="fill:none;stroke-width:0.459444"
       id="rect8"
       width="79.375"
       height="26.458334"
       x="25.929174"
       y="92.868713" />
    <g
       id="g1133"
       transform="translate(-116.36181,-1961.0228)">
      <g
         id="g1141"
         transform="matrix(0.02244294,0,0,0.02244294,155.78789,2061.1644)"
         style="stroke-width:8.8465">
        <path
           class="cls-1"
           d="m 661.56,218.08 c -16.49,-11.1 -59.81,-15.84 -91.3,-7.35 -1.69,-31.37 -17.88,-57.81 -47.47,-80.88 l -10.95,-7.35 -7.3,11.03 c -14.35,21.78 -20.4,50.81 -18.26,77.2 1.69,16.26 7.34,34.53 18.26,47.79 -40.99,23.78 -78.78,18.38 -246.12,18.38 H 0.06 c -0.75,37.79 5.32,110.47 51.54,169.64 5.11,6.54 10.7,12.86 16.78,18.95 37.58,37.63 94.36,65.23 179.26,65.3 129.53,0.12 240.5,-69.9 308.01,-239.18 22.21,0.36 80.85,3.98 109.55,-51.47 0.7,-0.93 7.3,-14.7 7.3,-14.7 l -10.94,-7.35 z M 168.67,183.53 H 96.02 v 72.65 h 72.65 z m 93.85,0 h -72.65 v 72.65 h 72.65 z m 93.86,0 h -72.65 v 72.65 h 72.65 z m 93.86,0 h -72.65 v 72.65 h 72.65 z m -375.43,0 H 2.16 v 72.65 H 74.81 Z M 168.67,91.77 H 96.02 v 72.65 h 72.65 z m 93.85,0 h -72.65 v 72.65 h 72.65 z m 93.86,0 h -72.65 v 72.65 h 72.65 z m 0,-91.77 h -72.65 v 72.65 h 72.65 z"
           id="path1133"
           style="fill:#1d63ed;stroke-width:0px" />
        <g
           id="g1140"
           style="stroke-width:8.8465">
          <path
             class="cls-1"
             d="m 2329.44,419.3 c 0,18.94 -14.87,33.81 -34.21,33.81 -19.34,0 -34.42,-14.87 -34.42,-33.81 0,-18.94 15.27,-33.4 34.42,-33.4 19.15,0 34.21,14.87 34.21,33.4 z m -60.07,0 c 0,14.87 11,26.68 26.07,26.68 15.07,0 25.46,-11.81 25.46,-26.47 0,-14.66 -10.8,-26.89 -25.65,-26.89 -14.85,0 -25.87,12.02 -25.87,26.68 z m 20.58,17.52 h -7.74 v -33.4 c 3.04,-0.61 7.33,-1.02 12.82,-1.02 6.32,0 9.16,1.02 11.61,2.45 1.84,1.42 3.26,4.07 3.26,7.33 0,3.67 -2.85,6.52 -6.91,7.74 v 0.41 c 3.24,1.21 5.08,3.66 6.1,8.14 1.01,5.09 1.62,7.13 2.45,8.35 h -8.35 c -1.02,-1.22 -1.64,-4.27 -2.65,-8.15 -0.61,-3.66 -2.65,-5.29 -6.93,-5.29 h -3.66 v 13.45 z m 0.19,-18.94 h 3.66 c 4.28,0 7.74,-1.42 7.74,-4.88 0,-3.06 -2.23,-5.11 -7.13,-5.11 -2.03,0 -3.46,0.21 -4.27,0.43 z"
             id="path1134"
             style="fill:#1d63ed;stroke-width:0px" />
          <path
             class="cls-1"
             d="m 1017.16,81.28 c -4.79,-4.68 -10.54,-7.06 -17.43,-7.06 -6.89,0 -12.81,2.38 -17.42,7.06 -4.62,4.68 -6.88,10.68 -6.88,17.83 v 119.4 c -23.7,-19.59 -51.05,-29.47 -82.16,-29.47 -36.16,0 -67.08,13.06 -92.7,39.27 -25.62,26.12 -38.34,57.72 -38.34,94.78 0,37.06 12.81,68.57 38.34,94.78 25.62,26.12 56.46,39.27 92.7,39.27 36.24,0 66.74,-13.06 92.7,-39.27 25.62,-25.86 38.34,-57.45 38.34,-94.78 V 99.11 c 0,-7.15 -2.35,-13.15 -7.15,-17.83 z m -48.18,274.11 v 0.18 c -4.27,10.15 -10.11,19.06 -17.51,26.65 -7.4,7.68 -16.12,13.68 -26.05,18.18 -10.02,4.5 -20.65,6.71 -32.06,6.71 -11.41,0 -22.3,-2.21 -32.32,-6.71 -10.02,-4.5 -18.65,-10.5 -25.96,-18.09 -7.32,-7.59 -13.15,-16.5 -17.42,-26.65 -4.27,-10.24 -6.45,-21.09 -6.45,-32.57 0,-11.48 2.18,-22.33 6.45,-32.57 4.27,-10.24 10.11,-19.06 17.42,-26.65 7.32,-7.59 16.03,-13.59 25.96,-18.09 10.02,-4.5 20.74,-6.71 32.32,-6.71 11.58,0 22.04,2.21 32.06,6.71 10.02,4.5 18.65,10.5 26.05,18.18 7.4,7.68 13.24,16.59 17.51,26.65 4.27,10.15 6.45,20.92 6.45,32.39 0,11.47 -2.18,22.33 -6.45,32.39 z"
             id="path1135"
             style="fill:#1d63ed;stroke-width:0px" />
          <path
             class="cls-1"
             d="m 2099.77,271.64 c -6.36,-15.89 -16.05,-30.27 -28.76,-43.16 l -0.17,-0.09 c -25.88,-26.12 -56.82,-39.27 -92.7,-39.27 -35.88,0 -67.09,13.06 -92.71,39.27 -25.62,26.12 -38.33,57.72 -38.33,94.78 0,37.06 12.81,68.57 38.33,94.78 25.62,26.12 56.47,39.27 92.71,39.27 32.92,0 61.41,-10.85 85.64,-32.56 4.69,-4.94 7.06,-10.94 7.06,-17.92 0,-6.98 -2.26,-13.15 -6.89,-17.83 -4.61,-4.68 -10.45,-7.06 -17.42,-7.06 -6.09,0.18 -11.5,2.21 -16.11,6.27 -7.32,6.35 -15.25,11.21 -23.87,14.39 -8.63,3.18 -18.04,4.77 -28.31,4.77 -9.07,0 -17.78,-1.41 -26.05,-4.32 -8.29,-2.91 -16.03,-6.89 -22.92,-12.09 -6.98,-5.21 -12.98,-11.38 -18.12,-18.71 -5.14,-7.24 -9.06,-15.27 -11.67,-24.09 h 185.32 c 6.87,0 12.62,-2.38 17.42,-7.06 4.8,-4.68 7.15,-10.68 7.15,-17.83 0,-18.53 -3.24,-35.74 -9.58,-51.54 z m -200.48,26.65 c 2.53,-8.74 6.36,-16.77 11.5,-24.09 5.15,-7.24 11.24,-13.5 18.21,-18.71 7.06,-5.21 14.72,-9.18 23.17,-12.09 8.44,-2.91 17.06,-4.32 25.97,-4.32 8.91,0 17.51,1.41 25.86,4.32 8.37,2.91 16.05,6.88 22.92,12.09 6.98,5.21 13.07,11.38 18.21,18.71 5.22,7.24 9.16,15.27 11.86,24.09 h -157.71 z"
             id="path1136"
             style="fill:#1d63ed;stroke-width:0px" />
          <path
             class="cls-1"
             d="m 2327.51,205.89 c -4.36,-4.32 -9.85,-7.68 -16.47,-10.15 -6.62,-2.47 -13.85,-4.15 -21.78,-5.12 -7.84,-0.97 -15.25,-1.41 -22.12,-1.41 -15.61,0 -30.24,2.56 -44,7.68 -13.77,5.12 -26.49,12.44 -38.17,21.97 v -4.76 c 0,-6.88 -2.35,-12.71 -7.15,-17.56 -4.78,-4.85 -10.45,-7.32 -17.15,-7.32 -6.7,0 -12.64,2.47 -17.42,7.32 -4.8,4.85 -7.15,10.77 -7.15,17.56 v 218.25 c 0,6.88 2.35,12.71 7.15,17.56 4.78,4.85 10.53,7.32 17.42,7.32 6.89,0 12.45,-2.47 17.15,-7.32 4.8,-4.85 7.15,-10.77 7.15,-17.56 V 323.18 c 0,-11.65 2.18,-22.59 6.45,-32.83 4.27,-10.24 10.11,-19.06 17.51,-26.65 7.42,-7.59 16.13,-13.59 26.05,-17.92 10.02,-4.41 20.66,-6.62 32.08,-6.62 11.42,0 22.2,2.03 32.06,6 3.91,1.77 7.32,2.65 10.28,2.65 3.4,0 6.62,-0.62 9.58,-1.94 2.96,-1.32 5.58,-3.09 7.76,-5.38 2.18,-2.29 3.91,-4.94 5.22,-8.03 1.31,-3 2.01,-6.27 2.01,-9.8 0,-6.88 -2.18,-12.44 -6.53,-16.77 h 0.08 z"
             id="path1137"
             style="fill:#1d63ed;stroke-width:0px" />
          <path
             class="cls-1"
             d="m 1304.49,271.73 c -6.36,-15.8 -15.86,-30.27 -28.66,-43.33 -25.87,-26.12 -56.8,-39.27 -92.7,-39.27 -35.9,0 -67.08,13.06 -92.7,39.27 -25.62,26.12 -38.33,57.72 -38.33,94.78 0,37.06 12.81,68.57 38.33,94.78 25.62,26.12 56.46,39.27 92.7,39.27 36.24,0 66.74,-13.06 92.7,-39.27 25.62,-25.86 38.34,-57.45 38.34,-94.78 -0.18,-18.53 -3.4,-35.65 -9.67,-51.45 z m -45.65,83.66 v 0.18 c -4.27,10.15 -10.11,19.06 -17.51,26.65 -7.4,7.68 -16.12,13.68 -26.05,18.18 -9.93,4.5 -20.65,6.71 -32.06,6.71 -11.41,0 -22.3,-2.21 -32.32,-6.71 -10.02,-4.5 -18.65,-10.5 -25.96,-18.09 -7.32,-7.59 -13.15,-16.5 -17.42,-26.65 -4.27,-10.24 -6.45,-21.09 -6.45,-32.57 0,-11.48 2.18,-22.33 6.45,-32.57 4.27,-10.24 10.11,-19.06 17.42,-26.65 7.32,-7.59 16.03,-13.59 25.96,-18.09 10.02,-4.5 20.74,-6.71 32.32,-6.71 11.58,0 22.04,2.21 32.06,6.71 10.02,4.5 18.65,10.5 26.05,18.18 7.4,7.68 13.24,16.59 17.51,26.65 4.27,10.15 6.45,20.92 6.45,32.39 0,11.47 -2.18,22.33 -6.45,32.39 z"
             id="path1138"
             style="fill:#1d63ed;stroke-width:0px" />
          <path
             class="cls-1"
             d="m 1828.62,214.01 c 0,-3.35 -0.7,-6.53 -2,-9.53 -1.31,-3 -3.05,-5.73 -5.23,-8.03 -2.18,-2.29 -4.79,-4.15 -7.75,-5.38 -2.96,-1.23 -6.18,-1.94 -9.58,-1.94 -4.88,0 -9.24,1.24 -13.07,3.8 l -139.92,93.11 V 99.29 c 0,-7.06 -2.35,-12.97 -7.14,-17.83 -4.79,-4.85 -10.45,-7.32 -17.16,-7.32 -6.71,0 -12.63,2.47 -17.43,7.32 -4.79,4.85 -7.14,10.77 -7.14,17.83 V 432 c 0,6.88 2.35,12.8 7.14,17.74 4.79,4.94 10.54,7.41 17.43,7.41 6.89,0 12.46,-2.47 17.16,-7.41 4.79,-4.94 7.14,-10.86 7.14,-17.74 v -86.4 l 28.58,-19.15 108.12,124.17 c 4.36,4.32 9.85,6.44 16.38,6.44 3.4,0 6.62,-0.62 9.58,-1.94 2.96,-1.24 5.58,-3.09 7.75,-5.38 2.18,-2.29 3.92,-4.94 5.23,-8.03 1.31,-3 2,-6.27 2,-9.53 0,-6.53 -2.26,-12.36 -6.8,-17.47 l -100.63,-115.87 98.01,-65.13 c 6.27,-4.32 9.32,-10.94 9.32,-19.86 v 0.18 z"
             id="path1139"
             style="fill:#1d63ed;stroke-width:0px" />
          <path
             class="cls-1"
             d="m 1414.36,263.7 c 7.49,-7.59 16.21,-13.59 26.23,-17.92 10.02,-4.41 20.65,-6.62 32.06,-6.62 10.28,0 19.78,1.77 28.58,5.29 8.71,3.53 17.08,8.74 25,15.53 4.7,3.79 10.02,5.73 15.94,5.73 7.06,0 12.81,-2.38 17.43,-7.15 4.62,-4.77 6.88,-10.77 6.88,-17.92 0,-7.15 -2.79,-13.77 -8.45,-18.88 -24.05,-21.71 -52.53,-32.57 -85.38,-32.57 -36.16,0 -67.08,13.06 -92.7,39.27 -25.62,26.12 -38.33,57.72 -38.33,94.78 0,37.06 12.81,68.57 38.33,94.78 25.62,26.12 56.46,39.27 92.7,39.27 32.76,0 61.25,-10.85 85.38,-32.57 5.14,-5.29 7.76,-11.38 7.76,-18.44 0,-7.06 -2.27,-13.15 -6.88,-17.83 -4.62,-4.68 -10.45,-7.06 -17.42,-7.06 -5.92,0.18 -11.07,1.94 -15.42,5.29 -7.84,6.88 -16.03,12 -24.83,15.44 -8.71,3.44 -18.21,5.12 -28.58,5.12 -11.41,0 -22.04,-2.21 -32.06,-6.62 -10.02,-4.41 -18.73,-10.41 -26.23,-17.91 -7.49,-7.5 -13.42,-16.5 -17.69,-26.65 -4.27,-10.24 -6.45,-21.18 -6.45,-32.83 0,-11.65 2.18,-22.59 6.45,-32.83 4.27,-10.24 10.19,-19.06 17.69,-26.65 v -0.09 z"
             id="path1140"
             style="fill:#1d63ed;stroke-width:0px" />
        </g>
      </g>
    </g>
  </g>
</svg>
