<?xml version="1.0" encoding="UTF-8" standalone="no"?>
<svg
   xmlns:dc="http://purl.org/dc/elements/1.1/"
   xmlns:cc="http://creativecommons.org/ns#"
   xmlns:rdf="http://www.w3.org/1999/02/22-rdf-syntax-ns#"
   xmlns:svg="http://www.w3.org/2000/svg"
   xmlns="http://www.w3.org/2000/svg"
   id="svg8508"
   version="1.1"
   viewBox="0 0 8.4666665 8.4666663"
   height="32"
   width="32">
  <defs
     id="defs8502" />
  <metadata
     id="metadata8505">
    <rdf:RDF>
      <cc:Work
         rdf:about="">
        <dc:format>image/svg+xml</dc:format>
        <dc:type
           rdf:resource="http://purl.org/dc/dcmitype/StillImage" />
        <dc:title></dc:title>
      </cc:Work>
    </rdf:RDF>
  </metadata>
  <g
     transform="translate(157.69163,73.11427)"
     id="layer1">
    <path
       d="m -153.42731,-73.009235 c -2.33708,0 -4.23249,1.894921 -4.23249,4.232976 0,1.86976 1.21276,3.456419 2.8948,4.016382 0.21172,0.03901 0.28895,-0.09167 0.28895,-0.204111 0,-0.100641 0,-0.366676 -0.01,-0.719896 -1.17747,0.255699 -1.42585,-0.567472 -1.42585,-0.567472 -0.1926,-0.48887 -0.47005,-0.619255 -0.47005,-0.619255 -0.38432,-0.26233 0.0292,-0.257162 0.0292,-0.257162 0.4248,0.03023 0.64831,0.436307 0.64831,0.436307 0.37761,0.646659 0.99081,0.45981 1.23198,0.351464 0.038,-0.273252 0.14784,-0.459906 0.26868,-0.565619 -0.93991,-0.107077 -1.92809,-0.470146 -1.92809,-2.092108 0,-0.462344 0.16501,-0.839748 0.43572,-1.135821 -0.0439,-0.107077 -0.1889,-0.537533 0.0419,-1.120121 0,0 0.35528,-0.114 1.16391,0.43348 0.33753,-0.09362 0.69981,-0.140625 1.05967,-0.14238 0.35965,0 0.72165,0.04876 1.05965,0.14238 0.80816,-0.54748 1.16284,-0.43348 1.16284,-0.43348 0.23102,0.582588 0.0858,1.013044 0.0419,1.120121 0.2713,0.296073 0.43504,0.673477 0.43504,1.135821 0,1.626058 -0.98983,1.984056 -1.93256,2.088695 0.15174,0.130873 0.28719,0.388815 0.28719,0.783967 0,0.565814 0,1.022307 0,1.161079 0,0.113319 0.0761,0.244777 0.291,0.203624 1.68068,-0.560939 2.89247,-2.146232 2.89247,-4.015895 0,-2.338055 -1.89541,-4.232976 -4.23327,-4.232976"
       style="fill:#ffffff;fill-opacity:1;fill-rule:evenodd;stroke:none;stroke-width:0.03440307"
       id="path14360-0" />
  </g>
</svg>
