<?xml version="1.0" encoding="UTF-8" standalone="no"?>
<!-- Created with Inkscape (http://www.inkscape.org/) -->

<svg
   width="300"
   height="100"
   viewBox="0 0 79.375 26.458333"
   version="1.1"
   id="svg1"
   xmlns:xlink="http://www.w3.org/1999/xlink"
   xmlns="http://www.w3.org/2000/svg"
   xmlns:svg="http://www.w3.org/2000/svg">
  <defs
     id="defs1">
    <linearGradient
       xlink:href="#linearGradient5539-6"
       id="linearGradient322770"
       gradientUnits="userSpaceOnUse"
       gradientTransform="matrix(0.08316037,0,0,0.07077514,-549.52747,-2977.0946)"
       x1="8878.2764"
       y1="71158.859"
       x2="8879.6631"
       y2="71211.859" />
    <linearGradient
       id="linearGradient5539-6">
      <stop
         id="stop5547"
         offset="0"
         style="stop-color:black;stop-opacity:1;" />
      <stop
         style="stop-color:white;stop-opacity:1;"
         offset="1"
         id="stop5543" />
    </linearGradient>
  </defs>
  <g
     id="g1133"
     transform="translate(-142.29098,-2053.8915)">
    <g
       id="g322120"
       style="fill:#000000;stroke-width:0.947496"
       transform="matrix(1.0554131,0,0,1.0554131,1904.5215,3574.0953)">
      <path
         d="m -1627.3918,-1427.1278 c 0,0 1.7546,-2.4747 3.5628,-0.038 -0.5292,-0.8168 -0.5351,-1.7201 -0.1247,-2.8274 1.3433,-3.6258 8.6571,-1.8695 8.6433,-1.8711 -0.014,0 -8.0701,-5.6467 -10.3211,0 -2.2511,-5.6478 -10.3071,0 -10.2933,0 0.014,0 7.3282,-1.7563 8.6716,1.8696 0.4101,1.1072 0.3818,2.0886 -0.1386,2.8739 z"
         style="fill:#000000;fill-opacity:1;fill-rule:evenodd;stroke:none;stroke-width:0.0563076"
         id="path322118" />
      <g
         id="text322116"
         style="font-size:3.38667px;line-height:0%;font-family:'Bitstream Vera Sans';stroke-width:0.144492"
         transform="scale(1.0647712,0.9391689)"
         aria-label="krellian">
        <path
           style="font-weight:bold;font-size:14.3216px;line-height:1.25;font-family:'Arial Rounded MT Bold';-inkscape-font-specification:'Arial Rounded MT Bold, Bold'"
           d="m -1553.3717,-1513.2028 -1.6853,-2.7693 -1.035,0.9791 v 1.5174 q 0,0.5525 -0.2937,0.8532 -0.2867,0.2937 -0.6643,0.2937 -0.4405,0 -0.6923,-0.2937 -0.2517,-0.2937 -0.2517,-0.8671 v -8.1399 q 0,-0.6363 0.2447,-0.965 0.2448,-0.3357 0.6993,-0.3357 0.4406,0 0.6993,0.3007 0.2587,0.3007 0.2587,0.8881 v 4.6294 l 2.1469,-2.2517 q 0.3986,-0.4196 0.6084,-0.5735 0.2098,-0.1538 0.5105,-0.1538 0.3566,0 0.5944,0.2308 0.2377,0.2237 0.2377,0.5664 0,0.4196 -0.7762,1.1189 l -1.014,0.93 1.9581,3.0769 q 0.2167,0.3427 0.3076,0.5245 0.098,0.1748 0.098,0.3357 0,0.4545 -0.2518,0.7202 -0.2448,0.2588 -0.6503,0.2588 -0.3497,0 -0.5385,-0.1888 -0.1888,-0.1888 -0.5105,-0.6853 z m 5.3496,-1.8811 v 1.5944 q 0,0.5804 -0.2727,0.8741 -0.2727,0.2867 -0.6923,0.2867 -0.4126,0 -0.6783,-0.2937 -0.2657,-0.2937 -0.2657,-0.8671 v -5.3147 q 0,-1.2867 0.93,-1.2867 0.4755,0 0.6853,0.3007 0.2098,0.3007 0.2308,0.8881 0.3427,-0.5874 0.6993,-0.8881 0.3636,-0.3007 0.965,-0.3007 0.6014,0 1.1678,0.3007 0.5665,0.3007 0.5665,0.7972 0,0.3496 -0.2448,0.5804 -0.2377,0.2238 -0.5175,0.2238 -0.1048,0 -0.5104,-0.1259 -0.3986,-0.1329 -0.7063,-0.1329 -0.4196,0 -0.6853,0.2238 -0.2658,0.2168 -0.4126,0.6504 -0.1469,0.4335 -0.2028,1.0349 -0.056,0.5944 -0.056,1.4546 z m 9.3496,-0.6574 h -3.7342 q 0.01,0.6504 0.2587,1.1469 0.2588,0.4965 0.6783,0.7482 0.4266,0.2518 0.9371,0.2518 0.3427,0 0.6224,-0.077 0.2867,-0.084 0.5524,-0.2517 0.2658,-0.1748 0.4895,-0.3706 0.2238,-0.1958 0.5804,-0.5315 0.1469,-0.1259 0.4196,-0.1259 0.2937,0 0.4755,0.1609 0.1819,0.1608 0.1819,0.4545 0,0.2587 -0.2028,0.6084 -0.2028,0.3426 -0.6154,0.6643 -0.4056,0.3147 -1.028,0.5245 -0.6154,0.2098 -1.4196,0.2098 -1.8391,0 -2.8601,-1.049 -1.021,-1.0489 -1.021,-2.8461 0,-0.8461 0.2518,-1.5664 0.2517,-0.7273 0.7343,-1.2448 0.4825,-0.5175 1.1888,-0.7902 0.7063,-0.2797 1.5664,-0.2797 1.1189,0 1.9161,0.4755 0.8042,0.4686 1.2028,1.2168 0.3986,0.7482 0.3986,1.5245 0,0.7202 -0.4126,0.937 -0.4126,0.2098 -1.1609,0.2098 z m -3.7342,-1.0839 h 3.4615 q -0.07,-0.979 -0.5315,-1.4615 -0.4545,-0.4895 -1.2027,-0.4895 -0.7133,0 -1.1749,0.4965 -0.4545,0.4895 -0.5524,1.4545 z"
           id="path1" />
        <path
           style="font-weight:bold;font-size:14.3216px;line-height:1.25;font-family:'Arial Rounded MT Bold';-inkscape-font-specification:'Arial Rounded MT Bold, Bold'"
           d="m -1535.4907,-1513.4895 v -8.2797 q 0,-0.5734 0.2518,-0.8672 0.2587,-0.2937 0.6923,-0.2937 0.4335,0 0.6993,0.2937 0.2657,0.2868 0.2657,0.8672 v 8.2797 q 0,0.5804 -0.2727,0.8741 -0.2657,0.2867 -0.6923,0.2867 -0.4196,0 -0.6853,-0.3007 -0.2588,-0.3007 -0.2588,-0.8601 z m 3.8811,0 v -8.2797 q 0,-0.5734 0.2518,-0.8672 0.2587,-0.2937 0.6923,-0.2937 0.4335,0 0.6993,0.2937 0.2657,0.2868 0.2657,0.8672 v 8.2797 q 0,0.5804 -0.2727,0.8741 -0.2657,0.2867 -0.6923,0.2867 -0.4196,0 -0.6853,-0.3007 -0.2588,-0.3007 -0.2588,-0.8601 z"
           id="path2" />
        <path
           style="font-weight:bold;font-size:14.3216px;line-height:1.25;font-family:'Arial Rounded MT Bold';-inkscape-font-specification:'Arial Rounded MT Bold, Bold'"
           d="m -1525.8194,-1519.007 v 5.5175 q 0,0.5734 -0.2727,0.8671 -0.2727,0.2937 -0.6923,0.2937 -0.4196,0 -0.6853,-0.3007 -0.2588,-0.3007 -0.2588,-0.8601 v -5.4616 q 0,-0.5664 0.2588,-0.8531 0.2657,-0.2867 0.6853,-0.2867 0.4196,0 0.6923,0.2867 0.2727,0.2867 0.2727,0.7972 z m -0.944,-1.972 q -0.3986,0 -0.6854,-0.2448 -0.2797,-0.2447 -0.2797,-0.6923 0,-0.4056 0.2867,-0.6643 0.2937,-0.2657 0.6784,-0.2657 0.3706,0 0.6573,0.2377 0.2867,0.2378 0.2867,0.6923 0,0.4406 -0.2797,0.6923 -0.2797,0.2448 -0.6643,0.2448 z m 7.7412,7.5734 q -0.6923,0.5384 -1.3427,0.8112 -0.6433,0.2657 -1.4475,0.2657 -0.7343,0 -1.2937,-0.2867 -0.5525,-0.2937 -0.8532,-0.7902 -0.3007,-0.4965 -0.3007,-1.077 0,-0.7832 0.4965,-1.3356 0.4965,-0.5525 1.3637,-0.7413 0.1818,-0.042 0.9021,-0.1888 0.7202,-0.1468 1.2307,-0.2657 0.5175,-0.1259 1.1189,-0.3007 -0.035,-0.7552 -0.3077,-1.1049 -0.2657,-0.3566 -1.1119,-0.3566 -0.7272,0 -1.0979,0.2028 -0.3636,0.2028 -0.6293,0.6084 -0.2588,0.4055 -0.3707,0.5384 -0.1049,0.1259 -0.4615,0.1259 -0.3217,0 -0.5594,-0.2028 -0.2308,-0.2098 -0.2308,-0.5315 0,-0.5035 0.3566,-0.979 0.3567,-0.4755 1.1119,-0.7832 0.7553,-0.3077 1.8811,-0.3077 1.2588,0 1.979,0.3007 0.7203,0.2937 1.014,0.9371 0.3007,0.6433 0.3007,1.7062 0,0.6714 -0.01,1.1399 0,0.4685 -0.01,1.0419 0,0.5385 0.1749,1.1259 0.1818,0.5804 0.1818,0.7483 0,0.2937 -0.2797,0.5384 -0.2728,0.2378 -0.6224,0.2378 -0.2937,0 -0.5804,-0.2727 -0.2867,-0.2798 -0.6084,-0.8042 z m -0.1259,-2.7623 q -0.4196,0.1539 -1.2238,0.3287 -0.7972,0.1678 -1.1049,0.2518 -0.3076,0.077 -0.5874,0.3146 -0.2797,0.2308 -0.2797,0.6504 0,0.4336 0.3287,0.7412 0.3287,0.3007 0.8601,0.3007 0.5665,0 1.042,-0.2447 0.4825,-0.2518 0.7063,-0.6434 0.2587,-0.4335 0.2587,-1.4265 z m 5.5454,-2.8671 v 0.2308 q 0.5035,-0.6643 1.0979,-0.972 0.6014,-0.3147 1.3776,-0.3147 0.7553,0 1.3497,0.3287 0.5944,0.3286 0.8881,0.93 0.1888,0.3497 0.2447,0.7553 0.056,0.4056 0.056,1.0349 v 3.5525 q 0,0.5734 -0.2658,0.8671 -0.2587,0.2937 -0.6783,0.2937 -0.4265,0 -0.6923,-0.3007 -0.2657,-0.3007 -0.2657,-0.8601 v -3.1818 q 0,-0.9441 -0.2657,-1.4406 -0.2588,-0.5035 -1.042,-0.5035 -0.5105,0 -0.9301,0.3077 -0.4195,0.3007 -0.6153,0.8322 -0.1399,0.4265 -0.1399,1.5944 v 2.3916 q 0,0.5804 -0.2727,0.8741 -0.2658,0.2867 -0.6923,0.2867 -0.4126,0 -0.6783,-0.3007 -0.2658,-0.3007 -0.2658,-0.8601 v -5.5175 q 0,-0.5455 0.2378,-0.8112 0.2377,-0.2727 0.6503,-0.2727 0.2518,0 0.4546,0.1189 0.2028,0.1188 0.3217,0.3566 0.1258,0.2378 0.1258,0.5804 z"
           id="path3" />
      </g>
    </g>
    <path
       id="path322122"
       d="m 188.82212,2059.1832 c -0.50702,0 -1.05773,0.1232 -1.66037,0.5083 -0.52475,0.3351 -1.69004,0.5799 -1.69004,0.5799 0,0 2.37521,0.124 3.33015,2.6199 0.9486,-2.4802 3.31305,-2.6229 3.31305,-2.6229 0,0 -1.05742,-0.3173 -1.63822,-0.6353 -0.52126,-0.2854 -1.15842,-0.4496 -1.65457,-0.4499 z"
       style="fill:url(#linearGradient322770);fill-opacity:1;fill-rule:evenodd;stroke:none;stroke-width:0.0594278" />
  </g>
</svg>
