<?xml version="1.0" encoding="UTF-8" standalone="no"?>
<svg
   xmlns:dc="http://purl.org/dc/elements/1.1/"
   xmlns:cc="http://creativecommons.org/ns#"
   xmlns:rdf="http://www.w3.org/1999/02/22-rdf-syntax-ns#"
   xmlns:svg="http://www.w3.org/2000/svg"
   xmlns="http://www.w3.org/2000/svg"
   id="svg4234"
   version="1.1"
   viewBox="0 0 138.64166 14.816667"
   height="56"
   width="524">
  <defs
     id="defs4228" />
  <metadata
     id="metadata4231">
    <rdf:RDF>
      <cc:Work
         rdf:about="">
        <dc:format>image/svg+xml</dc:format>
        <dc:type
           rdf:resource="http://purl.org/dc/dcmitype/StillImage" />
        <dc:title></dc:title>
      </cc:Work>
    </rdf:RDF>
  </metadata>
  <g
     transform="translate(0,-282.18331)"
     id="layer1">
    <g
       transform="matrix(0.97524802,0,0,0.97524802,-1469.3844,-2019.5096)"
       id="g3774">
      <g
         style="stroke-width:2.30130386"
         id="g3768"
         transform="matrix(0.12263581,0,0,0.12263581,1809.7185,1778.2078)">
        <rect
           rx="10.78736"
           ry="10.78736"
           id="rect3742"
           height="84"
           width="84"
           y="4748.7896"
           x="-1801.4189"
           style="stroke-width:0.7118724" />
        <g
           id="g3766"
           transform="matrix(1.9687493,0,0,1.9687493,-3432.4293,-12127.626)"
           style="stroke-width:2.30130386">
          <path
             id="path3744"
             d="m 853.29942,8595.0859 a 5.5395312,5.5395312 0 0 1 -5.53953,5.5396 5.5395312,5.5395312 0 0 1 -5.53953,-5.5396 5.5395312,5.5395312 0 0 1 5.53953,-5.5395 5.5395312,5.5395312 0 0 1 5.53953,5.5395 z"
             style="color:#000000;clip-rule:nonzero;display:inline;overflow:visible;visibility:visible;opacity:1;isolation:auto;mix-blend-mode:normal;color-interpolation:sRGB;color-interpolation-filters:linearRGB;solid-color:#000000;solid-opacity:1;fill:#ffffff;fill-opacity:1;fill-rule:nonzero;stroke:none;stroke-width:14.77307701;stroke-linecap:butt;stroke-linejoin:round;stroke-miterlimit:4;stroke-dasharray:none;stroke-dashoffset:0;stroke-opacity:1;color-rendering:auto;image-rendering:auto;shape-rendering:auto;text-rendering:auto;enable-background:accumulate" />
          <path
             id="path3746"
             d="m 854.65427,8582.6074 a 3.3533037,3.3533037 0 0 1 -3.35331,3.3533 3.3533037,3.3533037 0 0 1 -3.3533,-3.3533 3.3533037,3.3533037 0 0 1 3.3533,-3.3533 3.3533037,3.3533037 0 0 1 3.35331,3.3533 z"
             style="color:#000000;clip-rule:nonzero;display:inline;overflow:visible;visibility:visible;opacity:1;isolation:auto;mix-blend-mode:normal;color-interpolation:sRGB;color-interpolation-filters:linearRGB;solid-color:#000000;solid-opacity:1;fill:#ffffff;fill-opacity:1;fill-rule:nonzero;stroke:none;stroke-width:14.77307701;stroke-linecap:butt;stroke-linejoin:round;stroke-miterlimit:4;stroke-dasharray:none;stroke-dashoffset:0;stroke-opacity:1;color-rendering:auto;image-rendering:auto;shape-rendering:auto;text-rendering:auto;enable-background:accumulate" />
          <path
             id="path3748"
             d="m 865.78336,8592.0508 a 3.3533037,3.3533037 0 0 1 -3.35331,3.3533 3.3533037,3.3533037 0 0 1 -3.3533,-3.3533 3.3533037,3.3533037 0 0 1 3.3533,-3.3533 3.3533037,3.3533037 0 0 1 3.35331,3.3533 z"
             style="color:#000000;clip-rule:nonzero;display:inline;overflow:visible;visibility:visible;opacity:1;isolation:auto;mix-blend-mode:normal;color-interpolation:sRGB;color-interpolation-filters:linearRGB;solid-color:#000000;solid-opacity:1;fill:#ffffff;fill-opacity:1;fill-rule:nonzero;stroke:none;stroke-width:14.77307701;stroke-linecap:butt;stroke-linejoin:round;stroke-miterlimit:4;stroke-dasharray:none;stroke-dashoffset:0;stroke-opacity:1;color-rendering:auto;image-rendering:auto;shape-rendering:auto;text-rendering:auto;enable-background:accumulate" />
          <path
             id="path3750"
             d="m 860.21884,8604.3604 a 3.3533037,3.3533037 0 0 1 -3.3533,3.3533 3.3533037,3.3533037 0 0 1 -3.3533,-3.3533 3.3533037,3.3533037 0 0 1 3.3533,-3.3534 3.3533037,3.3533037 0 0 1 3.3533,3.3534 z"
             style="color:#000000;clip-rule:nonzero;display:inline;overflow:visible;visibility:visible;opacity:1;isolation:auto;mix-blend-mode:normal;color-interpolation:sRGB;color-interpolation-filters:linearRGB;solid-color:#000000;solid-opacity:1;fill:#ffffff;fill-opacity:1;fill-rule:nonzero;stroke:none;stroke-width:14.77307701;stroke-linecap:butt;stroke-linejoin:round;stroke-miterlimit:4;stroke-dasharray:none;stroke-dashoffset:0;stroke-opacity:1;color-rendering:auto;image-rendering:auto;shape-rendering:auto;text-rendering:auto;enable-background:accumulate" />
          <path
             id="path3752"
             d="m 841.33304,8602.8428 a 3.3533037,3.3533037 0 0 1 -3.3533,3.3533 3.3533037,3.3533037 0 0 1 -3.35331,-3.3533 3.3533037,3.3533037 0 0 1 3.35331,-3.3533 3.3533037,3.3533037 0 0 1 3.3533,3.3533 z"
             style="color:#000000;clip-rule:nonzero;display:inline;overflow:visible;visibility:visible;opacity:1;isolation:auto;mix-blend-mode:normal;color-interpolation:sRGB;color-interpolation-filters:linearRGB;solid-color:#000000;solid-opacity:1;fill:#ffffff;fill-opacity:1;fill-rule:nonzero;stroke:none;stroke-width:14.77307701;stroke-linecap:butt;stroke-linejoin:round;stroke-miterlimit:4;stroke-dasharray:none;stroke-dashoffset:0;stroke-opacity:1;color-rendering:auto;image-rendering:auto;shape-rendering:auto;text-rendering:auto;enable-background:accumulate" />
          <path
             id="path3754"
             d="m 840.48996,8585.1377 a 3.3533037,3.3533037 0 0 1 -3.3533,3.3533 3.3533037,3.3533037 0 0 1 -3.35331,-3.3533 3.3533037,3.3533037 0 0 1 3.35331,-3.3533 3.3533037,3.3533037 0 0 1 3.3533,3.3533 z"
             style="color:#000000;clip-rule:nonzero;display:inline;overflow:visible;visibility:visible;opacity:1;isolation:auto;mix-blend-mode:normal;color-interpolation:sRGB;color-interpolation-filters:linearRGB;solid-color:#000000;solid-opacity:1;fill:#ffffff;fill-opacity:1;fill-rule:nonzero;stroke:none;stroke-width:14.77307701;stroke-linecap:butt;stroke-linejoin:round;stroke-miterlimit:4;stroke-dasharray:none;stroke-dashoffset:0;stroke-opacity:1;color-rendering:auto;image-rendering:auto;shape-rendering:auto;text-rendering:auto;enable-background:accumulate" />
          <path
             id="path3756"
             d="m 839.58425,8587.4298 4.13232,3.8697"
             style="fill:none;fill-rule:evenodd;stroke:#ffffff;stroke-width:3.28757644;stroke-linecap:butt;stroke-linejoin:miter;stroke-miterlimit:4;stroke-dasharray:none;stroke-opacity:1" />
          <path
             id="path3758"
             d="m 859.14635,8592.7302 -5.96191,1.2334"
             style="fill:none;fill-rule:evenodd;stroke:#ffffff;stroke-width:3.28757644;stroke-linecap:butt;stroke-linejoin:miter;stroke-miterlimit:4;stroke-dasharray:none;stroke-opacity:1" />
          <path
             id="path3760"
             d="m 854.5163,8601.9676 -2.87556,-2.9289"
             style="fill:none;fill-rule:evenodd;stroke:#ffffff;stroke-width:3.28757644;stroke-linecap:butt;stroke-linejoin:miter;stroke-miterlimit:4;stroke-dasharray:none;stroke-opacity:1" />
          <path
             id="path3762"
             d="m 840.60697,8600.7591 2.81282,-2.2309"
             style="fill:none;fill-rule:evenodd;stroke:#ffffff;stroke-width:3.28757644;stroke-linecap:butt;stroke-linejoin:miter;stroke-miterlimit:4;stroke-dasharray:none;stroke-opacity:1" />
          <path
             id="path3764"
             d="m 850.38555,8585.8333 -1.11343,3.9236"
             style="fill:none;fill-rule:evenodd;stroke:#ffffff;stroke-width:3.28757644;stroke-linecap:butt;stroke-linejoin:miter;stroke-miterlimit:4;stroke-dasharray:none;stroke-opacity:1" />
        </g>
      </g>
      <g
         id="text3772"
         style="font-style:normal;font-weight:normal;font-size:2.08010507px;line-height:0%;font-family:sans-serif;letter-spacing:0px;word-spacing:0px;fill:#ffffff;fill-opacity:1;stroke:none;stroke-width:0.28493768px;stroke-linecap:butt;stroke-linejoin:miter;stroke-opacity:1"
         aria-label="WebThings">
        <path
           id="path4883"
           style="font-style:normal;font-variant:normal;font-weight:600;font-stretch:normal;font-size:9.6837635px;line-height:1.25;font-family:'Zilla Slab';-inkscape-font-specification:'Zilla Slab Semi-Bold';text-align:start;text-anchor:start;fill:#ffffff;fill-opacity:1;stroke-width:0.28493768px"
           d="m 1610.0467,2363.6385 h -0.5132 l -1.714,5.3744 h -0.7941 l -1.5397,-4.4351 h -0.048 l -1.4913,4.4351 h -0.8038 l -1.8205,-5.3744 h -0.5423 v -0.92 h 2.3919 v 0.92 h -0.6973 l 1.0846,3.6023 h 0.048 l 1.2492,-3.6023 h -0.5519 v -0.92 h 2.3822 v 0.92 h -0.5133 l 1.2492,3.6507 h 0.049 l 0.9877,-3.6507 h -0.7747 v -0.92 h 2.3628 z" />
        <path
           id="path4885"
           style="font-style:normal;font-variant:normal;font-weight:600;font-stretch:normal;font-size:9.6837635px;line-height:1.25;font-family:'Zilla Slab';-inkscape-font-specification:'Zilla Slab Semi-Bold';text-align:start;text-anchor:start;fill:#ffffff;fill-opacity:1;stroke-width:0.28493768px"
           d="m 1613.9697,2367.6863 q -0.058,0.5713 -0.5616,0.9974 -0.5036,0.4261 -1.3848,0.4261 -0.949,0 -1.5591,-0.552 -0.6101,-0.5617 -0.6101,-1.6462 0,-0.9975 0.552,-1.6656 0.5617,-0.6682 1.5591,-0.6682 0.9006,0 1.4235,0.5423 0.5326,0.5326 0.5423,1.3557 0,0.2711 -0.058,0.581 h -2.9342 q 0.087,1.2202 1.1621,1.2202 0.5035,0 0.7166,-0.2421 0.2227,-0.2421 0.2905,-0.5133 z m -1.1039,-1.2686 q 0.039,-0.3874 -0.184,-0.7263 -0.2131,-0.3486 -0.7263,-0.3486 -0.4648,0 -0.7069,0.3099 -0.2421,0.3099 -0.3002,0.765 z" />
        <path
           id="path4887"
           style="font-style:normal;font-variant:normal;font-weight:600;font-stretch:normal;font-size:9.6837635px;line-height:1.25;font-family:'Zilla Slab';-inkscape-font-specification:'Zilla Slab Semi-Bold';text-align:start;text-anchor:start;fill:#ffffff;fill-opacity:1;stroke-width:0.28493768px"
           d="m 1619.233,2366.7373 q 0,0.9199 -0.4842,1.6462 -0.4842,0.7263 -1.4913,0.7263 -1.0265,0 -1.4429,-0.7747 -0.019,0.1162 -0.048,0.3389 -0.029,0.2227 -0.048,0.3389 h -1.0265 q 0.058,-0.3195 0.1065,-0.6488 0.048,-0.3389 0.048,-0.6585 v -4.561 h -0.6489 v -0.7941 h 1.6753 v 3.1763 q 0.1937,-0.3874 0.5423,-0.6682 0.3583,-0.2808 0.9587,-0.2808 0.8231,0 1.3364,0.5713 0.5229,0.5617 0.5229,1.5882 z m -1.0749,0.087 q 0,-0.6875 -0.3099,-1.0458 -0.3099,-0.368 -0.794,-0.368 -0.552,0 -0.8619,0.4067 -0.3099,0.4067 -0.3196,0.8812 v 0.3099 q 0,0.5326 0.3099,0.9103 0.3196,0.368 0.8328,0.368 0.5423,0 0.8425,-0.3971 0.3002,-0.397 0.3002,-1.0652 z" />
        <path
           id="path4889"
           style="font-style:normal;font-variant:normal;font-weight:600;font-stretch:normal;font-size:9.6837635px;line-height:1.25;font-family:'Zilla Slab';-inkscape-font-specification:'Zilla Slab Semi-Bold';text-align:start;text-anchor:start;fill:#ffffff;fill-opacity:1;stroke-width:0.28493768px"
           d="m 1625.0529,2364.7715 -0.9296,0.077 -0.1937,-1.2104 h -1.2298 v 4.4545 h 1.0555 v 0.9199 h -3.1472 v -0.9199 h 1.0168 v -4.4545 h -1.2395 l -0.1937,1.2104 -0.92,-0.077 0.1937,-2.053 h 5.3939 z" />
        <path
           id="path4891"
           style="font-style:normal;font-variant:normal;font-weight:600;font-stretch:normal;font-size:9.6837635px;line-height:1.25;font-family:'Zilla Slab';-inkscape-font-specification:'Zilla Slab Semi-Bold';text-align:start;text-anchor:start;fill:#ffffff;fill-opacity:1;stroke-width:0.28493768px"
           d="m 1630.6954,2369.0129 h -2.3338 v -0.794 h 0.6488 v -1.7044 q 0,-0.6197 -0.2324,-0.8715 -0.2324,-0.2615 -0.6294,-0.2615 -0.4745,0 -0.7554,0.3099 -0.2808,0.3099 -0.3002,0.7553 v 1.7722 h 0.6392 v 0.794 h -2.3241 v -0.794 h 0.6488 v -5.0743 h -0.6488 v -0.7941 h 1.6849 v 3.031 q 0.4455,-0.8037 1.4429,-0.8037 0.6295,0 1.0652,0.3776 0.4455,0.3777 0.4455,1.1815 v 2.082 h 0.6488 z" />
        <path
           id="path4893"
           style="font-style:normal;font-variant:normal;font-weight:600;font-stretch:normal;font-size:9.6837635px;line-height:1.25;font-family:'Zilla Slab';-inkscape-font-specification:'Zilla Slab Semi-Bold';text-align:start;text-anchor:start;fill:#ffffff;fill-opacity:1;stroke-width:0.28493768px"
           d="m 1631.7051,2363.7643 v -1.1426 h 1.0555 v 1.1426 z m 1.7334,5.2486 h -2.3241 v -0.794 h 0.6488 v -2.7502 h -0.6876 v -0.8038 h 1.7141 v 3.554 h 0.6488 z" />
        <path
           id="path4895"
           style="font-style:normal;font-variant:normal;font-weight:600;font-stretch:normal;font-size:9.6837635px;line-height:1.25;font-family:'Zilla Slab';-inkscape-font-specification:'Zilla Slab Semi-Bold';text-align:start;text-anchor:start;fill:#ffffff;fill-opacity:1;stroke-width:0.28493768px"
           d="m 1639.2,2369.0129 h -2.3241 v -0.794 h 0.6391 v -1.7044 q 0,-0.6197 -0.2227,-0.8715 -0.2227,-0.2615 -0.6198,-0.2615 -0.4938,0 -0.7843,0.3196 -0.2809,0.3196 -0.2905,0.7844 v 1.7334 h 0.6488 v 0.794 h -2.3338 v -0.794 h 0.6488 v -2.7502 h -0.6779 v -0.8038 h 1.7141 v 0.7069 q 0.4551,-0.794 1.4428,-0.794 0.6198,0 1.0652,0.3776 0.4455,0.3777 0.4455,1.1815 v 2.082 h 0.6488 z" />
        <path
           id="path4897"
           style="font-style:normal;font-variant:normal;font-weight:600;font-stretch:normal;font-size:9.6837635px;line-height:1.25;font-family:'Zilla Slab';-inkscape-font-specification:'Zilla Slab Semi-Bold';text-align:start;text-anchor:start;fill:#ffffff;fill-opacity:1;stroke-width:0.28493768px"
           d="m 1644.5933,2365.4687 h -0.6295 v 3.3796 q 0,1.0362 -0.581,1.6753 -0.5714,0.6391 -1.714,0.6391 -0.6779,0 -1.2686,-0.2905 -0.5907,-0.2905 -0.8328,-0.9974 l 0.8037,-0.4358 q 0.4068,0.8909 1.317,0.8909 0.5423,0 0.8909,-0.3873 0.3487,-0.3874 0.3487,-1.104 v -0.6488 q -0.184,0.3486 -0.5327,0.6004 -0.3389,0.2421 -0.9393,0.2421 -0.765,0 -1.3267,-0.5326 -0.5519,-0.5423 -0.5519,-1.5688 0,-0.9296 0.4938,-1.6365 0.5036,-0.7166 1.4526,-0.7166 0.9878,0 1.4042,0.765 v -0.6779 h 1.6656 z m -1.6656,1.4719 v -0.3486 q 0,-0.5423 -0.3099,-0.8619 -0.3099,-0.3195 -0.7747,-0.3195 -0.5423,0 -0.8328,0.397 -0.2905,0.3874 -0.2905,1.0555 0,0.6876 0.2905,1.0168 0.2905,0.3196 0.7359,0.3196 0.552,0 0.8619,-0.3873 0.3196,-0.3874 0.3196,-0.8716 z" />
        <path
           id="path4899"
           style="font-style:normal;font-variant:normal;font-weight:600;font-stretch:normal;font-size:9.6837635px;line-height:1.25;font-family:'Zilla Slab';-inkscape-font-specification:'Zilla Slab Semi-Bold';text-align:start;text-anchor:start;fill:#ffffff;fill-opacity:1;stroke-width:0.28493768px"
           d="m 1648.811,2367.7153 q 0,0.6779 -0.5617,1.0362 -0.5519,0.3583 -1.4138,0.3583 -0.4648,0 -0.9393,-0.1065 -0.4648,-0.1066 -0.8425,-0.3196 l 0.1549,-1.1233 0.8135,0.077 -0.01,0.5617 q 0.184,0.077 0.3873,0.1065 0.2131,0.029 0.3777,0.029 0.397,0 0.6876,-0.1356 0.3001,-0.1453 0.3001,-0.4261 0,-0.2711 -0.2711,-0.3873 -0.2615,-0.1162 -0.6585,-0.1743 -0.397,-0.068 -0.7941,-0.1743 -0.397,-0.1163 -0.6681,-0.368 -0.2615,-0.2615 -0.2615,-0.7747 0,-0.7554 0.5713,-1.0362 0.5811,-0.2808 1.2202,-0.2808 0.8425,0 1.5881,0.397 l 0.1066,1.0749 -0.8135,0.097 -0.087,-0.6488 q -0.3777,-0.1452 -0.7651,-0.1452 -0.3002,0 -0.5132,0.1259 -0.2034,0.1162 -0.2034,0.3776 0,0.2712 0.2615,0.3777 0.2615,0.1065 0.6488,0.1743 0.3874,0.058 0.7747,0.1743 0.3874,0.1065 0.6488,0.368 0.2615,0.2518 0.2615,0.765 z" />
      </g>
    </g>
    <g
       id="text3778"
       style="font-style:normal;font-weight:normal;font-size:1.91478574px;line-height:0%;font-family:sans-serif;letter-spacing:0px;word-spacing:0px;fill:#ffffff;fill-opacity:1;stroke:none;stroke-width:0.15956549px;stroke-linecap:butt;stroke-linejoin:miter;stroke-opacity:1"
       aria-label="WebThings">
      <path
         id="path4864"
         style="font-style:normal;font-variant:normal;font-weight:600;font-stretch:normal;font-size:8.91413212px;line-height:1.25;font-family:'Zilla Slab';-inkscape-font-specification:'Zilla Slab Semi-Bold';text-align:start;text-anchor:start;fill:#ffffff;fill-opacity:1;stroke-width:0.15956549px"
         d="m 8.5308584,283.36888 h -0.472449 l -1.5778013,4.94734 H 5.7496492 l -1.417347,-4.08267 h -0.044571 l -1.3727764,4.08267 H 2.1750822 L 0.49922541,283.36888 H 3.4010932e-5 v -0.84684 H 2.2018246 v 0.84684 H 1.5600071 l 0.9983828,3.31606 h 0.044571 l 1.149923,-3.31606 H 3.2447781 v -0.84684 h 2.1928765 v 0.84684 h -0.472449 l 1.149923,3.36063 h 0.044571 l 0.9092415,-3.36063 H 6.3558102 v -0.84684 h 2.1750482 z" />
      <path
         id="path4866"
         style="font-style:normal;font-variant:normal;font-weight:600;font-stretch:normal;font-size:8.91413212px;line-height:1.25;font-family:'Zilla Slab';-inkscape-font-specification:'Zilla Slab Semi-Bold';text-align:start;text-anchor:start;fill:#ffffff;fill-opacity:1;stroke-width:0.15956549px"
         d="m 12.142057,287.09499 q -0.05348,0.52593 -0.517019,0.91815 -0.463535,0.39222 -1.274721,0.39222 -0.8735852,0 -1.4351755,-0.5081 -0.5615903,-0.51702 -0.5615903,-1.5154 0,-0.91816 0.5081055,-1.53323 0.5170197,-0.61508 1.4351753,-0.61508 0.829014,0 1.310377,0.49919 0.490278,0.49028 0.499192,1.24798 0,0.2496 -0.05349,0.53485 H 9.351934 q 0.080227,1.12318 1.069696,1.12318 0.463535,0 0.659646,-0.22285 0.205025,-0.22286 0.267424,-0.47245 z m -1.016211,-1.16775 q 0.03566,-0.35657 -0.169368,-0.66856 -0.196111,-0.32091 -0.66856,-0.32091 -0.4278785,0 -0.6507318,0.28525 -0.2228533,0.28525 -0.2763381,0.70422 z" />
      <path
         id="path4868"
         style="font-style:normal;font-variant:normal;font-weight:600;font-stretch:normal;font-size:8.91413212px;line-height:1.25;font-family:'Zilla Slab';-inkscape-font-specification:'Zilla Slab Semi-Bold';text-align:start;text-anchor:start;fill:#ffffff;fill-opacity:1;stroke-width:0.15956549px"
         d="m 16.987027,286.2214 q 0,0.84684 -0.445706,1.5154 -0.445707,0.66856 -1.372776,0.66856 -0.944898,0 -1.328206,-0.71313 -0.01783,0.10697 -0.04457,0.312 -0.02674,0.20502 -0.04457,0.31199 H 12.8063 q 0.05348,-0.29416 0.09806,-0.59724 0.04457,-0.312 0.04457,-0.60616 v -4.19856 h -0.597247 v -0.73096 h 1.542145 v 2.92384 q 0.178282,-0.35657 0.499191,-0.61508 0.329823,-0.25851 0.882499,-0.25851 0.757701,0 1.23015,0.52593 0.481363,0.51702 0.481363,1.46192 z m -0.989468,0.0802 q 0,-0.6329 -0.285252,-0.96273 -0.285253,-0.33873 -0.730959,-0.33873 -0.508106,0 -0.793358,0.37439 -0.285252,0.37439 -0.294166,0.81119 v 0.28525 q 0,0.49028 0.285252,0.83793 0.294166,0.33873 0.766615,0.33873 0.499192,0 0.77553,-0.36548 0.276338,-0.36548 0.276338,-0.98055 z" />
      <path
         id="path4870"
         style="font-style:normal;font-variant:normal;font-weight:600;font-stretch:normal;font-size:8.91413212px;line-height:1.25;font-family:'Zilla Slab';-inkscape-font-specification:'Zilla Slab Semi-Bold';text-align:start;text-anchor:start;fill:#ffffff;fill-opacity:1;stroke-width:0.15956549px"
         d="m 22.34442,284.41183 -0.855756,0.0713 -0.178283,-1.11427 h -1.132095 v 4.1005 h 0.971641 v 0.84684 h -2.897093 v -0.84684 h 0.935984 v -4.1005 h -1.141009 l -0.178283,1.11427 -0.846842,-0.0713 0.178282,-1.88979 h 4.965172 z" />
      <path
         id="path4872"
         style="font-style:normal;font-variant:normal;font-weight:600;font-stretch:normal;font-size:8.91413212px;line-height:1.25;font-family:'Zilla Slab';-inkscape-font-specification:'Zilla Slab Semi-Bold';text-align:start;text-anchor:start;fill:#ffffff;fill-opacity:1;stroke-width:0.15956549px"
         d="m 27.538434,288.31622 h -2.148306 v -0.73096 h 0.597247 v -1.56888 q 0,-0.57051 -0.213939,-0.80227 -0.213939,-0.24069 -0.579419,-0.24069 -0.436792,0 -0.695302,0.28526 -0.25851,0.28525 -0.276338,0.6953 v 1.63128 h 0.588332 v 0.73096 h -2.139391 v -0.73096 h 0.597247 v -4.671 h -0.597247 v -0.73096 h 1.551059 v 2.79012 q 0.41005,-0.73987 1.328205,-0.73987 0.579419,0 0.980555,0.34765 0.41005,0.34765 0.41005,1.08753 v 1.91653 h 0.597247 z" />
      <path
         id="path4874"
         style="font-style:normal;font-variant:normal;font-weight:600;font-stretch:normal;font-size:8.91413212px;line-height:1.25;font-family:'Zilla Slab';-inkscape-font-specification:'Zilla Slab Semi-Bold';text-align:start;text-anchor:start;fill:#ffffff;fill-opacity:1;stroke-width:0.15956549px"
         d="m 28.467874,283.48476 v -1.05186 h 0.97164 v 1.05186 z m 1.595629,4.83146 h -2.139391 v -0.73096 h 0.597246 v -2.53161 h -0.632903 v -0.73987 h 1.577801 v 3.27148 h 0.597247 z" />
      <path
         id="path4876"
         style="font-style:normal;font-variant:normal;font-weight:600;font-stretch:normal;font-size:8.91413212px;line-height:1.25;font-family:'Zilla Slab';-inkscape-font-specification:'Zilla Slab Semi-Bold';text-align:start;text-anchor:start;fill:#ffffff;fill-opacity:1;stroke-width:0.15956549px"
         d="M 35.367132,288.31622 H 33.22774 v -0.73096 h 0.588333 v -1.56888 q 0,-0.57051 -0.205025,-0.80227 -0.205025,-0.24069 -0.570505,-0.24069 -0.45462,0 -0.722044,0.29417 -0.25851,0.29417 -0.267424,0.72204 v 1.59563 h 0.597247 v 0.73096 h -2.148306 v -0.73096 h 0.597247 v -2.53161 h -0.62399 v -0.73987 h 1.577802 v 0.65073 q 0.418964,-0.73096 1.328205,-0.73096 0.570505,0 0.980555,0.34765 0.41005,0.34765 0.41005,1.08753 v 1.91653 h 0.597247 z" />
      <path
         id="path4878"
         style="font-style:normal;font-variant:normal;font-weight:600;font-stretch:normal;font-size:8.91413212px;line-height:1.25;font-family:'Zilla Slab';-inkscape-font-specification:'Zilla Slab Semi-Bold';text-align:start;text-anchor:start;fill:#ffffff;fill-opacity:1;stroke-width:0.15956549px"
         d="m 40.331748,285.05365 h -0.579419 v 3.11103 q 0,0.95382 -0.534848,1.54215 -0.525934,0.58833 -1.577801,0.58833 -0.62399,0 -1.167752,-0.26742 -0.543762,-0.26743 -0.766615,-0.91816 l 0.739873,-0.40114 q 0.374394,0.82011 1.212322,0.82011 0.499191,0 0.8201,-0.35657 0.320909,-0.35657 0.320909,-1.01621 v -0.59725 q -0.169369,0.32091 -0.490277,0.55268 -0.311995,0.22285 -0.864671,0.22285 -0.704217,0 -1.221236,-0.49028 -0.508106,-0.49919 -0.508106,-1.44409 0,-0.85575 0.454621,-1.50648 0.463535,-0.65965 1.33712,-0.65965 0.909241,0 1.292549,0.70422 v -0.62399 h 1.533231 z m -1.533231,1.35495 v -0.32091 q 0,-0.49919 -0.285252,-0.79336 -0.285253,-0.29416 -0.713131,-0.29416 -0.499191,0 -0.766615,0.36548 -0.267424,0.35656 -0.267424,0.97164 0,0.6329 0.267424,0.93598 0.267424,0.29417 0.677474,0.29417 0.508105,0 0.793357,-0.35657 0.294167,-0.35656 0.294167,-0.80227 z" />
      <path
         id="path4880"
         style="font-style:normal;font-variant:normal;font-weight:600;font-stretch:normal;font-size:8.91413212px;line-height:1.25;font-family:'Zilla Slab';-inkscape-font-specification:'Zilla Slab Semi-Bold';text-align:start;text-anchor:start;fill:#ffffff;fill-opacity:1;stroke-width:0.15956549px"
         d="m 44.214269,287.12173 q 0,0.62399 -0.51702,0.95381 -0.508105,0.32982 -1.301463,0.32982 -0.427878,0 -0.864671,-0.0981 -0.427878,-0.0981 -0.775529,-0.29417 l 0.142626,-1.03404 0.748787,0.0713 -0.0089,0.51702 q 0.169368,0.0713 0.356565,0.0981 0.196111,0.0267 0.347651,0.0267 0.36548,0 0.632904,-0.12479 0.276338,-0.13372 0.276338,-0.39223 0,-0.24959 -0.249596,-0.35656 -0.240681,-0.10697 -0.606161,-0.16046 -0.365479,-0.0624 -0.730959,-0.16045 -0.365479,-0.10697 -0.615075,-0.33874 -0.240681,-0.24068 -0.240681,-0.71313 0,-0.6953 0.525933,-0.95381 0.534848,-0.25851 1.123181,-0.25851 0.77553,0 1.461918,0.36548 l 0.09806,0.98947 -0.748787,0.0891 -0.08023,-0.59725 q -0.347651,-0.13371 -0.704217,-0.13371 -0.276338,0 -0.472449,0.11588 -0.187196,0.10697 -0.187196,0.34766 0,0.24959 0.240681,0.34765 0.240682,0.0981 0.597247,0.16045 0.356565,0.0535 0.713131,0.16046 0.356565,0.0981 0.597247,0.33873 0.240681,0.23177 0.240681,0.70422 z" />
    </g>
    <rect
       id="rect3780"
       height="5.7941861"
       width="20.271269"
       y="291.20578"
       x="0.017821066"
       style="stroke-width:0.05587451" />
    <path
       style="fill:#ffffff;stroke-width:0.05587451"
       class="st0"
       d="m 19.383942,295.36271 c -0.0392,0.0118 -0.07263,0.0168 -0.10612,0.0168 -0.117377,0 -0.173209,-0.0504 -0.173209,-0.1955 v -1.10068 c 0,-0.58117 -0.463793,-0.8605 -1.005762,-0.8605 -0.413449,0 -0.642546,0.0504 -1.083995,0.22904 l -0.10052,0.58117 0.581057,0.0615 0.08383,-0.28499 c 0.11732,-0.0615 0.23464,-0.0727 0.385505,-0.0727 0.407905,0 0.413505,0.30727 0.413505,0.56997 v 0.0837 c -0.128521,-0.0168 -0.273841,-0.0224 -0.413505,-0.0224 -0.581058,0 -1.178915,0.14526 -1.178915,0.77101 0,0.53093 0.413449,0.72643 0.78221,0.72643 0.407905,0 0.670489,-0.24595 0.81581,-0.50848 0.0336,0.30727 0.217896,0.50848 0.558713,0.50848 0.156464,0 0.318473,-0.0448 0.458193,-0.11743 z m -1.558876,-0.0168 c -0.217896,0 -0.296128,-0.12847 -0.296128,-0.29053 0,-0.27373 0.223496,-0.34642 0.486081,-0.34642 0.117376,0 0.24584,0.0168 0.363217,0.0336 -0.0224,0.41916 -0.296129,0.60346 -0.55317,0.60346 z m -0.972218,-3.40279 -1.095139,3.86652 h -0.715177 l 1.095138,-3.86652 z m -1.4751,0 -1.095138,3.86652 h -0.715178 l 1.095139,-3.86652 z m -3.045175,1.32989 h 0.759922 v 0.91073 h -0.759922 z m 0,1.6259 h 0.759922 v 0.91073 h -0.759922 z m -1.106282,-0.0336 0.575513,0.056 -0.156464,0.88828 H 9.4271183 l -0.072632,-0.37996 1.3968667,-1.60351 H 9.9579435 l -0.1117762,0.39105 -0.5252253,-0.056 0.089432,-0.88844 h 2.229366 l 0.056,0.37996 -1.408068,1.60362 h 0.82141 z m -3.6318331,-1.6427 c -0.9107861,0 -1.3633792,0.61454 -1.3633792,1.35772 0,0.81021 0.5420253,1.28515 1.3242351,1.28515 0.81021,0 1.3968674,-0.51397 1.3968674,-1.32418 -0.0056,-0.70415 -0.4469931,-1.31869 -1.3577233,-1.31869 z m -0.0168,2.08415 c -0.3911049,0 -0.5978574,-0.33527 -0.5978574,-0.77672 0,-0.48048 0.2290965,-0.75421 0.6034574,-0.75421 0.3408168,0 0.6202015,0.22904 0.6202015,0.74301 -0.0056,0.48619 -0.2514406,0.78792 -0.6258015,0.78792 z m -2.0002688,-0.0504 h 0.3352168 v 0.55306 H 4.8510114 v -1.43041 c 0,-0.44128 -0.1452643,-0.609 -0.430249,-0.609 -0.3464168,0 -0.4916812,0.24595 -0.4916812,0.60346 v 0.88289 H 4.264298 v 0.55306 H 3.2027035 v -1.43041 c 0,-0.44128 -0.1452643,-0.609 -0.435849,-0.609 -0.3464169,0 -0.4916812,0.24595 -0.4916812,0.60346 v 0.88289 h 0.4861372 v 0.55306 H 1.2191788 v -0.55306 H 1.5543956 V 293.8203 H 1.2191788 v -0.55306 h 1.0615945 v 0.37985 c 0.1508644,-0.26808 0.413449,-0.43025 0.7710658,-0.43025 0.3631609,0 0.7040337,0.17321 0.826954,0.54768 0.1396643,-0.33527 0.424649,-0.54768 0.826954,-0.54768 0.4581371,0 0.871642,0.2739 0.871642,0.87735 z"
       id="path3782" />
    <g
       transform="matrix(0.97524802,0,0,0.97524802,-1605.2673,-2050.3799)"
       id="g3790">
      <rect
         style="opacity:1;vector-effect:none;fill:#ffffff;fill-opacity:1;stroke:none;stroke-width:0.04519686px;stroke-linecap:butt;stroke-linejoin:miter;stroke-miterlimit:4;stroke-dasharray:none;stroke-dashoffset:0;stroke-opacity:1;paint-order:fill markers stroke"
         id="rect3786"
         width="6.5608344"
         height="3.0070493"
         x="1703.6737"
         y="2395.7964" />
      <path
         style="opacity:1;vector-effect:none;fill:#ffffff;fill-opacity:1;stroke:none;stroke-width:0.05860686px;stroke-linecap:butt;stroke-linejoin:miter;stroke-miterlimit:4;stroke-dasharray:none;stroke-dashoffset:0;stroke-opacity:1;paint-order:fill markers stroke"
         id="path3788"
         d="m 1714.6032,2397.2998 -4.9022,2.8303 v -5.6606 z" />
    </g>
  </g>
</svg>
