<?xml version="1.0" encoding="UTF-8" standalone="no"?>
<svg
   xmlns:dc="http://purl.org/dc/elements/1.1/"
   xmlns:cc="http://creativecommons.org/ns#"
   xmlns:rdf="http://www.w3.org/1999/02/22-rdf-syntax-ns#"
   xmlns:svg="http://www.w3.org/2000/svg"
   xmlns="http://www.w3.org/2000/svg"
   id="svg1139"
   version="1.1"
   viewBox="0 0 60.060415 10.583334"
   height="40"
   width="227">
  <defs
     id="defs1133" />
  <metadata
     id="metadata1136">
    <rdf:RDF>
      <cc:Work
         rdf:about="">
        <dc:format>image/svg+xml</dc:format>
        <dc:type
           rdf:resource="http://purl.org/dc/dcmitype/StillImage" />
        <dc:title></dc:title>
      </cc:Work>
    </rdf:RDF>
  </metadata>
  <g
     transform="translate(0,-286.41665)"
     id="layer1">
    <g
       transform="matrix(1.0000082,0,0,1.0000082,-1588.8131,-2074.1822)"
       id="g3774">
      <g
         style="stroke-width:2.30130386"
         id="g3768"
         transform="matrix(0.12263581,0,0,0.12263581,1809.7185,1778.2078)">
        <rect
           rx="10.78736"
           ry="10.78736"
           id="rect3742"
           height="84"
           width="84"
           y="4748.7896"
           x="-1801.4189"
           style="stroke-width:0.7118724" />
        <g
           id="g3766"
           transform="matrix(1.9687493,0,0,1.9687493,-3432.4293,-12127.626)"
           style="stroke-width:2.30130386">
          <path
             id="path3744"
             d="m 853.29942,8595.0859 a 5.5395312,5.5395312 0 0 1 -5.53953,5.5396 5.5395312,5.5395312 0 0 1 -5.53953,-5.5396 5.5395312,5.5395312 0 0 1 5.53953,-5.5395 5.5395312,5.5395312 0 0 1 5.53953,5.5395 z"
             style="color:#000000;clip-rule:nonzero;display:inline;overflow:visible;visibility:visible;opacity:1;isolation:auto;mix-blend-mode:normal;color-interpolation:sRGB;color-interpolation-filters:linearRGB;solid-color:#000000;solid-opacity:1;fill:#ffffff;fill-opacity:1;fill-rule:nonzero;stroke:none;stroke-width:14.77307701;stroke-linecap:butt;stroke-linejoin:round;stroke-miterlimit:4;stroke-dasharray:none;stroke-dashoffset:0;stroke-opacity:1;color-rendering:auto;image-rendering:auto;shape-rendering:auto;text-rendering:auto;enable-background:accumulate" />
          <path
             id="path3746"
             d="m 854.65427,8582.6074 a 3.3533037,3.3533037 0 0 1 -3.35331,3.3533 3.3533037,3.3533037 0 0 1 -3.3533,-3.3533 3.3533037,3.3533037 0 0 1 3.3533,-3.3533 3.3533037,3.3533037 0 0 1 3.35331,3.3533 z"
             style="color:#000000;clip-rule:nonzero;display:inline;overflow:visible;visibility:visible;opacity:1;isolation:auto;mix-blend-mode:normal;color-interpolation:sRGB;color-interpolation-filters:linearRGB;solid-color:#000000;solid-opacity:1;fill:#ffffff;fill-opacity:1;fill-rule:nonzero;stroke:none;stroke-width:14.77307701;stroke-linecap:butt;stroke-linejoin:round;stroke-miterlimit:4;stroke-dasharray:none;stroke-dashoffset:0;stroke-opacity:1;color-rendering:auto;image-rendering:auto;shape-rendering:auto;text-rendering:auto;enable-background:accumulate" />
          <path
             id="path3748"
             d="m 865.78336,8592.0508 a 3.3533037,3.3533037 0 0 1 -3.35331,3.3533 3.3533037,3.3533037 0 0 1 -3.3533,-3.3533 3.3533037,3.3533037 0 0 1 3.3533,-3.3533 3.3533037,3.3533037 0 0 1 3.35331,3.3533 z"
             style="color:#000000;clip-rule:nonzero;display:inline;overflow:visible;visibility:visible;opacity:1;isolation:auto;mix-blend-mode:normal;color-interpolation:sRGB;color-interpolation-filters:linearRGB;solid-color:#000000;solid-opacity:1;fill:#ffffff;fill-opacity:1;fill-rule:nonzero;stroke:none;stroke-width:14.77307701;stroke-linecap:butt;stroke-linejoin:round;stroke-miterlimit:4;stroke-dasharray:none;stroke-dashoffset:0;stroke-opacity:1;color-rendering:auto;image-rendering:auto;shape-rendering:auto;text-rendering:auto;enable-background:accumulate" />
          <path
             id="path3750"
             d="m 860.21884,8604.3604 a 3.3533037,3.3533037 0 0 1 -3.3533,3.3533 3.3533037,3.3533037 0 0 1 -3.3533,-3.3533 3.3533037,3.3533037 0 0 1 3.3533,-3.3534 3.3533037,3.3533037 0 0 1 3.3533,3.3534 z"
             style="color:#000000;clip-rule:nonzero;display:inline;overflow:visible;visibility:visible;opacity:1;isolation:auto;mix-blend-mode:normal;color-interpolation:sRGB;color-interpolation-filters:linearRGB;solid-color:#000000;solid-opacity:1;fill:#ffffff;fill-opacity:1;fill-rule:nonzero;stroke:none;stroke-width:14.77307701;stroke-linecap:butt;stroke-linejoin:round;stroke-miterlimit:4;stroke-dasharray:none;stroke-dashoffset:0;stroke-opacity:1;color-rendering:auto;image-rendering:auto;shape-rendering:auto;text-rendering:auto;enable-background:accumulate" />
          <path
             id="path3752"
             d="m 841.33304,8602.8428 a 3.3533037,3.3533037 0 0 1 -3.3533,3.3533 3.3533037,3.3533037 0 0 1 -3.35331,-3.3533 3.3533037,3.3533037 0 0 1 3.35331,-3.3533 3.3533037,3.3533037 0 0 1 3.3533,3.3533 z"
             style="color:#000000;clip-rule:nonzero;display:inline;overflow:visible;visibility:visible;opacity:1;isolation:auto;mix-blend-mode:normal;color-interpolation:sRGB;color-interpolation-filters:linearRGB;solid-color:#000000;solid-opacity:1;fill:#ffffff;fill-opacity:1;fill-rule:nonzero;stroke:none;stroke-width:14.77307701;stroke-linecap:butt;stroke-linejoin:round;stroke-miterlimit:4;stroke-dasharray:none;stroke-dashoffset:0;stroke-opacity:1;color-rendering:auto;image-rendering:auto;shape-rendering:auto;text-rendering:auto;enable-background:accumulate" />
          <path
             id="path3754"
             d="m 840.48996,8585.1377 a 3.3533037,3.3533037 0 0 1 -3.3533,3.3533 3.3533037,3.3533037 0 0 1 -3.35331,-3.3533 3.3533037,3.3533037 0 0 1 3.35331,-3.3533 3.3533037,3.3533037 0 0 1 3.3533,3.3533 z"
             style="color:#000000;clip-rule:nonzero;display:inline;overflow:visible;visibility:visible;opacity:1;isolation:auto;mix-blend-mode:normal;color-interpolation:sRGB;color-interpolation-filters:linearRGB;solid-color:#000000;solid-opacity:1;fill:#ffffff;fill-opacity:1;fill-rule:nonzero;stroke:none;stroke-width:14.77307701;stroke-linecap:butt;stroke-linejoin:round;stroke-miterlimit:4;stroke-dasharray:none;stroke-dashoffset:0;stroke-opacity:1;color-rendering:auto;image-rendering:auto;shape-rendering:auto;text-rendering:auto;enable-background:accumulate" />
          <path
             id="path3756"
             d="m 839.58425,8587.4298 4.13232,3.8697"
             style="fill:none;fill-rule:evenodd;stroke:#ffffff;stroke-width:3.28757644;stroke-linecap:butt;stroke-linejoin:miter;stroke-miterlimit:4;stroke-dasharray:none;stroke-opacity:1" />
          <path
             id="path3758"
             d="m 859.14635,8592.7302 -5.96191,1.2334"
             style="fill:none;fill-rule:evenodd;stroke:#ffffff;stroke-width:3.28757644;stroke-linecap:butt;stroke-linejoin:miter;stroke-miterlimit:4;stroke-dasharray:none;stroke-opacity:1" />
          <path
             id="path3760"
             d="m 854.5163,8601.9676 -2.87556,-2.9289"
             style="fill:none;fill-rule:evenodd;stroke:#ffffff;stroke-width:3.28757644;stroke-linecap:butt;stroke-linejoin:miter;stroke-miterlimit:4;stroke-dasharray:none;stroke-opacity:1" />
          <path
             id="path3762"
             d="m 840.60697,8600.7591 2.81282,-2.2309"
             style="fill:none;fill-rule:evenodd;stroke:#ffffff;stroke-width:3.28757644;stroke-linecap:butt;stroke-linejoin:miter;stroke-miterlimit:4;stroke-dasharray:none;stroke-opacity:1" />
          <path
             id="path3764"
             d="m 850.38555,8585.8333 -1.11343,3.9236"
             style="fill:none;fill-rule:evenodd;stroke:#ffffff;stroke-width:3.28757644;stroke-linecap:butt;stroke-linejoin:miter;stroke-miterlimit:4;stroke-dasharray:none;stroke-opacity:1" />
        </g>
      </g>
      <g
         id="text3772"
         style="font-style:normal;font-weight:normal;font-size:2.08010507px;line-height:0%;font-family:sans-serif;letter-spacing:0px;word-spacing:0px;fill:#ffffff;fill-opacity:1;stroke:none;stroke-width:0.28493768px;stroke-linecap:butt;stroke-linejoin:miter;stroke-opacity:1"
         aria-label="WebThings">
        <path
           id="path4883"
           style="font-style:normal;font-variant:normal;font-weight:600;font-stretch:normal;font-size:9.6837635px;line-height:1.25;font-family:'Zilla Slab';-inkscape-font-specification:'Zilla Slab Semi-Bold';text-align:start;text-anchor:start;fill:#ffffff;fill-opacity:1;stroke-width:0.28493768px"
           d="m 1610.0467,2363.6385 h -0.5132 l -1.714,5.3744 h -0.7941 l -1.5397,-4.4351 h -0.048 l -1.4913,4.4351 h -0.8038 l -1.8205,-5.3744 h -0.5423 v -0.92 h 2.3919 v 0.92 h -0.6973 l 1.0846,3.6023 h 0.048 l 1.2492,-3.6023 h -0.5519 v -0.92 h 2.3822 v 0.92 h -0.5133 l 1.2492,3.6507 h 0.049 l 0.9877,-3.6507 h -0.7747 v -0.92 h 2.3628 z" />
        <path
           id="path4885"
           style="font-style:normal;font-variant:normal;font-weight:600;font-stretch:normal;font-size:9.6837635px;line-height:1.25;font-family:'Zilla Slab';-inkscape-font-specification:'Zilla Slab Semi-Bold';text-align:start;text-anchor:start;fill:#ffffff;fill-opacity:1;stroke-width:0.28493768px"
           d="m 1613.9697,2367.6863 q -0.058,0.5713 -0.5616,0.9974 -0.5036,0.4261 -1.3848,0.4261 -0.949,0 -1.5591,-0.552 -0.6101,-0.5617 -0.6101,-1.6462 0,-0.9975 0.552,-1.6656 0.5617,-0.6682 1.5591,-0.6682 0.9006,0 1.4235,0.5423 0.5326,0.5326 0.5423,1.3557 0,0.2711 -0.058,0.581 h -2.9342 q 0.087,1.2202 1.1621,1.2202 0.5035,0 0.7166,-0.2421 0.2227,-0.2421 0.2905,-0.5133 z m -1.1039,-1.2686 q 0.039,-0.3874 -0.184,-0.7263 -0.2131,-0.3486 -0.7263,-0.3486 -0.4648,0 -0.7069,0.3099 -0.2421,0.3099 -0.3002,0.765 z" />
        <path
           id="path4887"
           style="font-style:normal;font-variant:normal;font-weight:600;font-stretch:normal;font-size:9.6837635px;line-height:1.25;font-family:'Zilla Slab';-inkscape-font-specification:'Zilla Slab Semi-Bold';text-align:start;text-anchor:start;fill:#ffffff;fill-opacity:1;stroke-width:0.28493768px"
           d="m 1619.233,2366.7373 q 0,0.9199 -0.4842,1.6462 -0.4842,0.7263 -1.4913,0.7263 -1.0265,0 -1.4429,-0.7747 -0.019,0.1162 -0.048,0.3389 -0.029,0.2227 -0.048,0.3389 h -1.0265 q 0.058,-0.3195 0.1065,-0.6488 0.048,-0.3389 0.048,-0.6585 v -4.561 h -0.6489 v -0.7941 h 1.6753 v 3.1763 q 0.1937,-0.3874 0.5423,-0.6682 0.3583,-0.2808 0.9587,-0.2808 0.8231,0 1.3364,0.5713 0.5229,0.5617 0.5229,1.5882 z m -1.0749,0.087 q 0,-0.6875 -0.3099,-1.0458 -0.3099,-0.368 -0.794,-0.368 -0.552,0 -0.8619,0.4067 -0.3099,0.4067 -0.3196,0.8812 v 0.3099 q 0,0.5326 0.3099,0.9103 0.3196,0.368 0.8328,0.368 0.5423,0 0.8425,-0.3971 0.3002,-0.397 0.3002,-1.0652 z" />
        <path
           id="path4889"
           style="font-style:normal;font-variant:normal;font-weight:600;font-stretch:normal;font-size:9.6837635px;line-height:1.25;font-family:'Zilla Slab';-inkscape-font-specification:'Zilla Slab Semi-Bold';text-align:start;text-anchor:start;fill:#ffffff;fill-opacity:1;stroke-width:0.28493768px"
           d="m 1625.0529,2364.7715 -0.9296,0.077 -0.1937,-1.2104 h -1.2298 v 4.4545 h 1.0555 v 0.9199 h -3.1472 v -0.9199 h 1.0168 v -4.4545 h -1.2395 l -0.1937,1.2104 -0.92,-0.077 0.1937,-2.053 h 5.3939 z" />
        <path
           id="path4891"
           style="font-style:normal;font-variant:normal;font-weight:600;font-stretch:normal;font-size:9.6837635px;line-height:1.25;font-family:'Zilla Slab';-inkscape-font-specification:'Zilla Slab Semi-Bold';text-align:start;text-anchor:start;fill:#ffffff;fill-opacity:1;stroke-width:0.28493768px"
           d="m 1630.6954,2369.0129 h -2.3338 v -0.794 h 0.6488 v -1.7044 q 0,-0.6197 -0.2324,-0.8715 -0.2324,-0.2615 -0.6294,-0.2615 -0.4745,0 -0.7554,0.3099 -0.2808,0.3099 -0.3002,0.7553 v 1.7722 h 0.6392 v 0.794 h -2.3241 v -0.794 h 0.6488 v -5.0743 h -0.6488 v -0.7941 h 1.6849 v 3.031 q 0.4455,-0.8037 1.4429,-0.8037 0.6295,0 1.0652,0.3776 0.4455,0.3777 0.4455,1.1815 v 2.082 h 0.6488 z" />
        <path
           id="path4893"
           style="font-style:normal;font-variant:normal;font-weight:600;font-stretch:normal;font-size:9.6837635px;line-height:1.25;font-family:'Zilla Slab';-inkscape-font-specification:'Zilla Slab Semi-Bold';text-align:start;text-anchor:start;fill:#ffffff;fill-opacity:1;stroke-width:0.28493768px"
           d="m 1631.7051,2363.7643 v -1.1426 h 1.0555 v 1.1426 z m 1.7334,5.2486 h -2.3241 v -0.794 h 0.6488 v -2.7502 h -0.6876 v -0.8038 h 1.7141 v 3.554 h 0.6488 z" />
        <path
           id="path4895"
           style="font-style:normal;font-variant:normal;font-weight:600;font-stretch:normal;font-size:9.6837635px;line-height:1.25;font-family:'Zilla Slab';-inkscape-font-specification:'Zilla Slab Semi-Bold';text-align:start;text-anchor:start;fill:#ffffff;fill-opacity:1;stroke-width:0.28493768px"
           d="m 1639.2,2369.0129 h -2.3241 v -0.794 h 0.6391 v -1.7044 q 0,-0.6197 -0.2227,-0.8715 -0.2227,-0.2615 -0.6198,-0.2615 -0.4938,0 -0.7843,0.3196 -0.2809,0.3196 -0.2905,0.7844 v 1.7334 h 0.6488 v 0.794 h -2.3338 v -0.794 h 0.6488 v -2.7502 h -0.6779 v -0.8038 h 1.7141 v 0.7069 q 0.4551,-0.794 1.4428,-0.794 0.6198,0 1.0652,0.3776 0.4455,0.3777 0.4455,1.1815 v 2.082 h 0.6488 z" />
        <path
           id="path4897"
           style="font-style:normal;font-variant:normal;font-weight:600;font-stretch:normal;font-size:9.6837635px;line-height:1.25;font-family:'Zilla Slab';-inkscape-font-specification:'Zilla Slab Semi-Bold';text-align:start;text-anchor:start;fill:#ffffff;fill-opacity:1;stroke-width:0.28493768px"
           d="m 1644.5933,2365.4687 h -0.6295 v 3.3796 q 0,1.0362 -0.581,1.6753 -0.5714,0.6391 -1.714,0.6391 -0.6779,0 -1.2686,-0.2905 -0.5907,-0.2905 -0.8328,-0.9974 l 0.8037,-0.4358 q 0.4068,0.8909 1.317,0.8909 0.5423,0 0.8909,-0.3873 0.3487,-0.3874 0.3487,-1.104 v -0.6488 q -0.184,0.3486 -0.5327,0.6004 -0.3389,0.2421 -0.9393,0.2421 -0.765,0 -1.3267,-0.5326 -0.5519,-0.5423 -0.5519,-1.5688 0,-0.9296 0.4938,-1.6365 0.5036,-0.7166 1.4526,-0.7166 0.9878,0 1.4042,0.765 v -0.6779 h 1.6656 z m -1.6656,1.4719 v -0.3486 q 0,-0.5423 -0.3099,-0.8619 -0.3099,-0.3195 -0.7747,-0.3195 -0.5423,0 -0.8328,0.397 -0.2905,0.3874 -0.2905,1.0555 0,0.6876 0.2905,1.0168 0.2905,0.3196 0.7359,0.3196 0.552,0 0.8619,-0.3873 0.3196,-0.3874 0.3196,-0.8716 z" />
        <path
           id="path4899"
           style="font-style:normal;font-variant:normal;font-weight:600;font-stretch:normal;font-size:9.6837635px;line-height:1.25;font-family:'Zilla Slab';-inkscape-font-specification:'Zilla Slab Semi-Bold';text-align:start;text-anchor:start;fill:#ffffff;fill-opacity:1;stroke-width:0.28493768px"
           d="m 1648.811,2367.7153 q 0,0.6779 -0.5617,1.0362 -0.5519,0.3583 -1.4138,0.3583 -0.4648,0 -0.9393,-0.1065 -0.4648,-0.1066 -0.8425,-0.3196 l 0.1549,-1.1233 0.8135,0.077 -0.01,0.5617 q 0.184,0.077 0.3873,0.1065 0.2131,0.029 0.3777,0.029 0.397,0 0.6876,-0.1356 0.3001,-0.1453 0.3001,-0.4261 0,-0.2711 -0.2711,-0.3873 -0.2615,-0.1162 -0.6585,-0.1743 -0.397,-0.068 -0.7941,-0.1743 -0.397,-0.1163 -0.6681,-0.368 -0.2615,-0.2615 -0.2615,-0.7747 0,-0.7554 0.5713,-1.0362 0.5811,-0.2808 1.2202,-0.2808 0.8425,0 1.5881,0.397 l 0.1066,1.0749 -0.8135,0.097 -0.087,-0.6488 q -0.3777,-0.1452 -0.7651,-0.1452 -0.3002,0 -0.5132,0.1259 -0.2034,0.1162 -0.2034,0.3776 0,0.2712 0.2615,0.3777 0.2615,0.1065 0.6488,0.1743 0.3874,0.058 0.7747,0.1743 0.3874,0.1065 0.6488,0.368 0.2615,0.2518 0.2615,0.765 z" />
      </g>
    </g>
  </g>
</svg>
