<?xml version="1.0" encoding="UTF-8" standalone="no"?>
<svg
   xmlns:dc="http://purl.org/dc/elements/1.1/"
   xmlns:cc="http://creativecommons.org/ns#"
   xmlns:rdf="http://www.w3.org/1999/02/22-rdf-syntax-ns#"
   xmlns:svg="http://www.w3.org/2000/svg"
   xmlns="http://www.w3.org/2000/svg"
   id="svg8559"
   version="1.1"
   viewBox="0 0 26.458334 26.458334"
   height="26.458334mm"
   width="26.458334mm">
  <defs
     id="defs8553" />
  <metadata
     id="metadata8556">
    <rdf:RDF>
      <cc:Work
         rdf:about="">
        <dc:format>image/svg+xml</dc:format>
        <dc:type
           rdf:resource="http://purl.org/dc/dcmitype/StillImage" />
        <dc:title></dc:title>
      </cc:Work>
    </rdf:RDF>
  </metadata>
  <g
     transform="translate(39.309512,-135.60421)"
     id="layer1">
    <g
       transform="translate(-2659.2864,-6133.5636)"
       id="g8540">
      <circle
         style="opacity:1;vector-effect:none;fill:#37474f;fill-opacity:1;stroke:none;stroke-width:0.15031628;stroke-linecap:butt;stroke-linejoin:miter;stroke-miterlimit:4;stroke-dasharray:none;stroke-dashoffset:0;stroke-opacity:1;paint-order:fill markers stroke"
         id="path8536"
         cx="2633.2061"
         cy="6282.397"
         r="13.229167" />
      <path
         id="path22705"
         d="m 2639.3516,6278.9084 c 0,-1.8681 -1.7799,-3.2584 -3.6813,-3.2584 a 3.4691909,3.4691909 0 0 0 -2.9967,1.5987 2.946391,2.946391 0 0 0 -1.7961,-0.548 c -1.4382,0 -2.6226,1.0729 -2.9066,2.4024 -0.054,0.01 -0.1063,0.01 -0.1522,0.01 a 3.6156709,3.6156709 0 0 0 -3.6083,3.6151 c 0,1.6443 0.9356,2.8611 2.6133,3.5135 l 1.1723,-2.6862 a 0.80631439,0.80631439 0 1 0 -0.8432,-0.3793 l -0.7786,1.7875 c -0.04,0.015 -1.9512,-1.1147 -1.0196,-3.3202 0.3672,-0.8696 1.7165,-1.9685 3.435,-1.5539 0,-0.01 0.014,-0.2035 0.061,-0.5034 0.1559,-0.9858 0.9445,-1.8876 2.0557,-1.8876 a 2.5130982,2.5130982 0 0 1 1.5703,0.5717 2.2648169,2.2648169 0 0 1 0.4692,0.4562 c 0,0 0.134,-0.2912 0.2698,-0.5293 0.4404,-0.779 1.3758,-1.524 2.4548,-1.524 1.4911,0 2.9334,1.202 2.6838,3.1893 h 0.015 c 1.8057,0.1976 2.7437,1.4555 2.7437,2.7348 0,1.5387 -1.5523,2.8187 -2.9017,2.8388 -0.4081,0.01 -0.8036,0.01 -1.0766,0.01 l 0.7696,-1.7692 a 0.86178785,0.86178785 0 1 0 -0.8447,-0.3742 l -1.3895,3.192 h 2.3273 c 2.524,0 4.2047,-2.0305 4.2047,-3.9239 0,-1.5254 -0.8057,-3.0586 -2.8501,-3.6534 z m -1.5742,3.5161 a 0.38981358,0.38981358 0 1 1 -0.3899,0.3899 0.38981358,0.38981358 0 0 1 0.3902,-0.3899 z m -1.9656,-1.8291 -2.5708,5.8914 h -1.0111 l 2.742,-6.279 a 0.78967234,0.78967234 0 0 1 -0.1123,-0.3986 0.7994177,0.7994177 0 1 1 0.9525,0.7855 z m -3.1838,0.6813 a 0.86403677,0.86403677 0 1 0 -1.5821,0.4809 l -2.493,5.7202 a 0.8395985,0.8395985 0 1 0 0.8462,0.3683 l 2.496,-5.7169 a 0.86283735,0.86283735 0 0 0 0.7329,-0.8525 z m -3.9309,7.4052 a 0.37856896,0.37856896 0 1 1 0.3779,-0.3784 0.37811915,0.37811915 0 0 1 -0.3779,0.3784 z m 2.6774,-7.4052 a 0.38981358,0.38981358 0 1 1 0.3899,0.3897 0.38981358,0.38981358 0 0 1 -0.3899,-0.3897 z"
         class="a"
         style="fill:#00acc1;stroke-width:0.1499283" />
    </g>
  </g>
</svg>
