<?xml version="1.0" encoding="UTF-8" standalone="no"?>
<svg
   xmlns:dc="http://purl.org/dc/elements/1.1/"
   xmlns:cc="http://creativecommons.org/ns#"
   xmlns:rdf="http://www.w3.org/1999/02/22-rdf-syntax-ns#"
   xmlns:svg="http://www.w3.org/2000/svg"
   xmlns="http://www.w3.org/2000/svg"
   id="svg9361"
   version="1.1"
   viewBox="0 0 182.56752 26.458389"
   height="100.00021"
   width="690.01898">
  <defs
     id="defs9355" />
  <metadata
     id="metadata9358">
    <rdf:RDF>
      <cc:Work
         rdf:about="">
        <dc:format>image/svg+xml</dc:format>
        <dc:type
           rdf:resource="http://purl.org/dc/dcmitype/StillImage" />
        <dc:title></dc:title>
      </cc:Work>
    </rdf:RDF>
  </metadata>
  <g
     transform="translate(45.9266,-29.01486)"
     id="layer1">
    <g
       id="g9313"
       transform="translate(-2726.3182,-5783.803)">
      <g
         transform="translate(0.03768916)"
         id="g10028">
        <g
           transform="matrix(0.93791003,0,0,0.93791003,498.95937,2607.026)"
           id="g66047"
           style="stroke:none">
          <ellipse
             ry="10.687479"
             rx="10.501103"
             cy="3429.6917"
             cx="2397.2109"
             id="ellipse66027"
             style="fill:none;fill-opacity:1;stroke:none;stroke-width:1.41111112" />
          <path
             style="color:#000000;font-style:normal;font-variant:normal;font-weight:normal;font-stretch:normal;font-size:medium;line-height:normal;font-family:sans-serif;font-variant-ligatures:normal;font-variant-position:normal;font-variant-caps:normal;font-variant-numeric:normal;font-variant-alternates:normal;font-feature-settings:normal;text-indent:0;text-align:start;text-decoration:none;text-decoration-line:none;text-decoration-style:solid;text-decoration-color:#000000;letter-spacing:normal;word-spacing:normal;text-transform:none;writing-mode:lr-tb;direction:ltr;text-orientation:mixed;dominant-baseline:auto;baseline-shift:baseline;text-anchor:start;white-space:normal;shape-padding:0;clip-rule:nonzero;display:inline;overflow:visible;visibility:visible;opacity:1;isolation:auto;mix-blend-mode:normal;color-interpolation:sRGB;color-interpolation-filters:linearRGB;solid-color:#000000;solid-opacity:1;vector-effect:none;fill:#ffffff;fill-opacity:1;fill-rule:nonzero;stroke:none;stroke-width:1.97555566;stroke-linecap:butt;stroke-linejoin:miter;stroke-miterlimit:4;stroke-dasharray:none;stroke-dashoffset:0;stroke-opacity:1;color-rendering:auto;image-rendering:auto;shape-rendering:auto;text-rendering:auto;enable-background:accumulate"
             d="m 2397.2109,3418.0156 c -6.3429,0 -11.4882,5.2487 -11.4882,11.6758 0,6.4271 5.1453,11.6758 11.4882,11.6758 6.3429,0 11.4883,-5.2487 11.4883,-11.6758 0,-6.4271 -5.1454,-11.6758 -11.4883,-11.6758 z m 0,1.9766 c 5.2563,0 9.5137,4.3212 9.5137,9.6992 0,5.378 -4.2574,9.6992 -9.5137,9.6992 -5.2563,0 -9.5136,-4.3212 -9.5136,-9.6992 0,-5.378 4.2573,-9.6992 9.5136,-9.6992 z"
             id="ellipse66029" />
          <path
             style="color:#000000;font-style:normal;font-variant:normal;font-weight:normal;font-stretch:normal;font-size:medium;line-height:normal;font-family:sans-serif;font-variant-ligatures:normal;font-variant-position:normal;font-variant-caps:normal;font-variant-numeric:normal;font-variant-alternates:normal;font-feature-settings:normal;text-indent:0;text-align:start;text-decoration:none;text-decoration-line:none;text-decoration-style:solid;text-decoration-color:#000000;letter-spacing:normal;word-spacing:normal;text-transform:none;writing-mode:lr-tb;direction:ltr;text-orientation:mixed;dominant-baseline:auto;baseline-shift:baseline;text-anchor:start;white-space:normal;shape-padding:0;clip-rule:nonzero;display:inline;overflow:visible;visibility:visible;opacity:1;isolation:auto;mix-blend-mode:normal;color-interpolation:sRGB;color-interpolation-filters:linearRGB;solid-color:#000000;solid-opacity:1;vector-effect:none;fill:#ffffff;fill-opacity:1;fill-rule:nonzero;stroke:none;stroke-width:1.97555566;stroke-linecap:butt;stroke-linejoin:miter;stroke-miterlimit:4;stroke-dasharray:none;stroke-dashoffset:0;stroke-opacity:1;color-rendering:auto;image-rendering:auto;shape-rendering:auto;text-rendering:auto;enable-background:accumulate"
             d="m 2397.2109,3424.3574 c -3.5387,0 -6.4121,2.9328 -6.4121,6.5059 0,3.5731 2.8734,6.5078 6.4121,6.5078 3.5387,0 6.4121,-2.9347 6.4121,-6.5078 0,-3.5731 -2.8734,-6.5059 -6.4121,-6.5059 z m 0,1.9746 c 2.4521,0 4.4356,2.0072 4.4356,4.5313 0,2.524 -1.9835,4.5332 -4.4356,4.5332 -2.4521,0 -4.4355,-2.0092 -4.4355,-4.5332 0,-2.5241 1.9834,-4.5313 4.4355,-4.5313 z"
             id="ellipse66031" />
          <path
             style="color:#000000;font-style:normal;font-variant:normal;font-weight:normal;font-stretch:normal;font-size:medium;line-height:normal;font-family:sans-serif;font-variant-ligatures:normal;font-variant-position:normal;font-variant-caps:normal;font-variant-numeric:normal;font-variant-alternates:normal;font-feature-settings:normal;text-indent:0;text-align:start;text-decoration:none;text-decoration-line:none;text-decoration-style:solid;text-decoration-color:#000000;letter-spacing:normal;word-spacing:normal;text-transform:none;writing-mode:lr-tb;direction:ltr;text-orientation:mixed;dominant-baseline:auto;baseline-shift:baseline;text-anchor:start;white-space:normal;shape-padding:0;clip-rule:nonzero;display:inline;overflow:visible;visibility:visible;opacity:1;isolation:auto;mix-blend-mode:normal;color-interpolation:sRGB;color-interpolation-filters:linearRGB;solid-color:#000000;solid-opacity:1;vector-effect:none;fill:#ffffff;fill-opacity:1;fill-rule:nonzero;stroke:none;stroke-width:1.97555566;stroke-linecap:butt;stroke-linejoin:miter;stroke-miterlimit:4;stroke-dasharray:none;stroke-dashoffset:0;stroke-opacity:1;color-rendering:auto;image-rendering:auto;shape-rendering:auto;text-rendering:auto;enable-background:accumulate"
             d="m 2397.3262,3428.5859 c -1.3081,0 -2.3731,1.0956 -2.3731,2.3985 0,1.3029 1.065,2.3965 2.3731,2.3965 1.3081,0 2.373,-1.0936 2.373,-2.3965 0,-1.3029 -1.0649,-2.3985 -2.373,-2.3985 z m 0,1.9766 c 0.2214,0 0.3965,0.168 0.3965,0.4219 0,0.2538 -0.1751,0.4199 -0.3965,0.4199 -0.2215,0 -0.3965,-0.1661 -0.3965,-0.4199 0,-0.2539 0.175,-0.4219 0.3965,-0.4219 z"
             id="ellipse66033" />
          <path
             style="fill:#ffffff;fill-opacity:1;stroke:none;stroke-width:0.28222224"
             d="m 2398.7108,3422.2915 a 1.6155545,1.6442277 0 0 1 -1.6156,1.6442 1.6155545,1.6442277 0 0 1 -1.6155,-1.6442 1.6155545,1.6442277 0 0 1 1.6155,-1.6442 1.6155545,1.6442277 0 0 1 1.6156,1.6442 z"
             id="ellipse66035" />
          <g
             transform="matrix(0.24140469,0,0,0.24327857,2393.8646,3442.0227)"
             id="g66043"
             style="fill:#ffffff;fill-opacity:1;stroke:none">
            <path
               style="fill:#ffffff;fill-opacity:1;stroke:none"
               d="M 6.6923075,3.3793104 A 3.3461537,3.3793104 0 0 1 3.3461537,6.7586207 3.3461537,3.3793104 0 0 1 0,3.3793104 3.3461537,3.3793104 0 0 1 3.3461537,0 3.3461537,3.3793104 0 0 1 6.6923075,3.3793104 Z"
               id="ellipse66037" />
            <path
               style="fill:#ffffff;fill-opacity:1;stroke:none"
               d="M 18.164835,3.3793104 A 3.3461537,3.3793104 0 0 1 14.818682,6.7586207 3.3461537,3.3793104 0 0 1 11.472528,3.3793104 3.3461537,3.3793104 0 0 1 14.818682,0 3.3461537,3.3793104 0 0 1 18.164835,3.3793104 Z"
               id="ellipse66039" />
            <path
               style="fill:#ffffff;fill-opacity:1;stroke:none"
               d="M 29.637362,3.3793104 A 3.3461537,3.3793104 0 0 1 26.291208,6.7586207 3.3461537,3.3793104 0 0 1 22.945055,3.3793104 3.3461537,3.3793104 0 0 1 26.291208,0 3.3461537,3.3793104 0 0 1 29.637362,3.3793104 Z"
               id="ellipse66041" />
          </g>
          <path
             style="color:#000000;font-style:normal;font-variant:normal;font-weight:normal;font-stretch:normal;font-size:medium;line-height:normal;font-family:sans-serif;font-variant-ligatures:normal;font-variant-position:normal;font-variant-caps:normal;font-variant-numeric:normal;font-variant-alternates:normal;font-feature-settings:normal;text-indent:0;text-align:start;text-decoration:none;text-decoration-line:none;text-decoration-style:solid;text-decoration-color:#000000;letter-spacing:normal;word-spacing:normal;text-transform:none;writing-mode:lr-tb;direction:ltr;text-orientation:mixed;dominant-baseline:auto;baseline-shift:baseline;text-anchor:start;white-space:normal;shape-padding:0;clip-rule:nonzero;display:inline;overflow:visible;visibility:visible;opacity:1;isolation:auto;mix-blend-mode:normal;color-interpolation:sRGB;color-interpolation-filters:linearRGB;solid-color:#000000;solid-opacity:1;vector-effect:none;fill:#ffffff;fill-opacity:1;fill-rule:nonzero;stroke:none;stroke-width:1.97555566;stroke-linecap:butt;stroke-linejoin:miter;stroke-miterlimit:4;stroke-dasharray:none;stroke-dashoffset:0;stroke-opacity:1;color-rendering:auto;image-rendering:auto;shape-rendering:auto;text-rendering:auto;enable-background:accumulate"
             d="m 2392.4121,3439.5254 c -2.8517,0 -5.3828,1.9065 -5.3828,4.5293 v 2.1719 h 0.9883 19.6054 v -2.1719 c 0,-2.6229 -2.5291,-4.5293 -5.3808,-4.5293 z m 0,1.9746 h 9.8301 c 1.9917,0 3.4062,1.2577 3.4062,2.5547 v 0.1953 h -16.6445 v -0.1953 c 0,-1.297 1.4165,-2.5547 3.4082,-2.5547 z"
             id="path66045" />
        </g>
      </g>
      <g
         transform="translate(-0.07613963)"
         id="g10015">
        <path
           style="fill:#ffffff;fill-opacity:1;stroke:none;stroke-width:0.26725939;stroke-opacity:1"
           d="m 2779.8892,5825.472 c -0.616,0 -0.862,0.7769 -0.862,1.2942 0,0.5175 0.247,1.2942 0.862,1.2942 0.6157,0 0.8612,-0.7767 0.8612,-1.2942 0,-0.5173 -0.2466,-1.2942 -0.8612,-1.2942 z m -10.0522,-12.6541 v 26.4583 c 5.9996,0 11.0405,0 17.0402,0 0,-8.8191 0,-17.6392 0,-26.4583 z m 1.1489,1.1506 h 12.2537 l -5.5045,2.0342 c -0.1696,0.087 -0.3396,0.2543 -0.3396,0.509 v 19.0705 c 0,0.2548 0.086,0.4239 0.3396,0.5086 l 5.5045,2.0349 h -12.2537 z m 7.467,2.8962 7.2757,-2.7046 v 23.5826 l -7.2757,-2.7053 z"
           id="path66049" />
      </g>
      <g
         transform="translate(0.01912438)"
         id="g10034">
        <g
           transform="matrix(0.93749999,0,0,0.93749999,503.95106,2608.4335)"
           id="g66057"
           style="stroke:none">
          <g
             style="fill:#4a4a4a;fill-opacity:1;stroke:none"
             transform="matrix(0.48194966,0,0,0.48300085,-2679.3291,-17760.091)"
             id="g66055">
            <path
               style="fill:#ffffff;fill-opacity:1;stroke:none"
               id="path66051"
               d="m 10468.485,43879.37 -0.01,-24.725 c 0,-4.256 -3.48,-7.722 -7.756,-7.722 -4.276,0 -7.756,3.466 -7.756,7.722 v 24.722 c -3.993,2.602 -6.46,7.046 -6.46,11.83 0,7.803 6.382,14.157 14.22,14.157 7.845,0 14.22,-6.354 14.22,-14.157 0,-4.784 -2.467,-9.22 -6.453,-11.827 z m -7.767,23.131 c -6.262,0 -11.354,-5.073 -11.354,-11.304 0,-4.053 2.198,-7.813 5.735,-9.829 l 0.721,-0.412 v -0.827 -25.484 c 0,-2.688 2.194,-4.872 4.894,-4.872 2.699,0 4.898,2.184 4.898,4.872 v 0.612 h -3.269 c -0.608,0 -1.103,0.489 -1.103,1.098 0,0.605 0.495,1.094 1.103,1.094 h 3.269 v 2.885 h -3.269 c -0.608,0 -1.103,0.489 -1.103,1.098 0,0.605 0.495,1.097 1.103,1.097 h 3.269 v 2.882 h -3.269 c -0.608,0 -1.103,0.492 -1.103,1.097 0,0.605 0.495,1.094 1.103,1.094 h 3.269 v 12.527 0.831 l 0.725,0.404 c 3.533,2.017 5.735,5.78 5.735,9.829 0,6.235 -5.096,11.308 -11.361,11.308 z" />
            <path
               style="fill:#ffffff;fill-opacity:1;stroke:none"
               id="path66053"
               d="m 10464.42,43885.395 c -1.229,-0.718 -1.984,-2.048 -1.984,-3.483 v -7.387 c 0,-0.965 -0.771,-1.748 -1.716,-1.748 -0.948,0 -1.716,0.783 -1.716,1.748 v 7.379 c 0,1.443 -0.759,2.772 -1.984,3.49 -2.339,1.354 -3.79,3.9 -3.79,6.636 0,4.21 3.362,7.635 7.497,7.635 4.136,0 7.499,-3.425 7.499,-7.635 0,-2.732 -1.46,-5.278 -3.796,-6.636 z" />
          </g>
        </g>
      </g>
      <g
         transform="translate(-0.01897665)"
         id="g10012">
        <path
           style="fill:#ffffff;fill-opacity:1;fill-rule:nonzero;stroke:none;stroke-width:0.19172701;stroke-opacity:1"
           id="path66059"
           d="m 2811.6699,5839.2764 c -7.3063,0 -13.2292,-5.9229 -13.2292,-13.2292 0,-7.3063 5.9229,-13.2292 13.2292,-13.2292 7.3062,0 13.2291,5.9229 13.2291,13.2292 0,7.3063 -5.9229,13.2292 -13.2291,13.2292 z m 0,-1.3341 c 6.5695,0 11.895,-5.3256 11.895,-11.8951 0,-6.5695 -5.3255,-11.8951 -11.895,-11.8951 -6.5696,0 -11.8951,5.3256 -11.8951,11.8951 0,6.5695 5.3255,11.8951 11.8951,11.8951 z" />
        <path
           style="fill:#ffffff;fill-opacity:1;fill-rule:nonzero;stroke:none;stroke-width:0.19172701;stroke-opacity:1"
           id="path66061"
           d="m 2811.8615,5836.4006 c -5.6118,0 -10.1613,-4.5495 -10.1613,-10.1617 0,-5.6122 4.5495,-10.1617 10.1613,-10.1617 5.6122,0 10.1617,4.5495 10.1617,10.1617 0,5.6122 -4.5495,10.1617 -10.1617,10.1617 z m 0,-1.34 c 4.8721,0 8.8217,-3.9496 8.8217,-8.8217 0,-4.8721 -3.9496,-8.8217 -8.8217,-8.8217 -4.872,0 -8.8213,3.9496 -8.8213,8.8217 0,4.8721 3.9493,8.8217 8.8213,8.8217 z" />
        <path
           style="fill:#ffffff;fill-opacity:1;fill-rule:nonzero;stroke:none;stroke-width:0.19172701;stroke-opacity:1"
           id="path66063"
           d="m 2810.0977,5826.7432 c 0.01,0.5917 0.3311,1.1364 0.8473,1.4286 0.515,0.2914 1.1483,0.2874 1.6607,-0.011 0.5124,-0.2989 0.828,-0.8469 0.828,-1.439 0,-0.2455 -0.054,-0.4876 -0.1576,-0.7079 -0.1194,-0.2165 -0.2733,-0.413 -0.4546,-0.5802 -0.015,-0.011 -0.026,-0.022 -0.038,-0.033 -0.4957,-0.4965 -0.8198,-1.1283 -0.937,-1.8072 -0.1683,0.3148 -0.2617,0.6707 -0.2643,1.04 0,0.011 0,0.022 0,0.033 0,0.4361 0.1305,0.8628 0.3722,1.2292 0.3241,0.4909 -0.2373,1.0823 -0.7449,0.7853 -0.3578,-0.2095 -0.6474,-0.5069 -0.8461,-0.8569 -0.1735,0.2703 -0.2681,0.5892 -0.264,0.9207 z m 4.1624,-1.2473 0.011,0.022 c 0.1798,0.3741 0.2732,0.785 0.2732,1.201 0,0.9874 -0.5257,1.901 -1.3797,2.3986 -0.8539,0.4983 -1.9095,0.5053 -2.7697,0.019 -0.8591,-0.4868 -1.3964,-1.393 -1.4105,-2.38 -0.011,-0.9878 0.5013,-1.9085 1.3486,-2.4172 0.05,-0.03 0.1027,-0.051 0.1557,-0.064 0.1198,-1.0768 0.756,-2.0389 1.719,-2.5684 0.4375,-0.2403 0.9458,0.1724 0.7997,0.6492 -0.057,0.1884 -0.09,0.3838 -0.097,0.5762 0,0.056 0,0.071 0,0.086 0,0.5896 0.231,1.155 0.6437,1.5762 0.284,0.2573 0.5235,0.5621 0.7071,0.8999 z" />
        <path
           d="m 2811.8615,5819.7773 v 1.3366 c -2.8305,0 -5.1249,2.2945 -5.1249,5.125 h -1.3367 c 0,-3.5688 2.8929,-6.4616 6.4616,-6.4616 z m 0,12.9232 v -1.337 c 2.8302,0 5.1246,-2.2944 5.1246,-5.1246 h 1.3371 c 0,3.5688 -2.8929,6.4616 -6.4617,6.4616 z"
           id="path66067"
           style="fill:#ffffff;fill-opacity:1;fill-rule:nonzero;stroke:none;stroke-width:0.19172701;stroke-opacity:1" />
      </g>
      <g
         transform="translate(-2.3587768e-5)"
         id="g10006">
        <g
           transform="matrix(0.94696292,0,0,0.94696292,479.43925,2575.1041)"
           id="g66085"
           style="stroke:none">
          <path
             d="m 2513.3663,3419.0502 h -20.6446 c -2.0101,0 -3.647,1.6369 -3.647,3.647 v 20.6463 c 0,2.0107 1.6369,3.6469 3.647,3.6469 h 20.6468 c 2.0102,0 3.6465,-1.6346 3.6465,-3.6469 v -20.6463 c 0,-2.0101 -1.6363,-3.647 -3.6487,-3.647 z m 0,26.3853 h -20.6446 c -1.1527,0 -2.0898,-0.9372 -2.0898,-2.0893 v -20.649 c 0,-1.1527 0.9371,-2.0898 2.0898,-2.0898 h 20.6468 c 1.1522,0 2.0893,0.9371 2.0893,2.0898 v 20.6463 c 0,1.1527 -0.9387,2.092 -2.0915,2.092 z"
             id="path66073"
             style="fill:#ffffff;fill-opacity:1;stroke:none;stroke-width:0.1459334;stroke-opacity:1" />
          <path
             d="m 2508.368,3423.875 c -0.1976,-0.1293 -0.4088,-0.2063 -0.5769,-0.2063 h -9.2589 c -0.1686,0 -0.3793,0.075 -0.5714,0.202 -4.7184,2.8817 -5.4225,6.9697 -5.4225,9.1496 0,2.1805 0.7041,6.2685 5.4171,9.1459 0.1975,0.1293 0.4082,0.2063 0.5768,0.2063 h 9.2589 c 0.1681,0 0.3793,-0.075 0.5709,-0.2025 4.7167,-2.8812 5.4202,-6.9692 5.4202,-9.1497 0,-2.1799 -0.7035,-6.2679 -5.4142,-9.1453 z m 3.8456,9.1453 c 0,3.2644 -1.7809,6.2488 -4.6485,7.7989 h -8.8069 c -2.8703,-1.5501 -4.6507,-4.5345 -4.6507,-7.7989 0,-3.2644 1.7804,-6.2488 4.6485,-7.7988 h 8.8069 c 2.8698,1.55 4.6507,4.5344 4.6507,7.7988 z"
             id="path66075"
             style="fill:#ffffff;fill-opacity:1;stroke:none;stroke-width:0.1459334;stroke-opacity:1" />
          <g
             id="g66083"
             transform="matrix(0.28222223,0,0,0.28222223,2027.055,3459.9302)"
             style="stroke:none">
            <path
               style="fill:#ffffff;fill-opacity:1;stroke:none;stroke-width:0.51708686;stroke-opacity:1"
               id="path66077"
               d="m 1687.8015,-88.395586 c -3.9007,0 -6.9505,3.053646 -6.9505,6.960146 v 4.136635 c 0,1.657362 1.1545,2.811907 2.8119,2.811907 h 8.2868 c 1.6535,0 2.81,-1.154545 2.81,-2.811907 v -4.136635 c 0,-3.898765 -3.0575,-6.960146 -6.9582,-6.960146 z" />
            <path
               style="fill:#ffffff;fill-opacity:1;stroke:none;stroke-width:0.51708686;stroke-opacity:1"
               id="path66079"
               d="m 1676.2754,-114.57687 h -3.1252 c -1.2455,0 -2.1177,1.10039 -2.1177,2.67846 v 11.82394 c 0,1.578067 0.8722,2.680396 2.1177,2.680396 h 3.1252 c 1.2512,0 2.1215,-1.102329 2.1215,-2.680396 v -11.83167 c 0,-1.57034 -0.8703,-2.67073 -2.1215,-2.67073 z" />
            <path
               style="fill:#ffffff;fill-opacity:1;stroke:none;stroke-width:0.51708686;stroke-opacity:1"
               id="path66081"
               d="m 1700.8244,-114.57687 h -3.1252 c -1.2493,0 -2.1215,1.10039 -2.1215,2.67846 v 11.82394 c 0,1.578067 0.8722,2.680396 2.1215,2.680396 h 3.1252 c 1.2455,0 2.1177,-1.102329 2.1177,-2.680396 v -11.83167 c 0,-1.57034 -0.8761,-2.67073 -2.1177,-2.67073 z" />
          </g>
        </g>
      </g>
      <g
         id="g10037">
        <path
           style="fill:#ffffff;fill-opacity:1;stroke:none;stroke-width:0.13681203;stroke-opacity:1"
           id="path66087"
           d="m 2697.148,5813.7 c -0.1115,-0.551 -0.5587,-0.8821 -1.117,-0.8821 h -11.1709 c -0.5583,0 -1.0055,0.3311 -1.117,0.8821 l -3.3515,13.2289 c 0,0.331 0,0.6616 0.2236,0.8823 0.2231,0.3324 0.5582,0.4409 0.8933,0.4409 h 7.8195 v 8.8193 h -4.4679 c -0.6703,0 -1.117,0.4411 -1.117,1.1022 0,0.6616 0.4467,1.1026 1.117,1.1026 h 11.1709 c 0.6703,0 1.117,-0.441 1.117,-1.1026 0,-0.6611 -0.4467,-1.1022 -1.117,-1.1022 h -4.4684 v -8.8193 h 7.8189 c 0.6703,0 1.1175,-0.4409 1.1175,-1.1027 0,-0.2205 0,-0.3305 0,-0.441 z m -14.1709,12.3473 2.7333,-11.2161 h 9.1831 l 2.7329,11.2161 z" />
      </g>
    </g>
  </g>
</svg>
