<?xml version="1.0" encoding="UTF-8" standalone="no"?>
<svg
   xmlns:dc="http://purl.org/dc/elements/1.1/"
   xmlns:cc="http://creativecommons.org/ns#"
   xmlns:rdf="http://www.w3.org/1999/02/22-rdf-syntax-ns#"
   xmlns:svg="http://www.w3.org/2000/svg"
   xmlns="http://www.w3.org/2000/svg"
   id="svg9285"
   version="1.1"
   viewBox="0 0 92.604164 66.145835"
   height="250"
   width="350">
  <defs
     id="defs9279" />
  <metadata
     id="metadata9282">
    <rdf:RDF>
      <cc:Work
         rdf:about="">
        <dc:format>image/svg+xml</dc:format>
        <dc:type
           rdf:resource="http://purl.org/dc/dcmitype/StillImage" />
        <dc:title></dc:title>
      </cc:Work>
    </rdf:RDF>
  </metadata>
  <g
     transform="translate(47.796385,-16.352791)"
     id="layer1">
    <ellipse
       style="fill:none;fill-opacity:1;stroke:#000000;stroke-width:1.29341018"
       id="ellipse74935-4-8"
       cx="28.787588"
       cy="29.700115"
       rx="9.625205"
       ry="9.7960358" />
    <path
       id="ellipse74937-5-8"
       d="m 28.787109,18.998047 c -5.813845,0 -10.529297,4.810196 -10.529297,10.701172 0,5.890976 4.715452,10.703125 10.529297,10.703125 5.813846,0 10.53125,-4.812149 10.53125,-10.703125 0,-5.890976 -4.717404,-10.701172 -10.53125,-10.701172 z m 0,1.810547 c 4.817862,0 8.720703,3.961198 8.720703,8.890625 0,4.929426 -3.902841,8.890625 -8.720703,8.890625 -4.817862,0 -8.71875,-3.961199 -8.71875,-8.890625 0,-4.929427 3.900888,-8.890625 8.71875,-8.890625 z"
       style="color:#000000;font-style:normal;font-variant:normal;font-weight:normal;font-stretch:normal;font-size:medium;line-height:normal;font-family:sans-serif;font-variant-ligatures:normal;font-variant-position:normal;font-variant-caps:normal;font-variant-numeric:normal;font-variant-alternates:normal;font-feature-settings:normal;text-indent:0;text-align:start;text-decoration:none;text-decoration-line:none;text-decoration-style:solid;text-decoration-color:#000000;letter-spacing:normal;word-spacing:normal;text-transform:none;writing-mode:lr-tb;direction:ltr;text-orientation:mixed;dominant-baseline:auto;baseline-shift:baseline;text-anchor:start;white-space:normal;shape-padding:0;clip-rule:nonzero;display:inline;overflow:visible;visibility:visible;opacity:1;isolation:auto;mix-blend-mode:normal;color-interpolation:sRGB;color-interpolation-filters:linearRGB;solid-color:#000000;solid-opacity:1;vector-effect:none;fill:#ffffff;fill-opacity:1;fill-rule:nonzero;stroke:none;stroke-width:1.81077433;stroke-linecap:butt;stroke-linejoin:miter;stroke-miterlimit:4;stroke-dasharray:none;stroke-dashoffset:0;stroke-opacity:1;color-rendering:auto;image-rendering:auto;shape-rendering:auto;text-rendering:auto;enable-background:accumulate" />
    <path
       id="ellipse74939-0-9"
       d="m 28.787109,24.8125 c -3.243543,0 -5.876953,2.689789 -5.876953,5.964844 0,3.275054 2.63341,5.964844 5.876953,5.964844 3.243543,0 5.876953,-2.68979 5.876953,-5.964844 0,-3.275055 -2.63341,-5.964844 -5.876953,-5.964844 z m 0,1.810547 c 2.24756,0 4.066407,1.840792 4.066407,4.154297 0,2.313505 -1.818847,4.152344 -4.066407,4.152344 -2.247559,0 -4.064453,-1.838839 -4.064453,-4.152344 0,-2.313505 1.816894,-4.154297 4.064453,-4.154297 z"
       style="color:#000000;font-style:normal;font-variant:normal;font-weight:normal;font-stretch:normal;font-size:medium;line-height:normal;font-family:sans-serif;font-variant-ligatures:normal;font-variant-position:normal;font-variant-caps:normal;font-variant-numeric:normal;font-variant-alternates:normal;font-feature-settings:normal;text-indent:0;text-align:start;text-decoration:none;text-decoration-line:none;text-decoration-style:solid;text-decoration-color:#000000;letter-spacing:normal;word-spacing:normal;text-transform:none;writing-mode:lr-tb;direction:ltr;text-orientation:mixed;dominant-baseline:auto;baseline-shift:baseline;text-anchor:start;white-space:normal;shape-padding:0;clip-rule:nonzero;display:inline;overflow:visible;visibility:visible;opacity:1;isolation:auto;mix-blend-mode:normal;color-interpolation:sRGB;color-interpolation-filters:linearRGB;solid-color:#000000;solid-opacity:1;vector-effect:none;fill:#ffffff;fill-opacity:1;fill-rule:nonzero;stroke:none;stroke-width:1.81077433;stroke-linecap:butt;stroke-linejoin:miter;stroke-miterlimit:4;stroke-dasharray:none;stroke-dashoffset:0;stroke-opacity:1;color-rendering:auto;image-rendering:auto;shape-rendering:auto;text-rendering:auto;enable-background:accumulate" />
    <path
       id="ellipse74941-3-7"
       d="m 28.892578,28.6875 c -1.198984,0 -2.173828,1.003058 -2.173828,2.197266 0,1.194207 0.974844,2.197265 2.173828,2.197265 1.198984,0 2.175781,-1.003058 2.175781,-2.197265 0,-1.194208 -0.976797,-2.197266 -2.175781,-2.197266 z m 0,1.810547 c 0.203,0 0.365234,0.15406 0.365234,0.386719 0,0.232658 -0.162234,0.386718 -0.365234,0.386718 -0.203,0 -0.363281,-0.15406 -0.363281,-0.386718 0,-0.232659 0.160281,-0.386719 0.363281,-0.386719 z"
       style="color:#000000;font-style:normal;font-variant:normal;font-weight:normal;font-stretch:normal;font-size:medium;line-height:normal;font-family:sans-serif;font-variant-ligatures:normal;font-variant-position:normal;font-variant-caps:normal;font-variant-numeric:normal;font-variant-alternates:normal;font-feature-settings:normal;text-indent:0;text-align:start;text-decoration:none;text-decoration-line:none;text-decoration-style:solid;text-decoration-color:#000000;letter-spacing:normal;word-spacing:normal;text-transform:none;writing-mode:lr-tb;direction:ltr;text-orientation:mixed;dominant-baseline:auto;baseline-shift:baseline;text-anchor:start;white-space:normal;shape-padding:0;clip-rule:nonzero;display:inline;overflow:visible;visibility:visible;opacity:1;isolation:auto;mix-blend-mode:normal;color-interpolation:sRGB;color-interpolation-filters:linearRGB;solid-color:#000000;solid-opacity:1;vector-effect:none;fill:#ffffff;fill-opacity:1;fill-rule:nonzero;stroke:none;stroke-width:1.81077433;stroke-linecap:butt;stroke-linejoin:miter;stroke-miterlimit:4;stroke-dasharray:none;stroke-dashoffset:0;stroke-opacity:1;color-rendering:auto;image-rendering:auto;shape-rendering:auto;text-rendering:auto;enable-background:accumulate" />
    <path
       id="ellipse74943-6-7"
       d="m 30.162665,22.918249 a 1.4808009,1.5070825 0 0 1 -1.480801,1.507083 1.4808009,1.5070825 0 0 1 -1.480801,-1.507083 1.4808009,1.5070825 0 0 1 1.480801,-1.507082 1.4808009,1.5070825 0 0 1 1.480801,1.507082 z"
       style="fill:#ffffff;fill-opacity:1;stroke:none;stroke-width:0.42957234" />
    <path
       id="ellipse74945-0-4"
       d="m 27.20121,41.856823 a 0.74040043,0.75354117 0 0 1 -0.7404,0.753541 0.74040043,0.75354117 0 0 1 -0.740401,-0.753541 0.74040043,0.75354117 0 0 1 0.740401,-0.753541 0.74040043,0.75354117 0 0 1 0.7404,0.753541 z"
       style="fill:#ffffff;fill-opacity:1;stroke:none;stroke-width:0.22212623" />
    <path
       id="ellipse74947-6-3"
       d="m 29.739725,41.856823 a 0.74040043,0.75354117 0 0 1 -0.7404,0.753541 0.74040043,0.75354117 0 0 1 -0.740401,-0.753541 0.74040043,0.75354117 0 0 1 0.740401,-0.753541 0.74040043,0.75354117 0 0 1 0.7404,0.753541 z"
       style="fill:#ffffff;fill-opacity:1;stroke:none;stroke-width:0.22212623" />
    <path
       id="ellipse74949-3-0"
       d="m 32.278242,41.856823 a 0.74040043,0.75354117 0 0 1 -0.7404,0.753541 0.74040043,0.75354117 0 0 1 -0.740401,-0.753541 0.74040043,0.75354117 0 0 1 0.740401,-0.753541 0.74040043,0.75354117 0 0 1 0.7404,0.753541 z"
       style="fill:#ffffff;fill-opacity:1;stroke:none;stroke-width:0.22212623" />
    <path
       style="fill:none;fill-opacity:1;stroke:#ffffff;stroke-width:1.81077433;stroke-opacity:1"
       d="m 20.360349,44.050782 h 17.066523 v -1.406693 c 0,-2.327382 -1.808794,-3.150288 -4.028389,-3.150288 h -9.009745 c -2.219593,0 -4.028389,0.822906 -4.028389,3.150288 z"
       id="path74953-2-3" />
    <path
       style="fill:#ffffff;fill-opacity:1;stroke:#ffffff;stroke-width:0.25957376;stroke-opacity:1"
       d="m -33.403428,66.315287 c -0.598375,0 -0.837323,0.754495 -0.837323,1.256989 0,0.502495 0.239952,1.25699 0.837323,1.25699 0.597874,0 0.83632,-0.754495 0.83632,-1.25699 0,-0.502494 -0.23945,-1.256989 -0.83632,-1.256989 z m -9.763253,-12.290284 v 25.697501 c 5.82713,0 10.723063,0 16.550193,0 0,-8.565499 0,-17.132002 0,-25.697501 z m 1.11593,1.117435 h 11.901239 l -5.346221,1.975843 c -0.164653,0.08333 -0.329809,0.246981 -0.329809,0.494463 v 18.522019 c 0,0.247483 0.08283,0.411634 0.329809,0.493961 l 5.346221,1.976345 h -11.901239 z m 7.252286,2.813167 7.066549,-2.626927 v 22.904414 l -7.066549,-2.627429 z"
       id="path74957-0-0" />
    <g
       id="g74963-6-9"
       transform="matrix(0.44327296,0,0,0.44423981,-4640.3577,-19459.55)"
       style="fill:#4a4a4a;fill-opacity:1">
      <path
         d="m 10468.485,43879.37 -0.01,-24.725 c 0,-4.256 -3.48,-7.722 -7.756,-7.722 -4.276,0 -7.756,3.466 -7.756,7.722 v 24.722 c -3.993,2.602 -6.46,7.046 -6.46,11.83 0,7.803 6.382,14.157 14.22,14.157 7.845,0 14.22,-6.354 14.22,-14.157 0,-4.784 -2.467,-9.22 -6.453,-11.827 z m -7.767,23.131 c -6.262,0 -11.354,-5.073 -11.354,-11.304 0,-4.053 2.198,-7.813 5.735,-9.829 l 0.721,-0.412 v -0.827 -25.484 c 0,-2.688 2.194,-4.872 4.894,-4.872 2.699,0 4.898,2.184 4.898,4.872 v 0.612 h -3.269 c -0.608,0 -1.103,0.489 -1.103,1.098 0,0.605 0.495,1.094 1.103,1.094 h 3.269 v 2.885 h -3.269 c -0.608,0 -1.103,0.489 -1.103,1.098 0,0.605 0.495,1.097 1.103,1.097 h 3.269 v 2.882 h -3.269 c -0.608,0 -1.103,0.492 -1.103,1.097 0,0.605 0.495,1.094 1.103,1.094 h 3.269 v 12.527 0.831 l 0.725,0.404 c 3.533,2.017 5.735,5.78 5.735,9.829 0,6.235 -5.096,11.308 -11.361,11.308 z"
         id="path74959-1-2"
         style="fill:#ffffff;fill-opacity:1" />
      <path
         d="m 10464.42,43885.395 c -1.229,-0.718 -1.984,-2.048 -1.984,-3.483 v -7.387 c 0,-0.965 -0.771,-1.748 -1.716,-1.748 -0.948,0 -1.716,0.783 -1.716,1.748 v 7.379 c 0,1.443 -0.759,2.772 -1.984,3.49 -2.339,1.354 -3.79,3.9 -3.79,6.636 0,4.21 3.362,7.635 7.497,7.635 4.136,0 7.499,-3.425 7.499,-7.635 0,-2.732 -1.46,-5.278 -3.796,-6.636 z"
         id="path74961-5-5"
         style="fill:#ffffff;fill-opacity:1" />
    </g>
    <g
       id="g74975-54-4"
       transform="matrix(0.36376267,0,0,0.36376267,-3887.0774,-15932.702)"
       style="fill:#4a4a4a;fill-opacity:1">
      <path
         d="m 10676.399,44019.236 c -19.705,0 -35.679,-15.974 -35.679,-35.679 0,-19.705 15.974,-35.679 35.679,-35.679 19.705,0 35.679,15.974 35.679,35.679 0,19.705 -15.974,35.679 -35.679,35.679 z m 0,-3.598 c 17.718,0 32.081,-14.363 32.081,-32.081 0,-17.718 -14.363,-32.081 -32.081,-32.081 -17.718,0 -32.081,14.363 -32.081,32.081 0,17.718 14.363,32.081 32.081,32.081 z"
         id="path74965-7-0"
         style="fill:#ffffff;fill-opacity:1;fill-rule:nonzero;stroke:none;stroke-width:0.51708686;stroke-opacity:1" />
      <path
         d="m 10676.916,44011.48 c -15.135,0 -27.405,-12.27 -27.405,-27.406 0,-15.136 12.27,-27.406 27.405,-27.406 15.136,0 27.406,12.27 27.406,27.406 0,15.136 -12.27,27.406 -27.406,27.406 z m 0,-3.614 c 13.14,0 23.792,-10.652 23.792,-23.792 0,-13.14 -10.652,-23.792 -23.792,-23.792 -13.14,0 -23.791,10.652 -23.791,23.792 0,13.14 10.651,23.792 23.791,23.792 z"
         id="path74967-6-5"
         style="fill:#ffffff;fill-opacity:1;fill-rule:nonzero;stroke:none;stroke-width:0.51708686;stroke-opacity:1" />
      <path
         d="m 10672.159,43985.434 c 0.02,1.596 0.893,3.065 2.285,3.853 1.389,0.786 3.097,0.775 4.479,-0.03 1.382,-0.806 2.233,-2.284 2.233,-3.881 0,-0.662 -0.145,-1.315 -0.425,-1.909 -0.322,-0.584 -0.737,-1.114 -1.226,-1.565 -0.04,-0.03 -0.07,-0.06 -0.103,-0.09 -1.337,-1.339 -2.211,-3.043 -2.527,-4.874 -0.454,0.849 -0.706,1.809 -0.713,2.805 0,0.03 0,0.06 -0.01,0.09 0.01,1.176 0.352,2.327 1.004,3.315 0.874,1.324 -0.64,2.919 -2.009,2.118 -0.965,-0.565 -1.746,-1.367 -2.282,-2.311 -0.468,0.729 -0.723,1.589 -0.712,2.483 z m 11.226,-3.364 0.03,0.06 c 0.485,1.009 0.737,2.117 0.737,3.239 0,2.663 -1.418,5.127 -3.721,6.469 -2.303,1.344 -5.15,1.363 -7.47,0.05 -2.317,-1.313 -3.766,-3.757 -3.804,-6.419 -0.03,-2.664 1.352,-5.147 3.637,-6.519 0.136,-0.08 0.277,-0.139 0.42,-0.174 0.323,-2.904 2.039,-5.499 4.636,-6.927 1.18,-0.648 2.551,0.465 2.157,1.751 -0.155,0.508 -0.244,1.035 -0.263,1.554 -0.01,0.151 -0.01,0.19 -0.01,0.233 0,1.59 0.623,3.115 1.736,4.251 0.766,0.694 1.412,1.516 1.907,2.427 z"
         id="path74969-5-9"
         style="fill:#ffffff;fill-opacity:1;fill-rule:nonzero;stroke:none;stroke-width:0.51708686;stroke-opacity:1" />
      <path
         style="fill:none;fill-rule:evenodd;stroke:#ffffff;stroke-width:4.28147984;stroke-opacity:1"
         id="path74971-69-4"
         d="m 10666.872,43996.043 c 6.611,5.547 16.466,4.684 22.012,-1.926 m -1.925,-22.012 c -6.611,-5.547 -16.466,-4.684 -22.013,1.926" />
      <path
         style="fill:#ffffff;fill-opacity:1;fill-rule:nonzero;stroke:none;stroke-width:0.51708686;stroke-opacity:1"
         id="path74973-3-6"
         d="m 10676.916,43966.647 v 3.605 c -7.634,0 -13.822,6.188 -13.822,13.822 h -3.605 c 0,-9.625 7.802,-17.427 17.427,-17.427 z m 0,34.854 v -3.606 c 7.633,0 13.821,-6.188 13.821,-13.821 h 3.606 c 0,9.625 -7.802,17.427 -17.427,17.427 z" />
    </g>
    <path
       style="fill:#ffffff;fill-opacity:1;stroke:none;stroke-width:0.25957376;stroke-opacity:1"
       id="path74977-4-2"
       d="M 38.280869,54.025347 H 19.292662 c -1.848671,0 -3.353976,1.505305 -3.353976,3.353976 v 18.98985 c 0,1.849082 1.505305,3.353977 3.353976,3.353977 h 18.990261 c 1.848671,0 3.353566,-1.503252 3.353566,-3.353977 v -18.98985 c -0.0041,-1.848671 -1.504895,-3.353976 -3.35562,-3.353976 z m 0,24.26766 H 19.292662 c -1.06008,0 -1.92178,-0.8617 -1.92178,-1.92178 V 57.379323 c 0,-1.06008 0.8617,-1.92178 1.92178,-1.92178 h 18.990261 c 1.059669,0 1.921369,0.8617 1.921369,1.92178 v 18.98985 c 0,1.06008 -0.863343,1.923834 -1.923423,1.923834 z" />
    <path
       style="fill:#ffffff;fill-opacity:1;stroke:none;stroke-width:0.25957376;stroke-opacity:1"
       id="path74979-5-2"
       d="m 28.574216,68.679588 c -1.012436,0 -1.804313,0.792288 -1.804313,1.806367 v 1.074044 c 0,0.430029 0.299829,0.729858 0.729857,0.729858 h 2.150965 c 0.429618,0 0.729857,-0.299829 0.729857,-0.729858 v -1.074044 c -0.0041,-1.012026 -0.79393,-1.806367 -1.806366,-1.806367 z" />
    <path
       style="fill:#ffffff;fill-opacity:1;stroke:none;stroke-width:0.25957376;stroke-opacity:1"
       id="path74981-2-4"
       d="m 25.582498,61.883329 h -0.811181 c -0.323651,0 -0.54996,0.285864 -0.54996,0.695357 v 3.069344 c 0,0.409492 0.226309,0.695357 0.54996,0.695357 h 0.811181 c 0.324473,0 0.550371,-0.285865 0.550371,-0.695357 v -3.071398 c 0,-0.407439 -0.225898,-0.693303 -0.550371,-0.693303 z" />
    <path
       style="fill:#ffffff;fill-opacity:1;stroke:none;stroke-width:0.25957376;stroke-opacity:1"
       id="path74983-5-7"
       d="M 33.683629,58.462815 C 33.501678,58.343705 33.307405,58.27306 33.152973,58.27306 H 24.63701 c -0.154843,0 -0.348705,0.06859 -0.525316,0.185648 -4.340127,2.650816 -4.987429,6.410588 -4.987429,8.415746 0,2.005157 0.647302,5.764929 4.982089,8.411638 0.181951,0.11911 0.375813,0.189755 0.530656,0.189755 h 8.515963 c 0.154432,0 0.348705,-0.06859 0.524906,-0.186058 4.338073,-2.650406 4.985375,-6.410178 4.985375,-8.415335 0,-2.005158 -0.647302,-5.76493 -4.979625,-8.411639 z m 3.536749,8.411639 c 0,3.002396 -1.637969,5.747268 -4.275232,7.172893 h -8.100309 c -2.639727,-1.425625 -4.277286,-4.170497 -4.277286,-7.172893 0,-3.002808 1.637559,-5.74768 4.275232,-7.173305 h 8.10031 c 2.639316,1.425625 4.277285,4.170497 4.277285,7.173305 z" />
    <path
       style="fill:#ffffff;fill-opacity:1;stroke:none;stroke-width:0.25957376;stroke-opacity:1"
       id="path74985-4-7"
       d="m 31.954479,61.883329 h -0.811181 c -0.324062,0 -0.550371,0.285864 -0.550371,0.695357 v 3.069344 c 0,0.409492 0.226309,0.695357 0.550371,0.695357 h 0.811181 c 0.323651,0 0.54996,-0.285865 0.54996,-0.695357 v -3.071398 c -0.0041,-0.407439 -0.227541,-0.693303 -0.54996,-0.693303 z" />
    <path
       style="fill:#ffffff;fill-opacity:1;stroke:none;stroke-width:0.25957376;stroke-opacity:1"
       id="path74989-7-5"
       d="m -28.315733,19.863907 c -0.109434,-0.540646 -0.548176,-0.865435 -1.09585,-0.865435 h -10.959501 c -0.547674,0 -0.986416,0.324789 -1.09585,0.865435 l -3.288051,12.978516 c 0,0.324789 0,0.649076 0.21937,0.865435 0.218869,0.326295 0.547674,0.432718 0.876479,0.432718 h 7.671451 v 8.652343 h -4.383399 c -0.657611,0 -1.09585,0.432718 -1.09585,1.081292 0,0.649077 0.438239,1.081794 1.09585,1.081794 h 10.959501 c 0.65761,0 1.09585,-0.432717 1.09585,-1.081794 0,-0.648574 -0.43824,-1.081292 -1.09585,-1.081292 h -4.383901 v -8.652343 h 7.670948 c 0.657611,0 1.096352,-0.432718 1.096352,-1.081794 0,-0.216359 0,-0.324287 0,-0.432718 z m -13.902684,12.113583 2.681644,-11.003677 h 9.009261 l 2.681142,11.003677 z" />
  </g>
</svg>
