<?xml version="1.0" encoding="UTF-8" standalone="no"?>
<svg
   xmlns:dc="http://purl.org/dc/elements/1.1/"
   xmlns:cc="http://creativecommons.org/ns#"
   xmlns:rdf="http://www.w3.org/1999/02/22-rdf-syntax-ns#"
   xmlns:svg="http://www.w3.org/2000/svg"
   xmlns="http://www.w3.org/2000/svg"
   width="258.3439"
   height="64"
   viewBox="0 0 68.353493 16.933332"
   version="1.1"
   id="svg12999">
  <defs
     id="defs12993" />
  <metadata
     id="metadata12996">
    <rdf:RDF>
      <cc:Work
         rdf:about="">
        <dc:format>image/svg+xml</dc:format>
        <dc:type
           rdf:resource="http://purl.org/dc/dcmitype/StillImage" />
        <dc:title></dc:title>
      </cc:Work>
    </rdf:RDF>
  </metadata>
  <g
     transform="matrix(1.6437883,0,0,1.6437883,-2608.3441,-7707.6631)"
     id="g12911">
    <rect
       style="stroke-width:0.08730105"
       x="1586.7883"
       y="4688.9634"
       width="10.301408"
       height="10.301408"
       id="rect12885"
       rx="1.3229166"
       ry="1.3229166" />
    <g
       style="stroke-width:2.30130386"
       transform="matrix(0.24143917,0,0,0.24143917,1386.7678,2619.3112)"
       id="g12909">
      <path
         style="color:#000000;clip-rule:nonzero;display:inline;overflow:visible;visibility:visible;opacity:1;isolation:auto;mix-blend-mode:normal;color-interpolation:sRGB;color-interpolation-filters:linearRGB;solid-color:#000000;solid-opacity:1;fill:#ffffff;fill-opacity:1;fill-rule:nonzero;stroke:none;stroke-width:14.77307701;stroke-linecap:butt;stroke-linejoin:round;stroke-miterlimit:4;stroke-dasharray:none;stroke-dashoffset:0;stroke-opacity:1;color-rendering:auto;image-rendering:auto;shape-rendering:auto;text-rendering:auto;enable-background:accumulate"
         d="m 853.29942,8595.0859 a 5.5395312,5.5395312 0 0 1 -5.53953,5.5396 5.5395312,5.5395312 0 0 1 -5.53953,-5.5396 5.5395312,5.5395312 0 0 1 5.53953,-5.5395 5.5395312,5.5395312 0 0 1 5.53953,5.5395 z"
         id="path12887" />
      <path
         style="color:#000000;clip-rule:nonzero;display:inline;overflow:visible;visibility:visible;opacity:1;isolation:auto;mix-blend-mode:normal;color-interpolation:sRGB;color-interpolation-filters:linearRGB;solid-color:#000000;solid-opacity:1;fill:#ffffff;fill-opacity:1;fill-rule:nonzero;stroke:none;stroke-width:14.77307701;stroke-linecap:butt;stroke-linejoin:round;stroke-miterlimit:4;stroke-dasharray:none;stroke-dashoffset:0;stroke-opacity:1;color-rendering:auto;image-rendering:auto;shape-rendering:auto;text-rendering:auto;enable-background:accumulate"
         d="m 854.65427,8582.6074 a 3.3533037,3.3533037 0 0 1 -3.35331,3.3533 3.3533037,3.3533037 0 0 1 -3.3533,-3.3533 3.3533037,3.3533037 0 0 1 3.3533,-3.3533 3.3533037,3.3533037 0 0 1 3.35331,3.3533 z"
         id="path12889" />
      <path
         style="color:#000000;clip-rule:nonzero;display:inline;overflow:visible;visibility:visible;opacity:1;isolation:auto;mix-blend-mode:normal;color-interpolation:sRGB;color-interpolation-filters:linearRGB;solid-color:#000000;solid-opacity:1;fill:#ffffff;fill-opacity:1;fill-rule:nonzero;stroke:none;stroke-width:14.77307701;stroke-linecap:butt;stroke-linejoin:round;stroke-miterlimit:4;stroke-dasharray:none;stroke-dashoffset:0;stroke-opacity:1;color-rendering:auto;image-rendering:auto;shape-rendering:auto;text-rendering:auto;enable-background:accumulate"
         d="m 865.78336,8592.0508 a 3.3533037,3.3533037 0 0 1 -3.35331,3.3533 3.3533037,3.3533037 0 0 1 -3.3533,-3.3533 3.3533037,3.3533037 0 0 1 3.3533,-3.3533 3.3533037,3.3533037 0 0 1 3.35331,3.3533 z"
         id="path12891" />
      <path
         style="color:#000000;clip-rule:nonzero;display:inline;overflow:visible;visibility:visible;opacity:1;isolation:auto;mix-blend-mode:normal;color-interpolation:sRGB;color-interpolation-filters:linearRGB;solid-color:#000000;solid-opacity:1;fill:#ffffff;fill-opacity:1;fill-rule:nonzero;stroke:none;stroke-width:14.77307701;stroke-linecap:butt;stroke-linejoin:round;stroke-miterlimit:4;stroke-dasharray:none;stroke-dashoffset:0;stroke-opacity:1;color-rendering:auto;image-rendering:auto;shape-rendering:auto;text-rendering:auto;enable-background:accumulate"
         d="m 860.21884,8604.3604 a 3.3533037,3.3533037 0 0 1 -3.3533,3.3533 3.3533037,3.3533037 0 0 1 -3.3533,-3.3533 3.3533037,3.3533037 0 0 1 3.3533,-3.3534 3.3533037,3.3533037 0 0 1 3.3533,3.3534 z"
         id="path12893" />
      <path
         style="color:#000000;clip-rule:nonzero;display:inline;overflow:visible;visibility:visible;opacity:1;isolation:auto;mix-blend-mode:normal;color-interpolation:sRGB;color-interpolation-filters:linearRGB;solid-color:#000000;solid-opacity:1;fill:#ffffff;fill-opacity:1;fill-rule:nonzero;stroke:none;stroke-width:14.77307701;stroke-linecap:butt;stroke-linejoin:round;stroke-miterlimit:4;stroke-dasharray:none;stroke-dashoffset:0;stroke-opacity:1;color-rendering:auto;image-rendering:auto;shape-rendering:auto;text-rendering:auto;enable-background:accumulate"
         d="m 841.33304,8602.8428 a 3.3533037,3.3533037 0 0 1 -3.3533,3.3533 3.3533037,3.3533037 0 0 1 -3.35331,-3.3533 3.3533037,3.3533037 0 0 1 3.35331,-3.3533 3.3533037,3.3533037 0 0 1 3.3533,3.3533 z"
         id="path12895" />
      <path
         style="color:#000000;clip-rule:nonzero;display:inline;overflow:visible;visibility:visible;opacity:1;isolation:auto;mix-blend-mode:normal;color-interpolation:sRGB;color-interpolation-filters:linearRGB;solid-color:#000000;solid-opacity:1;fill:#ffffff;fill-opacity:1;fill-rule:nonzero;stroke:none;stroke-width:14.77307701;stroke-linecap:butt;stroke-linejoin:round;stroke-miterlimit:4;stroke-dasharray:none;stroke-dashoffset:0;stroke-opacity:1;color-rendering:auto;image-rendering:auto;shape-rendering:auto;text-rendering:auto;enable-background:accumulate"
         d="m 840.48996,8585.1377 a 3.3533037,3.3533037 0 0 1 -3.3533,3.3533 3.3533037,3.3533037 0 0 1 -3.35331,-3.3533 3.3533037,3.3533037 0 0 1 3.35331,-3.3533 3.3533037,3.3533037 0 0 1 3.3533,3.3533 z"
         id="path12897" />
      <path
         style="fill:none;fill-rule:evenodd;stroke:#ffffff;stroke-width:3.28757644;stroke-linecap:butt;stroke-linejoin:miter;stroke-miterlimit:4;stroke-dasharray:none;stroke-opacity:1"
         d="m 839.58425,8587.4298 4.13232,3.8697"
         id="path12899" />
      <path
         style="fill:none;fill-rule:evenodd;stroke:#ffffff;stroke-width:3.28757644;stroke-linecap:butt;stroke-linejoin:miter;stroke-miterlimit:4;stroke-dasharray:none;stroke-opacity:1"
         d="m 859.14635,8592.7302 -5.96191,1.2334"
         id="path12901" />
      <path
         style="fill:none;fill-rule:evenodd;stroke:#ffffff;stroke-width:3.28757644;stroke-linecap:butt;stroke-linejoin:miter;stroke-miterlimit:4;stroke-dasharray:none;stroke-opacity:1"
         d="m 854.5163,8601.9676 -2.87556,-2.9289"
         id="path12903" />
      <path
         style="fill:none;fill-rule:evenodd;stroke:#ffffff;stroke-width:3.28757644;stroke-linecap:butt;stroke-linejoin:miter;stroke-miterlimit:4;stroke-dasharray:none;stroke-opacity:1"
         d="m 840.60697,8600.7591 2.81282,-2.2309"
         id="path12905" />
      <path
         style="fill:none;fill-rule:evenodd;stroke:#ffffff;stroke-width:3.28757644;stroke-linecap:butt;stroke-linejoin:miter;stroke-miterlimit:4;stroke-dasharray:none;stroke-opacity:1"
         d="m 850.38555,8585.8333 -1.11343,3.9236"
         id="path12907" />
    </g>
  </g>
  <g
     style="fill:#ffffff"
     transform="matrix(1.4563787,0,0,1.4563787,-2022.334,-8533.7425)"
     id="g12921">
    <g
       id="g9665">
      <g
         aria-label="Framework"
         style="font-style:normal;font-weight:normal;font-size:1.61485875px;line-height:0%;font-family:sans-serif;letter-spacing:0px;word-spacing:0px;fill:#ffffff;fill-opacity:1;stroke:none;stroke-width:0.13457173px;stroke-linecap:butt;stroke-linejoin:miter;stroke-opacity:1"
         id="text12915">
        <path
           d="m 1405.1527,5867.8066 -0.333,0.035 -0.101,-0.6561 h -1.2717 v 1.2768 h 1.5089 v 0.323 h -1.5089 v 1.0345 h 0.5804 v 0.323 h -1.3626 v -0.323 h 0.4138 v -2.6343 h -0.4138 v -0.3229 h 2.382 z"
           style="font-style:normal;font-variant:normal;font-weight:normal;font-stretch:normal;font-size:5.04645157px;line-height:1.25;font-family:'Zilla Slab';-inkscape-font-specification:'Zilla Slab Bold';fill:#ffffff;fill-opacity:1;stroke-width:0.13457173px"
           id="path9614" />
        <path
           d="m 1406.705,5867.857 q 0.2422,0 0.3835,0.1161 l 0.086,0.5652 -0.2876,0.035 -0.086,-0.3835 q -0.086,-0.03 -0.1716,-0.03 -0.1968,0 -0.328,0.1665 -0.1312,0.1615 -0.1312,0.4239 v 1.1052 h 0.5198 v 0.2877 h -1.2667 v -0.2877 h 0.3936 v -1.6704 h -0.4037 v -0.2876 h 0.7368 v 0.4037 q 0.066,-0.1867 0.2119,-0.3129 0.1514,-0.1312 0.3432,-0.1312 z"
           style="font-style:normal;font-variant:normal;font-weight:normal;font-stretch:normal;font-size:5.04645157px;line-height:1.25;font-family:'Zilla Slab';-inkscape-font-specification:'Zilla Slab Bold';fill:#ffffff;fill-opacity:1;stroke-width:0.13457173px"
           id="path9616" />
        <path
           d="m 1407.7997,5868.069 q 0.1766,-0.1161 0.3734,-0.1666 0.1968,-0.05 0.4189,-0.05 0.8024,0 0.8024,0.7519 v 1.0698 q 0,0.2423 0.1917,0.2423 0.086,0 0.1514,-0.03 l 0.01,0.2321 q -0.1363,0.076 -0.2927,0.076 -0.3987,0 -0.4088,-0.4541 v -0.01 q -0.106,0.1816 -0.3028,0.3229 -0.1918,0.1413 -0.4643,0.1413 -0.222,0 -0.4541,-0.1362 -0.2271,-0.1363 -0.2271,-0.4946 0,-0.4239 0.333,-0.5551 0.3381,-0.1362 0.7166,-0.1362 0.101,0 0.2019,0.01 0.106,0.01 0.1968,0.015 v -0.2018 q 0,-0.2422 -0.106,-0.3936 -0.1009,-0.1514 -0.4037,-0.1514 -0.2473,0 -0.434,0.091 l -0.086,0.3886 -0.2927,-0.035 z m 1.2414,1.2313 v -0.1716 q -0.096,-0.01 -0.2019,-0.015 -0.1059,-0.01 -0.217,-0.01 -0.2523,0 -0.4592,0.081 -0.2018,0.076 -0.2018,0.3382 0,0.217 0.1362,0.2977 0.1363,0.081 0.2826,0.081 0.2322,0 0.434,-0.1614 0.2069,-0.1615 0.2271,-0.4391 z"
           style="font-style:normal;font-variant:normal;font-weight:normal;font-stretch:normal;font-size:5.04645157px;line-height:1.25;font-family:'Zilla Slab';-inkscape-font-specification:'Zilla Slab Bold';fill:#ffffff;fill-opacity:1;stroke-width:0.13457173px"
           id="path9618" />
        <path
           d="m 1414.1351,5870.1431 h -1.0749 v -0.2877 h 0.328 v -1.0446 q 0,-0.3633 -0.1463,-0.5097 -0.1413,-0.1514 -0.3634,-0.1514 -0.3078,0 -0.4743,0.2322 -0.1666,0.2321 -0.1716,0.444 v 1.0295 h 0.3886 v 0.2877 h -1.0699 v -0.2877 h 0.323 v -1.0446 q 0,-0.3684 -0.1413,-0.5147 -0.1413,-0.1464 -0.3583,-0.1464 -0.3129,0 -0.4794,0.2271 -0.1615,0.2221 -0.1716,0.439 v 1.0396 h 0.4138 v 0.2877 h -1.1607 v -0.2877 h 0.3936 v -1.6704 h -0.3986 v -0.2876 h 0.7519 v 0.4189 q 0.111,-0.2019 0.2977,-0.3331 0.1868,-0.1312 0.4542,-0.1312 0.2624,0 0.4542,0.1312 0.1968,0.1312 0.2675,0.4087 0.1009,-0.2371 0.2977,-0.3885 0.2019,-0.1514 0.4946,-0.1514 0.3229,0 0.5349,0.2018 0.217,0.2019 0.217,0.651 v 1.1506 h 0.3936 z"
           style="font-style:normal;font-variant:normal;font-weight:normal;font-stretch:normal;font-size:5.04645157px;line-height:1.25;font-family:'Zilla Slab';-inkscape-font-specification:'Zilla Slab Bold';fill:#ffffff;fill-opacity:1;stroke-width:0.13457173px"
           id="path9620" />
        <path
           d="m 1416.3771,5869.4971 q -0.045,0.2877 -0.2876,0.4946 -0.2422,0.2018 -0.656,0.2018 -0.4744,0 -0.7671,-0.2977 -0.2927,-0.2978 -0.2927,-0.8428 0,-0.5248 0.2776,-0.8629 0.2775,-0.3381 0.7519,-0.3381 0.4643,0 0.7065,0.2927 0.2422,0.2927 0.2473,0.6913 0,0.1312 -0.03,0.2675 h -1.5796 q 0.03,0.7872 0.7116,0.7872 0.2675,0 0.4188,-0.1261 0.1514,-0.1262 0.2019,-0.3331 z m -0.3936,-0.656 q 0.025,-0.2523 -0.1211,-0.4744 -0.1413,-0.222 -0.4693,-0.222 -0.3129,0 -0.4592,0.2069 -0.1464,0.2069 -0.1817,0.4895 z"
           style="font-style:normal;font-variant:normal;font-weight:normal;font-stretch:normal;font-size:5.04645157px;line-height:1.25;font-family:'Zilla Slab';-inkscape-font-specification:'Zilla Slab Bold';fill:#ffffff;fill-opacity:1;stroke-width:0.13457173px"
           id="path9622" />
        <path
           d="m 1420.3232,5868.185 h -0.2574 l -0.6611,1.9581 h -0.2725 l -0.6863,-1.7158 h -0.025 l -0.6711,1.7158 h -0.2625 l -0.6863,-1.9581 h -0.2472 v -0.2876 h 1.0597 v 0.2876 h -0.4289 l 0.4693,1.4181 h 0.025 l 0.6661,-1.7057 h 0.2372 l 0.7015,1.7057 h 0.025 l 0.4138,-1.4181 h -0.4087 v -0.2876 h 1.0093 z"
           style="font-style:normal;font-variant:normal;font-weight:normal;font-stretch:normal;font-size:5.04645157px;line-height:1.25;font-family:'Zilla Slab';-inkscape-font-specification:'Zilla Slab Bold';fill:#ffffff;fill-opacity:1;stroke-width:0.13457173px"
           id="path9624" />
        <path
           d="m 1422.7147,5869.0177 q 0,0.5097 -0.3028,0.8428 -0.3028,0.333 -0.8226,0.333 -0.5097,0 -0.8023,-0.3229 -0.2877,-0.323 -0.2877,-0.8327 0,-0.4895 0.2826,-0.8377 0.2826,-0.3533 0.8276,-0.3533 0.5501,0 0.8276,0.3482 0.2776,0.3432 0.2776,0.8226 z m -0.3734,-0.01 q 0,-0.3836 -0.1969,-0.6208 -0.1917,-0.2422 -0.545,-0.2422 -0.3532,0 -0.545,0.2473 -0.1867,0.2473 -0.1867,0.6207 0,0.3684 0.1867,0.6207 0.1867,0.2523 0.545,0.2523 0.3583,0 0.5501,-0.2472 0.1918,-0.2524 0.1918,-0.6308 z"
           style="font-style:normal;font-variant:normal;font-weight:normal;font-stretch:normal;font-size:5.04645157px;line-height:1.25;font-family:'Zilla Slab';-inkscape-font-specification:'Zilla Slab Bold';fill:#ffffff;fill-opacity:1;stroke-width:0.13457173px"
           id="path9626" />
        <path
           d="m 1424.338,5867.857 q 0.2422,0 0.3835,0.1161 l 0.086,0.5652 -0.2876,0.035 -0.086,-0.3835 q -0.086,-0.03 -0.1716,-0.03 -0.1968,0 -0.328,0.1665 -0.1312,0.1615 -0.1312,0.4239 v 1.1052 h 0.5198 v 0.2877 h -1.2667 v -0.2877 h 0.3936 v -1.6704 h -0.4037 v -0.2876 h 0.7368 v 0.4037 q 0.066,-0.1867 0.2119,-0.3129 0.1514,-0.1312 0.3432,-0.1312 z"
           style="font-style:normal;font-variant:normal;font-weight:normal;font-stretch:normal;font-size:5.04645157px;line-height:1.25;font-family:'Zilla Slab';-inkscape-font-specification:'Zilla Slab Bold';fill:#ffffff;fill-opacity:1;stroke-width:0.13457173px"
           id="path9628" />
        <path
           d="m 1427.563,5870.1431 h -1.0598 v -0.2877 h 0.3382 l -0.6157,-0.762 h -0.3987 v 0.762 h 0.323 v 0.2877 h -1.0699 v -0.2877 h 0.3886 v -2.8966 h -0.3986 v -0.2877 h 0.7569 v 2.1498 h 0.4037 l 0.5148,-0.6359 h -0.3482 v -0.2876 h 1.0496 v 0.2876 h -0.3431 l -0.6006,0.7419 0.7419,0.9285 h 0.3179 z"
           style="font-style:normal;font-variant:normal;font-weight:normal;font-stretch:normal;font-size:5.04645157px;line-height:1.25;font-family:'Zilla Slab';-inkscape-font-specification:'Zilla Slab Bold';fill:#ffffff;fill-opacity:1;stroke-width:0.13457173px"
           id="path9630" />
      </g>
      <g
         aria-label="WebThings"
         style="font-style:normal;font-weight:normal;font-size:1.44701159px;line-height:0%;font-family:sans-serif;letter-spacing:0px;word-spacing:0px;fill:#ffffff;fill-opacity:1;stroke:none;stroke-width:0.19821483px;stroke-linecap:butt;stroke-linejoin:miter;stroke-opacity:1"
         id="text12919">
        <g
           id="g9642">
          <path
             id="path9595"
             style="font-style:normal;font-variant:normal;font-weight:600;font-stretch:normal;font-size:6.73642826px;line-height:1.25;font-family:'Zilla Slab';-inkscape-font-specification:'Zilla Slab Semi-Bold';text-align:start;text-anchor:start;fill:#ffffff;fill-opacity:1;stroke-width:0.19821483px"
             d="m 1408.5723,5861.4878 h -0.357 l -1.1924,3.7388 h -0.5524 l -1.0711,-3.0853 h -0.034 l -1.0375,3.0853 h -0.5591 l -1.2664,-3.7388 h -0.3773 v -0.6399 h 1.6639 v 0.6399 h -0.485 l 0.7545,2.506 h 0.034 l 0.869,-2.506 h -0.384 v -0.6399 h 1.6572 v 0.6399 h -0.3571 l 0.869,2.5397 h 0.034 l 0.6871,-2.5397 h -0.5389 v -0.6399 h 1.6437 z" />
          <path
             id="path9597"
             style="font-style:normal;font-variant:normal;font-weight:600;font-stretch:normal;font-size:6.73642826px;line-height:1.25;font-family:'Zilla Slab';-inkscape-font-specification:'Zilla Slab Semi-Bold';text-align:start;text-anchor:start;fill:#ffffff;fill-opacity:1;stroke-width:0.19821483px"
             d="m 1411.3013,5864.3037 q -0.04,0.3974 -0.3907,0.6938 -0.3503,0.2964 -0.9633,0.2964 -0.6602,0 -1.0846,-0.3839 -0.4244,-0.3908 -0.4244,-1.1452 0,-0.6939 0.384,-1.1587 0.3907,-0.4648 1.0845,-0.4648 0.6265,0 0.9903,0.3772 0.3705,0.3705 0.3772,0.9431 0,0.1886 -0.04,0.4042 h -2.0411 q 0.061,0.8488 0.8084,0.8488 0.3502,0 0.4985,-0.1684 0.1549,-0.1684 0.202,-0.357 z m -0.768,-0.8825 q 0.027,-0.2695 -0.128,-0.5052 -0.1482,-0.2425 -0.5052,-0.2425 -0.3233,0 -0.4918,0.2155 -0.1684,0.2156 -0.2088,0.5322 z" />
          <path
             id="path9599"
             style="font-style:normal;font-variant:normal;font-weight:600;font-stretch:normal;font-size:6.73642826px;line-height:1.25;font-family:'Zilla Slab';-inkscape-font-specification:'Zilla Slab Semi-Bold';text-align:start;text-anchor:start;fill:#ffffff;fill-opacity:1;stroke-width:0.19821483px"
             d="m 1414.9626,5863.6435 q 0,0.64 -0.3368,1.1452 -0.3368,0.5052 -1.0374,0.5052 -0.7141,0 -1.0037,-0.5389 -0.014,0.081 -0.034,0.2358 -0.02,0.1549 -0.034,0.2358 h -0.714 q 0.04,-0.2223 0.074,-0.4514 0.034,-0.2358 0.034,-0.4581 v -3.1728 h -0.4513 v -0.5524 h 1.1654 v 2.2095 q 0.1347,-0.2694 0.3772,-0.4648 0.2493,-0.1953 0.6669,-0.1953 0.5726,0 0.9297,0.3974 0.3637,0.3907 0.3637,1.1048 z m -0.7477,0.061 q 0,-0.4783 -0.2156,-0.7275 -0.2155,-0.256 -0.5524,-0.256 -0.3839,0 -0.5995,0.2829 -0.2156,0.283 -0.2223,0.6131 v 0.2155 q 0,0.3705 0.2156,0.6332 0.2223,0.256 0.5793,0.256 0.3772,0 0.5861,-0.2762 0.2088,-0.2762 0.2088,-0.741 z" />
          <path
             id="path9601"
             style="font-style:normal;font-variant:normal;font-weight:600;font-stretch:normal;font-size:6.73642826px;line-height:1.25;font-family:'Zilla Slab';-inkscape-font-specification:'Zilla Slab Semi-Bold';text-align:start;text-anchor:start;fill:#ffffff;fill-opacity:1;stroke-width:0.19821483px"
             d="m 1419.0112,5862.276 -0.6467,0.054 -0.1347,-0.8421 h -0.8555 v 3.0988 h 0.7343 v 0.64 h -2.1894 v -0.64 h 0.7073 v -3.0988 h -0.8622 l -0.1348,0.8421 -0.6399,-0.054 0.1347,-1.4281 h 3.7522 z" />
          <path
             id="path9603"
             style="font-style:normal;font-variant:normal;font-weight:600;font-stretch:normal;font-size:6.73642826px;line-height:1.25;font-family:'Zilla Slab';-inkscape-font-specification:'Zilla Slab Semi-Bold';text-align:start;text-anchor:start;fill:#ffffff;fill-opacity:1;stroke-width:0.19821483px"
             d="m 1422.9364,5865.2266 h -1.6235 v -0.5524 h 0.4513 v -1.1856 q 0,-0.4312 -0.1617,-0.6063 -0.1616,-0.1819 -0.4378,-0.1819 -0.3301,0 -0.5255,0.2156 -0.1953,0.2155 -0.2088,0.5254 v 1.2328 h 0.4446 v 0.5524 h -1.6167 v -0.5524 h 0.4513 v -3.5299 h -0.4513 v -0.5524 h 1.1721 v 2.1085 q 0.3099,-0.5591 1.0037,-0.5591 0.4379,0 0.741,0.2627 0.3099,0.2627 0.3099,0.8218 v 1.4484 h 0.4514 z" />
          <path
             id="path9605"
             style="font-style:normal;font-variant:normal;font-weight:600;font-stretch:normal;font-size:6.73642826px;line-height:1.25;font-family:'Zilla Slab';-inkscape-font-specification:'Zilla Slab Semi-Bold';text-align:start;text-anchor:start;fill:#ffffff;fill-opacity:1;stroke-width:0.19821483px"
             d="m 1423.6387,5861.5754 v -0.7949 h 0.7343 v 0.7949 z m 1.2059,3.6512 h -1.6168 v -0.5524 h 0.4514 v -1.9132 h -0.4783 v -0.5591 h 1.1923 v 2.4723 h 0.4514 z" />
          <path
             id="path9607"
             style="font-style:normal;font-variant:normal;font-weight:600;font-stretch:normal;font-size:6.73642826px;line-height:1.25;font-family:'Zilla Slab';-inkscape-font-specification:'Zilla Slab Semi-Bold';text-align:start;text-anchor:start;fill:#ffffff;fill-opacity:1;stroke-width:0.19821483px"
             d="m 1428.8525,5865.2266 h -1.6167 v -0.5524 h 0.4446 v -1.1856 q 0,-0.4312 -0.155,-0.6063 -0.1549,-0.1819 -0.4311,-0.1819 -0.3435,0 -0.5456,0.2223 -0.1954,0.2223 -0.2021,0.5457 v 1.2058 h 0.4513 v 0.5524 h -1.6235 v -0.5524 h 0.4514 v -1.9132 h -0.4716 v -0.5591 h 1.1924 v 0.4918 q 0.3166,-0.5524 1.0037,-0.5524 0.4311,0 0.741,0.2627 0.3099,0.2627 0.3099,0.8218 v 1.4484 h 0.4513 z" />
          <path
             id="path9609"
             style="font-style:normal;font-variant:normal;font-weight:600;font-stretch:normal;font-size:6.73642826px;line-height:1.25;font-family:'Zilla Slab';-inkscape-font-specification:'Zilla Slab Semi-Bold';text-align:start;text-anchor:start;fill:#ffffff;fill-opacity:1;stroke-width:0.19821483px"
             d="m 1432.6043,5862.761 h -0.4379 v 2.351 q 0,0.7208 -0.4042,1.1654 -0.3974,0.4446 -1.1923,0.4446 -0.4716,0 -0.8825,-0.202 -0.4109,-0.2021 -0.5793,-0.6939 l 0.5591,-0.3031 q 0.2829,0.6197 0.9162,0.6197 0.3772,0 0.6197,-0.2694 0.2425,-0.2695 0.2425,-0.768 v -0.4513 q -0.128,0.2425 -0.3705,0.4176 -0.2358,0.1684 -0.6534,0.1684 -0.5322,0 -0.9229,-0.3705 -0.384,-0.3772 -0.384,-1.0913 0,-0.6467 0.3436,-1.1384 0.3503,-0.4985 1.0104,-0.4985 0.6872,0 0.9768,0.5322 v -0.4716 h 1.1587 z m -1.1587,1.024 v -0.2425 q 0,-0.3773 -0.2155,-0.5996 -0.2156,-0.2223 -0.539,-0.2223 -0.3772,0 -0.5793,0.2762 -0.2021,0.2695 -0.2021,0.7343 0,0.4783 0.2021,0.7073 0.2021,0.2223 0.512,0.2223 0.384,0 0.5995,-0.2695 0.2223,-0.2694 0.2223,-0.6062 z" />
          <path
             id="path9611"
             style="font-style:normal;font-variant:normal;font-weight:600;font-stretch:normal;font-size:6.73642826px;line-height:1.25;font-family:'Zilla Slab';-inkscape-font-specification:'Zilla Slab Semi-Bold';text-align:start;text-anchor:start;fill:#ffffff;fill-opacity:1;stroke-width:0.19821483px"
             d="m 1435.5383,5864.3239 q 0,0.4715 -0.3907,0.7208 -0.384,0.2492 -0.9835,0.2492 -0.3234,0 -0.6534,-0.074 -0.3234,-0.074 -0.5861,-0.2223 l 0.1078,-0.7814 0.5658,0.054 -0.01,0.3907 q 0.128,0.054 0.2695,0.074 0.1482,0.02 0.2627,0.02 0.2762,0 0.4783,-0.094 0.2088,-0.101 0.2088,-0.2964 0,-0.1886 -0.1886,-0.2695 -0.1819,-0.081 -0.4581,-0.1212 -0.2762,-0.047 -0.5524,-0.1213 -0.2762,-0.081 -0.4648,-0.256 -0.1819,-0.1818 -0.1819,-0.5389 0,-0.5254 0.3975,-0.7208 0.4041,-0.1953 0.8487,-0.1953 0.5861,0 1.1048,0.2762 l 0.074,0.7477 -0.5658,0.067 -0.061,-0.4514 q -0.2627,-0.101 -0.5321,-0.101 -0.2089,0 -0.3571,0.088 -0.1414,0.081 -0.1414,0.2627 0,0.1886 0.1818,0.2627 0.1819,0.074 0.4514,0.1213 0.2694,0.04 0.5389,0.1212 0.2695,0.074 0.4513,0.256 0.1819,0.1752 0.1819,0.5322 z" />
        </g>
      </g>
    </g>
  </g>
</svg>
