<?xml version="1.0" encoding="UTF-8" standalone="no"?>
<!-- Created with Inkscape (http://www.inkscape.org/) -->

<svg
   width="64"
   height="64"
   viewBox="0 0 16.933333 16.933333"
   version="1.1"
   id="svg1"
   xmlns="http://www.w3.org/2000/svg"
   xmlns:svg="http://www.w3.org/2000/svg">
  <defs
     id="defs1">
    <rect
       x="2971.8125"
       y="-4663.1875"
       width="116.13421"
       height="120.49219"
       id="rect247" />
  </defs>
  <g
     id="layer1">
    <path
       id="path246"
       style="fill:none;stroke:#000000;stroke-width:1.10594;paint-order:fill markers stroke"
       d="M 15.322033,8.4666443 A 6.8553648,6.8553648 0 0 1 8.4666681,15.322009 6.8553648,6.8553648 0 0 1 1.6113033,8.4666443 6.8553648,6.8553648 0 0 1 8.4666681,1.6112795 6.8553648,6.8553648 0 0 1 15.322033,8.4666443 Z" />
    <path
       style="font-weight:bold;font-size:40px;line-height:1.25;font-family:'Open Sans';-inkscape-font-specification:'Open Sans Bold';text-align:center;white-space:pre"
       d="m 3032.2822,-4637.2182 h -4.7656 l -0.9961,-19.082 h 6.7578 z m -5.8398,6.6797 q 0,-1.6406 0.8789,-2.4805 0.8789,-0.8398 2.5586,-0.8398 1.6211,0 2.5,0.8594 0.8984,0.8593 0.8984,2.4609 0,1.543 -0.8984,2.4414 -0.8985,0.8789 -2.5,0.8789 -1.6406,0 -2.5391,-0.8594 -0.8984,-0.8789 -0.8984,-2.4609 z"
       id="text247"
       transform="matrix(0.22118696,0,0,0.22118696,-661.69889,1035.1632)"
       aria-label="!" />
  </g>
</svg>
