<?xml version="1.0" encoding="UTF-8" standalone="no"?>
<!-- Created with Inkscape (http://www.inkscape.org/) -->

<svg
   width="64"
   height="64"
   viewBox="0 0 16.933333 16.933333"
   version="1.1"
   id="svg1"
   xmlns="http://www.w3.org/2000/svg"
   xmlns:svg="http://www.w3.org/2000/svg">
  <defs
     id="defs1">
    <rect
       x="2971.8125"
       y="-4663.1875"
       width="116.13421"
       height="120.49219"
       id="rect247" />
    <rect
       x="3320.1812"
       y="-4713.9053"
       width="274.22906"
       height="215.49632"
       id="rect308" />
  </defs>
  <g
     id="layer1">
    <path
       style="font-weight:600;font-size:40px;line-height:1.25;font-family:'Open Sans';-inkscape-font-specification:'Open Sans Semi-Bold';text-align:center;white-space:pre"
       d="m 3473.0479,-4692.8979 q 0,2.793 -0.879,5.1172 -0.8789,2.3047 -2.4804,3.5938 -1.5821,1.289 -3.6719,1.289 -1.543,0 -2.6758,-0.8203 -1.1328,-0.8203 -1.5234,-2.2266 h -0.2344 q -0.957,1.5235 -2.3633,2.2852 -1.4062,0.7617 -3.164,0.7617 -3.1836,0 -5.0196,-2.0508 -1.8164,-2.0507 -1.8164,-5.5468 0,-4.0235 2.4219,-6.5235 2.4219,-2.5195 6.5039,-2.5195 1.4844,0 3.2813,0.2734 1.8164,0.2539 3.2226,0.7227 l -0.4297,9.082 v 0.4688 q 0,3.125 2.0313,3.125 1.5429,0 2.4414,-1.9922 0.918,-1.9922 0.918,-5.0781 0,-3.3399 -1.3672,-5.8594 -1.3672,-2.5391 -3.8868,-3.9063 -2.5195,-1.3672 -5.7812,-1.3672 -4.1602,0 -7.2461,1.7188 -3.0664,1.7187 -4.6875,4.9219 -1.6211,3.1836 -1.6211,7.4023 0,5.6641 3.0274,8.7109 3.0273,3.0469 8.6914,3.0469 4.3164,0 9.0039,-1.7578 v 3.2031 q -4.1016,1.6797 -8.9258,1.6797 -7.2266,0 -11.2695,-3.8867 -4.043,-3.9062 -4.043,-10.8789 0,-5.0977 2.1875,-9.0625 2.1875,-3.9844 6.0547,-6.0938 3.8867,-2.1093 8.789,-2.1093 4.2383,0 7.5391,1.7578 3.3203,1.7578 5.1367,5.0195 1.836,3.2422 1.836,7.5 z m -20.0782,2.4805 q 0,4.5508 3.5742,4.5508 3.7696,0 4.1211,-5.7227 l 0.2344,-4.668 q -1.2305,-0.332 -2.6367,-0.332 -2.5,0 -3.9063,1.6602 -1.3867,1.6601 -1.3867,4.5117 z"
       id="text308"
       transform="matrix(0.46455195,0,0,0.4625691,-1597.6178,2178.4521)"
       aria-label="@" />
  </g>
</svg>
